
<svg width="165px" height="10px" viewBox="0 0 165 10" version="1.1" xmlns="http://www.w3.org/2000/svg" xmlns:xlink="http://www.w3.org/1999/xlink">
    <g id="Page-1" stroke="none" stroke-width="1" fill="none" fill-rule="evenodd">
        <g id="Hero-1" transform="translate(-60.000000, -67.000000)" fill="#000000" fill-rule="nonzero">
            <g id="nav" transform="translate(60.000000, 47.000000)">
                <path d="M4.632,29.072 C3.48799428,29.072 2.50800408,28.672004 1.692,27.872 C0.87599592,27.071996 0.468,26.0580061 0.468,24.83 C0.468,23.6019939 0.87599592,22.590004 1.692,21.794 C2.50800408,20.997996 3.51199404,20.6 4.704,20.6 C5.56800432,20.6 6.33799662,20.803998 7.014,21.212 C7.69000338,21.620002 8.1879984,22.2079962 8.508,22.976 L7.188,22.976 C6.69199752,22.0399953 5.8640058,21.572 4.704,21.572 C3.79999548,21.572 3.05400294,21.869997 2.466,22.466 C1.87799706,23.062003 1.584,23.8519951 1.584,24.836 C1.584,25.8200049 1.87799706,26.611997 2.466,27.212 C3.05400294,27.812003 3.78599562,28.112 4.662,28.112 C5.53800438,28.112 6.24199734,27.8640025 6.774,27.368 C7.30600266,26.8719975 7.61599956,26.2000042 7.704,25.352 L4.272,25.352 L4.272,24.488 L8.856,24.488 L8.856,25.352 C8.74399944,26.4240054 8.30000388,27.3119965 7.524,28.016 C6.74799612,28.7200035 5.78400576,29.072 4.632,29.072 Z M13.224,20.684 L14.316,20.684 L14.316,28.16 L17.232,28.16 L17.232,29 L13.224,29 L13.224,20.684 Z M22.26,22.904 C22.26,23.2080015 22.3439992,23.459999 22.512,23.66 C22.6800008,23.860001 22.8959987,24.0079995 23.16,24.104 C23.358001,24.1760004 23.5728746,24.24125 23.8046245,24.2997499 L24.042,24.356 C24.3660016,24.4280004 24.6899984,24.5099995 25.014,24.602 C25.3380016,24.6940005 25.6319987,24.8119993 25.896,24.956 C26.1600013,25.1 26.3759992,25.3159986 26.544,25.604 C26.7120008,25.8920014 26.796,26.2479979 26.796,26.672 C26.796,27.3200032 26.5480025,27.8839976 26.052,28.364 C25.5559975,28.8440024 24.8860042,29.084 24.042,29.084 C23.1979958,29.084 22.5120026,28.8900019 21.984,28.502 C21.4559974,28.1139981 21.192,27.5880033 21.192,26.924 L22.356,26.924 C22.3880002,27.3000019 22.5379987,27.6039988 22.806,27.836 C23.0740013,28.0680012 23.4719974,28.184 24,28.184 C24.5280026,28.184 24.9479984,28.0480014 25.26,27.776 C25.5720016,27.5039986 25.728,27.1860018 25.728,26.822 C25.728,26.4579982 25.6440008,26.178001 25.476,25.982 C25.3079992,25.785999 25.0920013,25.6400005 24.828,25.544 C24.629999,25.4719996 24.4151254,25.407875 24.1833755,25.3516251 L23.946,25.298 C23.6219984,25.2299997 23.2980016,25.1480005 22.974,25.052 C22.6499984,24.9559995 22.3560013,24.8340007 22.092,24.686 C21.8279987,24.5379993 21.6120008,24.3180015 21.444,24.026 C21.2759992,23.7339985 21.192,23.3720022 21.192,22.94 C21.192,22.2359965 21.4419975,21.6700021 21.942,21.242 C22.4420025,20.8139979 23.093996,20.6 23.898,20.6 C24.702004,20.6 25.3419976,20.7859981 25.818,21.158 C26.2940024,21.5300019 26.5679996,22.0439967 26.64,22.7 L25.428,22.7 C25.3959998,22.3719984 25.2420014,22.0920012 24.966,21.86 C24.6899986,21.6279988 24.3180023,21.512 23.85,21.512 C23.3819977,21.512 23.0000015,21.6299988 22.704,21.866 C22.4079985,22.1020012 22.26,22.4479977 22.26,22.904 Z M31.416,20.684 L32.508,20.684 L32.508,28.16 L35.424,28.16 L35.424,29 L31.416,29 L31.416,20.684 Z M50.508,27.32 C50.3639993,27.8400026 50.0780021,28.2659983 49.65,28.598 C49.2219979,28.9300017 48.6960031,29.096 48.072,29.096 C47.4479969,29.096 46.9000024,28.8660023 46.428,28.406 C45.9559976,27.9459977 45.72,27.3600036 45.72,26.648 C45.72,25.9359964 45.9499977,25.3520023 46.41,24.896 C46.8700023,24.4399977 47.4319967,24.212 48.096,24.212 C48.1840004,24.212 48.2879994,24.2479996 48.408,24.32 L47.928,23.96 C47.3759972,23.2399964 47.1,22.6100027 47.1,22.07 C47.1,21.5299973 47.2939981,21.0700019 47.682,20.69 C48.0700019,20.3099981 48.5939967,20.12 49.254,20.12 C49.9140033,20.12 50.439998,20.3059981 50.832,20.678 C51.224002,21.0500019 51.42,21.4919974 51.42,22.004 C51.42,22.1720008 51.3920003,22.355999 51.336,22.556 L50.232,22.556 C50.2800002,22.4119993 50.304,22.2200012 50.304,21.98 C50.304,21.7399988 50.206001,21.520001 50.01,21.32 C49.813999,21.12 49.5620015,21.02 49.254,21.02 C48.9459985,21.02 48.694001,21.12 48.498,21.32 C48.301999,21.520001 48.204,21.7839984 48.204,22.112 C48.204,22.4400016 48.3879982,22.8479976 48.756,23.336 L53.1,29 L51.768,29 L50.508,27.32 Z M47.148,27.752 C47.4280014,28.0560015 47.767998,28.208 48.168,28.208 C48.568002,28.208 48.9119986,28.0560015 49.2,27.752 C49.4880014,27.4479985 49.632,27.0780022 49.632,26.642 C49.632,26.2059978 49.4900014,25.8360015 49.206,25.532 C48.9219986,25.2279985 48.578002,25.076 48.174,25.076 C47.769998,25.076 47.4280014,25.2259985 47.148,25.526 C46.8679986,25.8260015 46.728,26.1959978 46.728,26.636 C46.728,27.076 46.8679986,27.4479985 47.148,27.752 Z M67.032,26.828 L67.032,20.684 L68.124,20.684 L68.124,26.828 C68.124,27.5160034 67.9120021,28.063998 67.488,28.472 C67.0639979,28.880002 66.5040035,29.084 65.808,29.084 C65.1119965,29.084 64.5500021,28.880002 64.122,28.472 C63.6939979,28.063998 63.48,27.5160034 63.48,26.828 L64.596,26.828 C64.604,27.2120019 64.705999,27.5239988 64.902,27.764 C65.098001,28.0040012 65.4019979,28.124 65.814,28.124 C66.2260021,28.124 66.531999,28.0020012 66.732,27.758 C66.932001,27.5139988 67.032,27.2040019 67.032,26.828 Z M74.292,22.904 C74.292,23.2080015 74.3759992,23.459999 74.544,23.66 C74.7120008,23.860001 74.9279987,24.0079995 75.192,24.104 C75.390001,24.1760004 75.6048746,24.24125 75.8366245,24.2997499 L76.074,24.356 C76.3980016,24.4280004 76.7219984,24.5099995 77.046,24.602 C77.3700016,24.6940005 77.6639987,24.8119993 77.928,24.956 C78.1920013,25.1 78.4079992,25.3159986 78.576,25.604 C78.7440008,25.8920014 78.828,26.2479979 78.828,26.672 C78.828,27.3200032 78.5800025,27.8839976 78.084,28.364 C77.5879975,28.8440024 76.9180042,29.084 76.074,29.084 C75.2299958,29.084 74.5440026,28.8900019 74.016,28.502 C73.4879974,28.1139981 73.224,27.5880033 73.224,26.924 L74.388,26.924 C74.4200002,27.3000019 74.5699987,27.6039988 74.838,27.836 C75.1060013,28.0680012 75.5039974,28.184 76.032,28.184 C76.5600026,28.184 76.9799984,28.0480014 77.292,27.776 C77.6040016,27.5039986 77.76,27.1860018 77.76,26.822 C77.76,26.4579982 77.6760008,26.178001 77.508,25.982 C77.3399992,25.785999 77.1240013,25.6400005 76.86,25.544 C76.661999,25.4719996 76.4471254,25.407875 76.2153755,25.3516251 L75.978,25.298 C75.6539984,25.2299997 75.3300016,25.1480005 75.006,25.052 C74.6819984,24.9559995 74.3880013,24.8340007 74.124,24.686 C73.8599987,24.5379993 73.6440008,24.3180015 73.476,24.026 C73.3079992,23.7339985 73.224,23.3720022 73.224,22.94 C73.224,22.2359965 73.4739975,21.6700021 73.974,21.242 C74.4740025,20.8139979 75.125996,20.6 75.93,20.6 C76.734004,20.6 77.3739976,20.7859981 77.85,21.158 C78.3260024,21.5300019 78.5999996,22.0439967 78.672,22.7 L77.46,22.7 C77.4279998,22.3719984 77.2740014,22.0920012 76.998,21.86 C76.7219986,21.6279988 76.3500023,21.512 75.882,21.512 C75.4139977,21.512 75.0320015,21.6299988 74.736,21.866 C74.4399985,22.1020012 74.292,22.4479977 74.292,22.904 Z M95.784,29 L95.136,27.176 L91.44,27.176 L90.792,29 L89.676,29 L92.7,20.684 L93.9,20.684 L96.912,29 L95.784,29 Z M91.752,26.312 L94.824,26.312 L93.288,22.016 L91.752,26.312 Z M105.144,29.072 C103.951994,29.072 102.948004,28.672004 102.132,27.872 C101.315996,27.071996 100.908,26.0580061 100.908,24.83 C100.908,23.6019939 101.315996,22.590004 102.132,21.794 C102.948004,20.997996 103.951994,20.6 105.144,20.6 C106.008004,20.6 106.777997,20.803998 107.454,21.212 C108.130003,21.620002 108.627998,22.2079962 108.948,22.976 L107.628,22.976 C107.131998,22.0399953 106.304006,21.572 105.144,21.572 C104.239995,21.572 103.494003,21.869997 102.906,22.466 C102.317997,23.062003 102.024,23.8519951 102.024,24.836 C102.024,25.8200049 102.317997,26.611997 102.906,27.212 C103.494003,27.812003 104.239995,28.112 105.144,28.112 C105.696003,28.112 106.187998,27.9900012 106.62,27.746 C107.052002,27.5019988 107.387999,27.1520023 107.628,26.696 L108.948,26.696 C108.627998,27.4640038 108.130003,28.051998 107.454,28.46 C106.777997,28.868002 106.008004,29.072 105.144,29.072 Z M119.4,29 L118.752,27.176 L115.056,27.176 L114.408,29 L113.292,29 L116.316,20.684 L117.516,20.684 L120.528,29 L119.4,29 Z M115.368,26.312 L118.44,26.312 L116.904,22.016 L115.368,26.312 Z M126.048,28.16 L127.584,28.16 C128.632005,28.16 129.431997,27.8720029 129.984,27.296 C130.536003,26.7199971 130.812,25.9160052 130.812,24.884 C130.812,23.8519948 130.536003,23.0480029 129.984,22.472 C129.431997,21.8959971 128.632005,21.608 127.584,21.608 L126.048,21.608 L126.048,28.16 Z M127.584,20.684 C128.928007,20.684 129.987996,21.0599962 130.764,21.812 C131.540004,22.5640038 131.928,23.5879935 131.928,24.884 C131.928,26.1800065 131.540004,27.1899964 130.764,27.914 C129.987996,28.6380036 128.928007,29 127.584,29 L124.956,29 L124.956,20.684 L127.584,20.684 Z M140.712,20.684 L140.712,21.548 L137.4,21.548 L137.4,24.38 L140.352,24.38 L140.352,25.232 L137.4,25.232 L137.4,28.136 L140.712,28.136 L140.712,29 L136.308,29 L136.308,20.684 L140.712,20.684 Z M153.852,20.684 L153.852,29 L152.748,29 L152.748,22.94 L149.964,29 L149.256,29 L146.46,22.94 L146.46,29 L145.368,29 L145.368,20.684 L146.484,20.684 L149.616,27.5 L152.736,20.684 L153.852,20.684 Z M161.736,29 L160.644,29 L160.644,25.856 L157.932,20.684 L159.132,20.684 L161.184,24.848 L163.224,20.684 L164.436,20.684 L161.736,25.856 L161.736,29 Z" id="GLSL&amp;JSACADEMY"></path>
            </g>
        </g>
    </g>
</svg>