
<svg width="62px" height="21px" viewBox="0 0 62 21" version="1.1" xmlns="http://www.w3.org/2000/svg" xmlns:xlink="http://www.w3.org/1999/xlink">
    <g id="Page-1" stroke="none" stroke-width="1" fill="none" fill-rule="evenodd">
        <g id="Mobile-Hero-1-Copy" transform="translate(-320.000000, -47.000000)" fill="#FFFFFF" fill-rule="nonzero">
            <g id="nav" transform="translate(30.000000, 31.000000)">
                <g id="sign-in-button" transform="translate(290.000000, 12.000000)">
                    <path d="M1.788,6.904 C1.788,7.20800152 1.87199916,7.459999 2.04,7.66 C2.20800084,7.860001 2.42399868,8.00799952 2.688,8.104 C2.88600099,8.17600036 3.10087458,8.24124998 3.3326245,8.29974992 L3.57,8.356 C3.89400162,8.42800036 4.21799838,8.50999954 4.542,8.602 C4.86600162,8.69400046 5.15999868,8.81199928 5.424,8.956 C5.68800132,9.1 5.90399916,9.31599856 6.072,9.604 C6.24000084,9.89200144 6.324,10.2479979 6.324,10.672 C6.324,11.3200032 6.07600248,11.8839976 5.58,12.364 C5.08399752,12.8440024 4.41400422,13.084 3.57,13.084 C2.72599578,13.084 2.04000264,12.8900019 1.512,12.502 C0.98399736,12.1139981 0.72,11.5880033 0.72,10.924 L1.884,10.924 C1.91600016,11.3000019 2.06599866,11.6039988 2.334,11.836 C2.60200134,12.0680012 2.99999736,12.184 3.528,12.184 C4.05600264,12.184 4.47599844,12.0480014 4.788,11.776 C5.10000156,11.5039986 5.256,11.1860018 5.256,10.822 C5.256,10.4579982 5.17200084,10.178001 5.004,9.982 C4.83599916,9.78599902 4.62000132,9.64000048 4.356,9.544 C4.15799901,9.47199964 3.94312542,9.40787501 3.7113755,9.35162508 L3.474,9.298 C3.14999838,9.22999966 2.82600162,9.14800048 2.502,9.052 C2.17799838,8.95599952 1.88400132,8.83400074 1.62,8.686 C1.35599868,8.53799926 1.14000084,8.31800146 0.972,8.026 C0.80399916,7.73399854 0.72,7.37200216 0.72,6.94 C0.72,6.23599648 0.9699975,5.67000214 1.47,5.242 C1.9700025,4.81399786 2.62199598,4.6 3.426,4.6 C4.23000402,4.6 4.86999762,4.78599814 5.346,5.158 C5.82200238,5.53000186 6.09599964,6.04399672 6.168,6.7 L4.956,6.7 C4.92399984,6.37199836 4.77000138,6.09200116 4.494,5.86 C4.21799862,5.62799884 3.84600234,5.512 3.378,5.512 C2.90999766,5.512 2.52800148,5.62999882 2.232,5.866 C1.93599852,6.10200118 1.788,6.44799772 1.788,6.904 Z M10.944,13 L10.944,4.684 L12.036,4.684 L12.036,13 L10.944,13 Z M20.568,13.072 C19.4239943,13.072 18.4440041,12.672004 17.628,11.872 C16.8119959,11.071996 16.404,10.0580061 16.404,8.83 C16.404,7.60199386 16.8119959,6.59000398 17.628,5.794 C18.4440041,4.99799602 19.447994,4.6 20.64,4.6 C21.5040043,4.6 22.2739966,4.80399796 22.95,5.212 C23.6260034,5.62000204 24.1239984,6.20799616 24.444,6.976 L23.124,6.976 C22.6279975,6.03999532 21.8000058,5.572 20.64,5.572 C19.7359955,5.572 18.9900029,5.86999702 18.402,6.466 C17.8139971,7.06200298 17.52,7.85199508 17.52,8.836 C17.52,9.82000492 17.8139971,10.611997 18.402,11.212 C18.9900029,11.812003 19.7219956,12.112 20.598,12.112 C21.4740044,12.112 22.1779973,11.8640025 22.71,11.368 C23.2420027,10.8719975 23.5519996,10.2000042 23.64,9.352 L20.208,9.352 L20.208,8.488 L24.792,8.488 L24.792,9.352 C24.6799994,10.4240054 24.2360039,11.3119965 23.46,12.016 C22.6839961,12.7200035 21.7200058,13.072 20.568,13.072 Z M34.644,4.684 L35.736,4.684 L35.736,13 L34.644,13 L30.252,6.4 L30.252,13 L29.16,13 L29.16,4.684 L30.252,4.684 L34.644,11.284 L34.644,4.684 Z M47.136,13 L47.136,4.684 L48.228,4.684 L48.228,13 L47.136,13 Z M58.512,4.684 L59.604,4.684 L59.604,13 L58.512,13 L54.12,6.4 L54.12,13 L53.028,13 L53.028,4.684 L54.12,4.684 L58.512,11.284 L58.512,4.684 Z" id="SIGNIN"></path>
                    <rect id="Rectangle-6" x="0" y="24" width="62" height="1"></rect>
                </g>
            </g>
        </g>
    </g>
</svg>