
<svg width="89px" height="10px" viewBox="0 0 89 10" version="1.1" xmlns="http://www.w3.org/2000/svg" xmlns:xlink="http://www.w3.org/1999/xlink">
    <g id="Page-1" stroke="none" stroke-width="1" fill="none" fill-rule="evenodd">
        <g id="Hero-2-Copy" transform="translate(-1222.000000, -60.000000)">
            <g id="nav3" transform="translate(137.000000, 48.000000)">
                <g id="nav1" transform="translate(1085.000000, 12.000000)">
                    <g id="hamburger-menu">
                        <g id="Group-2">
                            <path d="M73,8.88888889 L88,8.88888889" id="Line-2-Copy" stroke="#1E252C" stroke-width="1.5" stroke-linecap="round" stroke-linejoin="round"></path>
                            <path d="M63,1.11111111 L88,1.11111111" id="Line-2-Copy-2" stroke="#1E252C" stroke-width="1.5" stroke-linecap="round" stroke-linejoin="round"></path>
                            <path d="M9.282,0.66 L9.282,9 L7.914,9 L7.914,3.288 L5.37,9 L4.422,9 L1.866,3.288 L1.866,9 L0.498,9 L0.498,0.66 L1.974,0.66 L4.902,7.2 L7.818,0.66 L9.282,0.66 Z M18.69,0.648 L18.69,1.716 L15.45,1.716 L15.45,4.248 L18.33,4.248 L18.33,5.304 L15.45,5.304 L15.45,7.932 L18.69,7.932 L18.69,9 L14.082,9 L14.082,0.648 L18.69,0.648 Z M28.854,0.648 L30.222,0.648 L30.222,9 L28.854,9 L24.738,2.772 L24.738,9 L23.37,9 L23.37,0.648 L24.738,0.648 L28.854,6.864 L28.854,0.648 Z M35.01,5.952 L35.01,0.66 L36.378,0.66 L36.378,5.952 C36.378,6.58400316 36.5439983,7.0599984 36.876,7.38 C37.2080017,7.7000016 37.671997,7.86 38.268,7.86 C38.864003,7.86 39.3279983,7.7000016 39.66,7.38 C39.9920017,7.0599984 40.158,6.58400316 40.158,5.952 L40.158,0.66 L41.526,0.66 L41.526,5.952 C41.526,6.96000504 41.2120031,7.7339973 40.584,8.274 C39.9559969,8.8140027 39.1760047,9.084 38.244,9.084 C37.3119953,9.084 36.5400031,8.81600268 35.928,8.28 C35.3159969,7.74399732 35.01,6.96800508 35.01,5.952 Z" id="MENU" fill="#1E252C" fill-rule="nonzero"></path>
                        </g>
                    </g>
                </g>
            </g>
        </g>
    </g>
</svg>