
<svg width="353px" height="100px" viewBox="0 0 353 100" version="1.1" xmlns="http://www.w3.org/2000/svg" xmlns:xlink="http://www.w3.org/1999/xlink">
    <g id="Page-1" stroke="none" stroke-width="1" fill="none" fill-rule="evenodd">
        <g id="Mobile-Hero-1-Copy" transform="translate(-33.000000, -308.000000)">
            <g id="Group" transform="translate(34.000000, 309.000000)">
                <path d="M14.0445,90.938 L14.0755,90.969 C12.6081593,91.2170012 10.9341761,91.3926661 9.0535,91.496 L2.3265,72.462 L0.0945,72.121 L0.1255,70.478 L10.3865,70.478 L10.5725,71.47 C9.82849628,71.9866692 9.00183788,72.4413314 8.0925,72.834 L11.2855,82.94 L11.6885,87.187 L11.9365,87.187 L16.7725,72.555 L14.0445,72.121 L14.0755,70.478 L22.5075,70.478 L22.6935,71.47 C22.0734969,71.9246689 21.2778382,72.3689978 20.3065,72.803 L14.0445,90.938 Z M26.5685,73.919 C25.1424929,73.2783301 23.9128385,72.3380062 22.8795,71.098 C23.7061708,69.5066587 24.7291606,68.2666711 25.9485,67.378 C27.3331736,68.1013369 28.5008286,69.1553264 29.4515,70.54 C28.7694966,71.9040068 27.8085062,73.0303289 26.5685,73.919 Z M28.9555,88.396 C29.8648379,88.7060015 30.6088304,89.0676646 31.1875,89.481 L31.1255,91 L21.2985,91 L21.2365,89.915 C21.959837,89.5016646 22.7451624,89.1503348 23.5925,88.861 L23.5925,78.631 L21.2985,78.197 L21.1435,76.709 C22.9828425,76.0063298 25.0288221,75.6240003 27.2815,75.562 L28.9555,77.05 L28.9555,88.396 Z M38.2555,79.189 C38.2555,79.5610019 38.389832,79.8968318 38.6585,80.1965 C38.912242,80.4795199 39.7835185,81.0113945 41.2723537,81.7921383 L41.5415,81.9325 C43.1948416,82.790171 44.3108304,83.5858297 44.8895,84.3195 C45.4681696,85.0531703 45.7575,85.8849953 45.7575,86.815 C45.7575,88.2203404 45.1788391,89.3724955 44.0215,90.2715 C42.8641609,91.1705045 41.3245096,91.62 39.4025,91.62 C37.2324892,91.62 35.0728441,91.0620056 32.9235,89.946 L34.6905,85.885 C36.488509,87.2696736 38.3484904,88.3029966 40.2705,88.985 C40.6425019,88.6543317 40.8285,88.2720022 40.8285,87.838 C40.8285,87.4453314 40.6786682,87.0940015 40.379,86.784 C40.0969594,86.4922338 39.2382641,85.9762157 37.8028905,85.2359314 L37.527,85.0945 C35.9253253,84.2781626 34.8403362,83.5135036 34.272,82.8005 C33.7036638,82.0874964 33.4195,81.2763379 33.4195,80.367 C33.4195,78.9203261 34.0549936,77.7475045 35.326,76.8485 C36.5970064,75.9494955 38.2451565,75.5 40.2705,75.5 C42.1511761,75.5 43.7528267,75.8409966 45.0755,76.523 L45.1375,77.608 C45.1375,78.682672 44.9618351,79.7676612 44.6105,80.863 L41.8825,80.863 L40.9215,78.042 L39.4955,77.887 C38.6688292,78.1350012 38.2555,78.5689969 38.2555,79.189 Z M66.9305,89.233 L62.8075,91.527 C62.2081637,91.4856665 61.6036697,91.2273357 60.994,90.752 C60.3843303,90.2766643 59.8935019,89.6566705 59.5215,88.892 C57.8681584,90.152673 56.2045084,91.0309975 54.5305,91.527 C53.4764947,91.527 52.479338,91.1963366 51.539,90.535 C50.598662,89.8736634 50.0665006,89.047005 49.9425,88.055 L49.8495,86.288 L49.8495,78.631 L47.5555,78.197 L47.4005,76.709 C49.2398425,76.0063298 51.2858221,75.6240003 53.5385,75.562 L55.2125,77.05 L55.2125,85.234 C55.2125,86.9493419 55.8634935,87.807 57.1655,87.807 C57.8061699,87.807 58.4261637,87.672668 59.0255,87.404 L59.0255,78.538 L57.2895,78.104 L57.1345,76.616 C58.7878416,75.9546634 60.647823,75.6033335 62.7145,75.562 L64.3885,77.05 L64.3885,87.156 C64.3885,87.693336 64.6468308,87.962 65.1635,87.962 L65.9695,87.931 L66.7445,87.869 L66.9305,89.233 Z M84.7245,89.233 L80.6325,91.527 C80.0538304,91.5063332 79.4751696,91.2893354 78.8965,90.876 C78.3178304,90.4626646 77.8425019,89.9253366 77.4705,89.264 L74.1845,91.403 L73.1305,91.496 C71.78716,91.496 70.6660045,91.1033373 69.767,90.318 C68.8679955,89.5326627 68.4185,88.5820056 68.4185,87.466 C68.4185,85.9159922 69.2554916,84.6966711 70.9295,83.808 L76.8195,83.684 L76.8195,81.142 C76.8195,79.5506587 76.3441714,78.5070025 75.3935,78.011 C74.7321634,78.0523335 74.1535025,78.1763323 73.6575,78.383 L72.9135,81.793 L69.8755,81.855 C69.4828314,80.7389944 69.2865,79.5610062 69.2865,78.321 L69.3485,77.174 C70.5885062,76.6986643 72.0248252,76.2905017 73.6575,75.9495 C75.2901748,75.6084983 76.5508289,75.438 77.4395,75.438 C79.2788425,75.438 80.735828,76.1923258 81.8105,77.701 C82.0378345,78.0936686 82.1618332,78.8789941 82.1825,80.057 L82.1825,87.156 C82.1825,87.693336 82.4408308,87.962 82.9575,87.962 L83.7945,87.931 L84.5385,87.869 L84.7245,89.233 Z M73.7195,87.125 C73.7195,87.662336 73.8951649,88.1066649 74.2465,88.458 C74.8665031,88.4166665 75.7241612,88.2203351 76.8195,87.869 L76.8195,85.575 C74.752823,85.5336665 73.7195,86.050328 73.7195,87.125 Z M93.7455,88.396 C94.6548379,88.7060015 95.3988304,89.0676646 95.9775,89.481 L95.9155,91 L86.0885,91 L86.0265,89.915 C86.749837,89.5016646 87.5351624,89.1503348 88.3825,88.861 L88.3825,71.253 L86.0885,70.85 L85.9335,69.3 C87.6695087,68.6799969 89.7154882,68.2976674 92.0715,68.153 L93.7455,69.703 L93.7455,88.396 Z M124.7455,84.552 C124.786834,86.5773435 124.662835,88.7266553 124.3735,91 L107.2925,91 L107.1065,90.008 C107.891837,89.470664 108.770162,88.9850022 109.7415,88.551 L109.7415,72.462 L107.4165,72.121 L107.4475,70.478 L124.5905,70.478 L124.6215,71.191 C124.6215,73.0923428 124.425169,74.941991 124.0325,76.74 L120.9325,76.74 L120.3745,73.578 L115.3525,73.237 L115.3525,79.499 L121.8315,78.972 L121.8315,82.32 L115.3525,82.041 L115.3525,88.117 L120.5605,87.714 L121.6765,84.304 L124.7455,84.552 Z M135.0065,79.84 L135.0065,88.272 C136.039839,88.5613348 136.980162,88.9643307 137.8275,89.481 L137.7655,91 L127.6285,91 L127.5665,89.915 C128.14517,89.5636649 128.827163,89.253668 129.6125,88.985 L129.6125,79.809 L127.3185,79.84 L127.2565,78.135 L129.6125,76.771 L129.6125,74.477 C129.6125,72.5549904 130.222161,70.9481731 131.4415,69.6565 C132.660839,68.3648269 134.159158,67.719 135.9365,67.719 C137.548508,67.719 139.088159,68.2253283 140.5555,69.238 L137.7655,73.919 C136.442827,72.6169935 134.882509,71.6870028 133.0845,71.129 L134.9755,76.337 L138.4475,76.337 L138.5095,77.856 L136.9285,79.84 L135.0065,79.84 Z M146.9415,79.84 L146.9415,88.272 C147.974839,88.5613348 148.915162,88.9643307 149.7625,89.481 L149.7005,91 L139.5635,91 L139.5015,89.915 C140.08017,89.5636649 140.762163,89.253668 141.5475,88.985 L141.5475,79.809 L139.2535,79.84 L139.1915,78.135 L141.5475,76.771 L141.5475,74.477 C141.5475,72.5549904 142.157161,70.9481731 143.3765,69.6565 C144.595839,68.3648269 146.094158,67.719 147.8715,67.719 C149.483508,67.719 151.023159,68.2253283 152.4905,69.238 L149.7005,73.919 C148.377827,72.6169935 146.817509,71.6870028 145.0195,71.129 L146.9105,76.337 L150.3825,76.337 L150.4445,77.856 L148.8635,79.84 L146.9415,79.84 Z M164.1775,83.901 L156.3655,83.839 C156.510167,85.18234 156.990663,86.215663 157.807,86.939 C158.623337,87.6623369 159.651494,88.024 160.8915,88.024 C161.986839,88.024 163.299159,87.6313373 164.8285,86.846 L165.6035,88.613 L160.7365,91.372 L159.3105,91.465 C157.016489,91.465 155.110008,90.7416739 153.591,89.295 C152.071992,87.8483261 151.3125,85.9986779 151.3125,83.746 C151.3125,81.4519885 152.082326,79.5041747 153.622,77.9025 C155.161674,76.3008253 157.026822,75.5 159.2175,75.5 C161.222177,75.5 162.854827,76.104494 164.1155,77.3135 C165.376173,78.522506 165.996167,80.1189901 165.9755,82.103 L164.1775,83.901 Z M158.3805,78.073 C157.388495,78.6930031 156.758168,79.8296584 156.4895,81.483 L161.1395,81.204 C161.015499,80.3566624 160.700336,79.6281697 160.194,79.0185 C159.687664,78.4088303 159.08317,78.0936668 158.3805,78.073 Z M176.7325,91.403 L175.3685,91.496 C173.136489,91.496 171.281674,90.7571741 169.804,89.2795 C168.326326,87.8018259 167.5875,85.9056782 167.5875,83.591 C167.5875,81.255655 168.331493,79.323341 169.8195,77.794 C171.307507,76.264659 173.177822,75.5 175.4305,75.5 C176.877174,75.5 178.168828,75.8461632 179.3055,76.5385 C180.442172,77.2308368 181.206831,78.2279935 181.5995,79.53 L177.3525,81.917 C176.463829,80.1603245 175.430506,78.9616699 174.2525,78.321 C173.260495,79.395672 172.7645,80.8836572 172.7645,82.785 C172.7645,84.3350077 173.141663,85.5956618 173.896,86.567 C174.650337,87.5383382 175.719826,88.024 177.1045,88.024 C178.075838,88.024 179.20216,87.7140031 180.4835,87.094 L181.2275,88.799 L176.7325,91.403 Z M191.3335,87.559 C192.056837,87.559 192.883495,87.4660009 193.8135,87.28 L194.0305,88.892 L188.9155,91.527 C187.882162,91.5683335 186.936671,91.2428368 186.079,90.5505 C185.221329,89.8581632 184.7925,89.0470046 184.7925,88.117 L184.7925,79.809 L182.5295,79.809 L182.4365,78.135 C183.118503,77.5563304 183.996828,76.9570031 185.0715,76.337 L186.7765,72.183 L189.2255,72.183 L190.0005,76.337 L194.2785,76.337 L194.3095,77.887 L192.7595,79.84 L190.1555,79.84 L190.1555,86.226 C190.1555,87.1146711 190.548163,87.559 191.3335,87.559 Z M223.6975,83.374 L223.6975,84.521 C223.6975,87.2283469 223.552835,89.3879919 223.2635,91 L205.5315,91 L205.3455,90.008 C206.130837,89.470664 207.009162,88.9850022 207.9805,88.551 L207.9805,72.493 L205.5935,72.121 L205.6245,70.478 L216.0405,70.478 L216.2265,71.47 C215.482496,72.007336 214.604172,72.4929978 213.5915,72.927 L213.5915,88.117 L219.1095,87.59 L220.5045,83.095 L223.6975,83.374 Z M241.1815,89.233 L237.0895,91.527 C236.51083,91.5063332 235.93217,91.2893354 235.3535,90.876 C234.77483,90.4626646 234.299502,89.9253366 233.9275,89.264 L230.6415,91.403 L229.5875,91.496 C228.24416,91.496 227.123004,91.1033373 226.224,90.318 C225.324996,89.5326627 224.8755,88.5820056 224.8755,87.466 C224.8755,85.9159922 225.712492,84.6966711 227.3865,83.808 L233.2765,83.684 L233.2765,81.142 C233.2765,79.5506587 232.801171,78.5070025 231.8505,78.011 C231.189163,78.0523335 230.610502,78.1763323 230.1145,78.383 L229.3705,81.793 L226.3325,81.855 C225.939831,80.7389944 225.7435,79.5610062 225.7435,78.321 L225.8055,77.174 C227.045506,76.6986643 228.481825,76.2905017 230.1145,75.9495 C231.747175,75.6084983 233.007829,75.438 233.8965,75.438 C235.735843,75.438 237.192828,76.1923258 238.2675,77.701 C238.494834,78.0936686 238.618833,78.8789941 238.6395,80.057 L238.6395,87.156 C238.6395,87.693336 238.897831,87.962 239.4145,87.962 L240.2515,87.931 L240.9955,87.869 L241.1815,89.233 Z M230.1765,87.125 C230.1765,87.662336 230.352165,88.1066649 230.7035,88.458 C231.323503,88.4166665 232.181161,88.2203351 233.2765,87.869 L233.2765,85.575 C231.209823,85.5336665 230.1765,86.050328 230.1765,87.125 Z M259.0685,88.396 C259.977838,88.7060015 260.72183,89.0676646 261.3005,89.481 L261.2075,91 L253.7055,91 L253.7055,82.413 C253.7055,80.3256562 253.044173,79.282 251.7215,79.282 C251.122164,79.282 250.450504,79.4679981 249.7065,79.84 L249.7065,88.489 C250.450504,88.8196683 251.049831,89.1503317 251.5045,89.481 L251.4425,91 L242.1115,91 L242.0495,89.915 C242.69017,89.5429981 243.454829,89.2020015 244.3435,88.892 L244.3435,78.631 L242.0495,78.197 L241.8945,76.709 C243.733843,76.0063298 245.779822,75.6240003 248.0325,75.562 L249.7065,77.236 L249.7065,78.228 C251.380508,76.967327 252.940826,76.1096689 254.3875,75.655 C256.330176,75.7170003 257.766495,76.4609929 258.6965,77.887 C258.923834,78.3003354 259.047833,79.2406593 259.0685,80.708 L259.0685,88.396 Z M267.7175,87.311 C269.391508,87.3316668 271.18949,87.5021651 273.1115,87.8225 C275.03351,88.1428349 276.769492,88.5509975 278.3195,89.047 C278.608835,89.7496702 278.7535,90.4316634 278.7535,91.093 C278.7535,93.0770099 277.787343,94.833659 275.855,96.363 C273.922657,97.892341 271.654513,98.657 269.0505,98.657 C267.314491,98.657 265.785173,98.2695039 264.4625,97.4945 C263.139827,96.7194961 262.416501,95.5156748 262.2925,93.883 L265.5165,91 L263.8735,90.907 L263.2225,88.613 C264.421173,87.3729938 265.599161,86.4016702 266.7565,85.699 C265.495827,85.2649978 264.519337,84.619171 263.827,83.7615 C263.134663,82.903829 262.7885,81.9480053 262.7885,80.894 C262.7885,79.3439922 263.485993,78.0368387 264.881,76.9725 C266.276007,75.9081613 268.027489,75.376 270.1355,75.376 C271.809508,75.376 273.276827,75.7169966 274.5375,76.399 C275.157503,74.6629913 276.552489,73.7330006 278.7225,73.609 L279.5905,78.011 L278.5055,77.918 C277.844163,77.918 277.22417,78.0316655 276.6455,78.259 C277.162169,79.0236705 277.4205,79.8709953 277.4205,80.801 C277.4205,82.3510077 276.728174,83.6323283 275.3435,84.645 C273.958826,85.6576717 272.181511,86.164 270.0115,86.164 L269.0815,86.133 L267.7175,87.311 Z M268.8025,77.98 C268.265164,78.4346689 267.9965,79.3646596 267.9965,80.77 C267.9965,81.6793379 268.203165,82.4336637 268.6165,83.033 C269.029835,83.6323363 269.61883,83.932 270.3835,83.932 C270.672835,83.932 270.951832,83.8906671 271.2205,83.808 C271.902503,83.3326643 272.2435,82.4336733 272.2435,81.111 C272.2435,80.2429957 272.005836,79.47317 271.5305,78.8015 C271.055164,78.12983 270.445504,77.794 269.7015,77.794 C269.412165,77.794 269.112502,77.8559994 268.8025,77.98 Z M269.8875,94.689 C270.920839,94.689 271.912829,94.5236683 272.8635,94.193 C273.814171,93.8623317 274.516831,93.3973363 274.9715,92.798 C273.194158,92.0953298 270.693516,91.5580019 267.4695,91.186 C266.787497,91.8060031 266.4465,92.3743307 266.4465,92.891 C266.4465,94.0896727 267.593489,94.689 269.8875,94.689 Z M299.8025,89.233 L295.6795,91.527 C295.080164,91.4856665 294.47567,91.2273357 293.866,90.752 C293.25633,90.2766643 292.765502,89.6566705 292.3935,88.892 C290.740158,90.152673 289.076508,91.0309975 287.4025,91.527 C286.348495,91.527 285.351338,91.1963366 284.411,90.535 C283.470662,89.8736634 282.938501,89.047005 282.8145,88.055 L282.7215,86.288 L282.7215,78.631 L280.4275,78.197 L280.2725,76.709 C282.111843,76.0063298 284.157822,75.6240003 286.4105,75.562 L288.0845,77.05 L288.0845,85.234 C288.0845,86.9493419 288.735493,87.807 290.0375,87.807 C290.67817,87.807 291.298164,87.672668 291.8975,87.404 L291.8975,78.538 L290.1615,78.104 L290.0065,76.616 C291.659842,75.9546634 293.519823,75.6033335 295.5865,75.562 L297.2605,77.05 L297.2605,87.156 C297.2605,87.693336 297.518831,87.962 298.0355,87.962 L298.8415,87.931 L299.6165,87.869 L299.8025,89.233 Z M317.5965,89.233 L313.5045,91.527 C312.92583,91.5063332 312.34717,91.2893354 311.7685,90.876 C311.18983,90.4626646 310.714502,89.9253366 310.3425,89.264 L307.0565,91.403 L306.0025,91.496 C304.65916,91.496 303.538004,91.1033373 302.639,90.318 C301.739996,89.5326627 301.2905,88.5820056 301.2905,87.466 C301.2905,85.9159922 302.127492,84.6966711 303.8015,83.808 L309.6915,83.684 L309.6915,81.142 C309.6915,79.5506587 309.216171,78.5070025 308.2655,78.011 C307.604163,78.0523335 307.025502,78.1763323 306.5295,78.383 L305.7855,81.793 L302.7475,81.855 C302.354831,80.7389944 302.1585,79.5610062 302.1585,78.321 L302.2205,77.174 C303.460506,76.6986643 304.896825,76.2905017 306.5295,75.9495 C308.162175,75.6084983 309.422829,75.438 310.3115,75.438 C312.150843,75.438 313.607828,76.1923258 314.6825,77.701 C314.909834,78.0936686 315.033833,78.8789941 315.0545,80.057 L315.0545,87.156 C315.0545,87.693336 315.312831,87.962 315.8295,87.962 L316.6665,87.931 L317.4105,87.869 L317.5965,89.233 Z M306.5915,87.125 C306.5915,87.662336 306.767165,88.1066649 307.1185,88.458 C307.738503,88.4166665 308.596161,88.2203351 309.6915,87.869 L309.6915,85.575 C307.624823,85.5336665 306.5915,86.050328 306.5915,87.125 Z M324.1065,87.311 C325.780508,87.3316668 327.57849,87.5021651 329.5005,87.8225 C331.42251,88.1428349 333.158492,88.5509975 334.7085,89.047 C334.997835,89.7496702 335.1425,90.4316634 335.1425,91.093 C335.1425,93.0770099 334.176343,94.833659 332.244,96.363 C330.311657,97.892341 328.043513,98.657 325.4395,98.657 C323.703491,98.657 322.174173,98.2695039 320.8515,97.4945 C319.528827,96.7194961 318.805501,95.5156748 318.6815,93.883 L321.9055,91 L320.2625,90.907 L319.6115,88.613 C320.810173,87.3729938 321.988161,86.4016702 323.1455,85.699 C321.884827,85.2649978 320.908337,84.619171 320.216,83.7615 C319.523663,82.903829 319.1775,81.9480053 319.1775,80.894 C319.1775,79.3439922 319.874993,78.0368387 321.27,76.9725 C322.665007,75.9081613 324.416489,75.376 326.5245,75.376 C328.198508,75.376 329.665827,75.7169966 330.9265,76.399 C331.546503,74.6629913 332.941489,73.7330006 335.1115,73.609 L335.9795,78.011 L334.8945,77.918 C334.233163,77.918 333.61317,78.0316655 333.0345,78.259 C333.551169,79.0236705 333.8095,79.8709953 333.8095,80.801 C333.8095,82.3510077 333.117174,83.6323283 331.7325,84.645 C330.347826,85.6576717 328.570511,86.164 326.4005,86.164 L325.4705,86.133 L324.1065,87.311 Z M325.1915,77.98 C324.654164,78.4346689 324.3855,79.3646596 324.3855,80.77 C324.3855,81.6793379 324.592165,82.4336637 325.0055,83.033 C325.418835,83.6323363 326.00783,83.932 326.7725,83.932 C327.061835,83.932 327.340832,83.8906671 327.6095,83.808 C328.291503,83.3326643 328.6325,82.4336733 328.6325,81.111 C328.6325,80.2429957 328.394836,79.47317 327.9195,78.8015 C327.444164,78.12983 326.834504,77.794 326.0905,77.794 C325.801165,77.794 325.501502,77.8559994 325.1915,77.98 Z M326.2765,94.689 C327.309839,94.689 328.301829,94.5236683 329.2525,94.193 C330.203171,93.8623317 330.905831,93.3973363 331.3605,92.798 C329.583158,92.0953298 327.082516,91.5580019 323.8585,91.186 C323.176497,91.8060031 322.8355,92.3743307 322.8355,92.891 C322.8355,94.0896727 323.982489,94.689 326.2765,94.689 Z M349.7435,83.901 L341.9315,83.839 C342.076167,85.18234 342.556663,86.215663 343.373,86.939 C344.189337,87.6623369 345.217494,88.024 346.4575,88.024 C347.552839,88.024 348.865159,87.6313373 350.3945,86.846 L351.1695,88.613 L346.3025,91.372 L344.8765,91.465 C342.582489,91.465 340.676008,90.7416739 339.157,89.295 C337.637992,87.8483261 336.8785,85.9986779 336.8785,83.746 C336.8785,81.4519885 337.648326,79.5041747 339.188,77.9025 C340.727674,76.3008253 342.592822,75.5 344.7835,75.5 C346.788177,75.5 348.420827,76.104494 349.6815,77.3135 C350.942173,78.522506 351.562167,80.1189901 351.5415,82.103 L349.7435,83.901 Z M343.9465,78.073 C344.64917,78.0936668 345.253664,78.4088303 345.76,79.0185 C346.266336,79.6281697 346.581499,80.3566624 346.7055,81.204 L342.0555,81.483 C342.324168,79.8296584 342.954495,78.6930031 343.9465,78.073 Z" id="VisualEfectLanguage" fill="#FFFFFF" fill-rule="nonzero"></path>
                <path d="M10.292,24.1 L10.478,25.092 C9.73399628,25.6086692 8.90733788,26.0633314 7.998,26.456 L11.191,36.562 L11.481,39.621 L7.017,39.621 L2.232,26.084 L-2.84217094e-14,25.743 L0.031,24.1 L10.292,24.1 Z M22.413,24.1 L22.599,25.092 C21.9789969,25.5466689 21.1833382,25.9909978 20.212,26.425 L15.655,39.621 L12.234,39.621 L16.678,26.177 L13.95,25.743 L13.981,24.1 L22.413,24.1 Z M27.187,29.184 L28.861,30.672 L28.861,39.621 L23.498,39.621 L23.498,32.253 L21.204,31.819 L21.049,30.331 C22.8883425,29.6283298 24.9343221,29.2460003 27.187,29.184 Z M34.596,39.507 L34.749,39.621 L34.546,39.621 L34.596,39.507 Z M40.176,29.122 C42.0566761,29.122 43.6583267,29.4629966 44.981,30.145 L45.043,31.23 C45.043,32.304672 44.8673351,33.3896612 44.516,34.485 L41.788,34.485 L40.827,31.664 L39.401,31.509 C38.5743292,31.7570012 38.161,32.1909969 38.161,32.811 C38.161,33.1830019 38.295332,33.5188318 38.564,33.8185 C38.832668,34.1181682 39.7936584,34.696829 41.447,35.5545 C43.1003416,36.412171 44.2163304,37.2078297 44.795,37.9415 C45.1989096,38.4535996 45.4618532,39.0135202 45.5838339,39.6212702 L39.1249656,39.6219186 C38.7405352,39.4013857 38.268344,39.1467236 37.7083905,38.8579314 L37.4325,38.7165 C35.8308253,37.9001626 34.7458362,37.1355036 34.1775,36.4225 C33.6091638,35.7094964 33.325,34.8983379 33.325,33.989 C33.325,32.5423261 33.9604936,31.3695045 35.2315,30.4705 C36.5025064,29.5714955 38.1506565,29.122 40.176,29.122 Z M53.444,29.184 L55.118,30.672 L55.118,38.856 C55.118,39.1336885 55.1350605,39.3888999 55.1691815,39.6216342 L49.755,39.621 L49.755,32.253 L47.461,31.819 L47.306,30.331 C49.1453425,29.6283298 51.1913221,29.2460003 53.444,29.184 Z M62.62,29.184 L64.294,30.672 L64.294,39.621 L58.931,39.621 L58.931,32.16 L57.195,31.726 L57.04,30.238 C58.6933416,29.5766634 60.553323,29.2253335 62.62,29.184 Z M77.345,29.06 C79.1843425,29.06 80.641328,29.8143258 81.716,31.323 C81.9433345,31.7156686 82.0673332,32.5009941 82.088,33.679 L82.088,39.621 L76.725,39.621 L76.725,39.197 C75.6060938,39.1746219 74.7900821,39.315802 74.2769598,39.6205429 L68.6145639,39.6209881 C68.9902998,38.7466957 69.7304428,38.0163699 70.835,37.43 L76.725,37.306 L76.725,34.764 C76.725,33.1726587 76.2496714,32.1290025 75.299,31.633 C74.6376634,31.6743335 74.0590025,31.7983323 73.563,32.005 L72.819,35.415 L69.781,35.477 C69.3883314,34.3609944 69.192,33.1830062 69.192,31.943 L69.254,30.796 C70.4940062,30.3206643 71.9303252,29.9125017 73.563,29.5715 C75.1956748,29.2304983 76.4563289,29.06 77.345,29.06 Z M91.977,21.775 L93.651,23.325 L93.651,39.621 L88.288,39.621 L88.288,24.875 L85.994,24.472 L85.839,22.922 C87.5750087,22.3019969 89.6209882,21.9196674 91.977,21.775 Z M124.496,24.1 L124.527,24.813 C124.527,26.7143428 124.330669,28.563991 123.938,30.362 L120.838,30.362 L120.28,27.2 L115.258,26.859 L115.258,33.121 L121.737,32.594 L121.737,35.942 L115.258,35.663 L115.258,39.621 L109.647,39.621 L109.647,26.084 L107.322,25.743 L107.353,24.1 L124.496,24.1 Z M121.582,37.926 L124.651,38.174 C124.660705,38.6495463 124.661295,39.1319269 124.652771,39.6211428 L121.027,39.621 L121.582,37.926 Z M135.842,21.341 C137.454008,21.341 138.993659,21.8473283 140.461,22.86 L137.671,27.541 C136.348327,26.2389935 134.788009,25.3090028 132.99,24.751 L134.881,29.959 L138.353,29.959 L138.415,31.478 L136.834,33.462 L134.912,33.462 L134.912,39.621 L129.518,39.621 L129.518,33.431 L127.224,33.462 L127.162,31.757 L129.518,30.393 L129.518,28.099 C129.518,26.1769904 130.127661,24.5701731 131.347,23.2785 C132.566339,21.9868269 134.064658,21.341 135.842,21.341 Z M147.777,21.341 C149.389008,21.341 150.928659,21.8473283 152.396,22.86 L149.606,27.541 C148.283327,26.2389935 146.723009,25.3090028 144.925,24.751 L146.816,29.959 L150.288,29.959 L150.35,31.478 L148.769,33.462 L146.847,33.462 L146.847,39.621 L141.453,39.621 L141.453,33.431 L139.159,33.462 L139.097,31.757 L141.453,30.393 L141.453,28.099 C141.453,26.1769904 142.062661,24.5701731 143.282,23.2785 C144.501339,21.9868269 145.999658,21.341 147.777,21.341 Z M159.123,29.122 C161.127677,29.122 162.760327,29.726494 164.021,30.9355 C165.281673,32.144506 165.901667,33.7409901 165.881,35.725 L164.083,37.523 L156.271,37.461 C156.361704,38.3032529 156.584425,39.0236353 156.939167,39.6221547 L151.507033,39.6215968 C151.314344,38.9215217 151.218,38.1703236 151.218,37.368 C151.218,35.0739885 151.987826,33.1261747 153.5275,31.5245 C155.067174,29.9228253 156.932322,29.122 159.123,29.122 Z M175.336,29.122 C176.782674,29.122 178.074328,29.4681632 179.211,30.1605 C180.347672,30.8528368 181.112331,31.8499935 181.505,33.152 L177.258,35.539 C176.369329,33.7823245 175.336006,32.5836699 174.158,31.943 C173.165995,33.017672 172.67,34.5056572 172.67,36.407 C172.67,37.6711496 172.920875,38.7428314 173.422633,39.6220658 L167.799726,39.6224301 C167.595242,38.8772027 167.493,38.0740603 167.493,37.213 C167.493,34.877655 168.236993,32.945341 169.725,31.416 C171.213007,29.886659 173.083322,29.122 175.336,29.122 Z M189.131,25.805 L189.906,29.959 L194.184,29.959 L194.215,31.509 L192.665,33.462 L190.061,33.462 L190.061,39.621 L184.698,39.621 L184.698,33.431 L182.435,33.431 L182.342,31.757 C183.024003,31.1783304 183.902328,30.5790031 184.977,29.959 L186.682,25.805 L189.131,25.805 Z M215.946,24.1 L216.132,25.092 C215.387996,25.629336 214.509672,26.1149978 213.497,26.549 L213.497,39.621 L207.886,39.621 L207.886,26.115 L205.499,25.743 L205.53,24.1 L215.946,24.1 Z M220.41,36.717 L223.603,36.996 L223.603,38.143 C223.603,38.6553888 223.597818,39.1481596 223.587455,39.6213128 L219.508,39.621 L220.41,36.717 Z M233.802,29.06 C235.641343,29.06 237.098328,29.8143258 238.173,31.323 C238.400334,31.7156686 238.524333,32.5009941 238.545,33.679 L238.545,39.621 L233.182,39.621 L233.182,39.197 C232.063094,39.1746219 231.247082,39.315802 230.73396,39.6205429 L225.071564,39.6209881 C225.4473,38.7466957 226.187443,38.0163699 227.292,37.43 L233.182,37.306 L233.182,34.764 C233.182,33.1726587 232.706671,32.1290025 231.756,31.633 C231.094663,31.6743335 230.516002,31.7983323 230.02,32.005 L229.276,35.415 L226.238,35.477 C225.845331,34.3609944 225.649,33.1830062 225.649,31.943 L225.711,30.796 C226.951006,30.3206643 228.387325,29.9125017 230.02,29.5715 C231.652675,29.2304983 232.913329,29.06 233.802,29.06 Z M247.938,29.184 L249.612,30.858 L249.612,31.85 C251.286008,30.589327 252.846326,29.7316689 254.293,29.277 C256.235676,29.3390003 257.671995,30.0829929 258.602,31.509 C258.829334,31.9223354 258.953333,32.8626593 258.974,34.33 L258.974,39.621 L253.611,39.621 L253.611,36.035 C253.611,33.9476562 252.949673,32.904 251.627,32.904 C251.027664,32.904 250.356004,33.0899981 249.612,33.462 L249.612,39.621 L244.249,39.621 L244.249,32.253 L241.955,31.819 L241.8,30.331 C243.639343,29.6283298 245.685322,29.2460003 247.938,29.184 Z M278.628,27.231 L279.496,31.633 L278.411,31.54 C277.749663,31.54 277.12967,31.6536655 276.551,31.881 C277.067669,32.6456705 277.326,33.4929953 277.326,34.423 C277.326,35.9730077 276.633674,37.2543283 275.249,38.267 C274.317852,38.9479891 273.209145,39.4000032 271.922865,39.6230468 L266.192299,39.6201702 C266.349242,39.5155536 266.505809,39.4158303 266.662,39.321 C265.401327,38.8869978 264.424837,38.241171 263.7325,37.3835 C263.040163,36.525829 262.694,35.5700053 262.694,34.516 C262.694,32.9659922 263.391493,31.6588387 264.7865,30.5945 C266.181507,29.5301613 267.932989,28.998 270.041,28.998 C271.715008,28.998 273.182327,29.3389966 274.443,30.021 C275.063003,28.2849913 276.457989,27.3550006 278.628,27.231 Z M286.316,29.184 L287.99,30.672 L287.99,38.856 C287.99,39.1336885 288.00706,39.3888999 288.041182,39.6216342 L282.627,39.621 L282.627,32.253 L280.333,31.819 L280.178,30.331 C282.017343,29.6283298 284.063322,29.2460003 286.316,29.184 Z M295.492,29.184 L297.166,30.672 L297.166,39.621 L291.803,39.621 L291.803,32.16 L290.067,31.726 L289.912,30.238 C291.565342,29.5766634 293.425323,29.2253335 295.492,29.184 Z M310.217,29.06 C312.056343,29.06 313.513328,29.8143258 314.588,31.323 C314.815334,31.7156686 314.939333,32.5009941 314.96,33.679 L314.96,39.621 L309.597,39.621 L309.597,39.197 C308.478094,39.1746219 307.662082,39.315802 307.14896,39.6205429 L301.486564,39.6209881 C301.8623,38.7466957 302.602443,38.0163699 303.707,37.43 L309.597,37.306 L309.597,34.764 C309.597,33.1726587 309.121671,32.1290025 308.171,31.633 C307.509663,31.6743335 306.931002,31.7983323 306.435,32.005 L305.691,35.415 L302.653,35.477 C302.260331,34.3609944 302.064,33.1830062 302.064,31.943 L302.126,30.796 C303.366006,30.3206643 304.802325,29.9125017 306.435,29.5715 C308.067675,29.2304983 309.328329,29.06 310.217,29.06 Z M335.017,27.231 L335.885,31.633 L334.8,31.54 C334.138663,31.54 333.51867,31.6536655 332.94,31.881 C333.456669,32.6456705 333.715,33.4929953 333.715,34.423 C333.715,35.9730077 333.022674,37.2543283 331.638,38.267 C330.706852,38.9479891 329.598145,39.4000032 328.311865,39.6230468 L322.581299,39.6201702 C322.738242,39.5155536 322.894809,39.4158303 323.051,39.321 C321.790327,38.8869978 320.813837,38.241171 320.1215,37.3835 C319.429163,36.525829 319.083,35.5700053 319.083,34.516 C319.083,32.9659922 319.780493,31.6588387 321.1755,30.5945 C322.570507,29.5301613 324.321989,28.998 326.43,28.998 C328.104008,28.998 329.571327,29.3389966 330.832,30.021 C331.452003,28.2849913 332.846989,27.3550006 335.017,27.231 Z M344.689,29.122 C346.693677,29.122 348.326327,29.726494 349.587,30.9355 C350.847673,32.144506 351.467667,33.7409901 351.447,35.725 L349.649,37.523 L341.837,37.461 C341.927704,38.3032529 342.150425,39.0236353 342.505167,39.6221547 L337.073033,39.6215968 C336.880344,38.9215217 336.784,38.1703236 336.784,37.368 C336.784,35.0739885 337.553826,33.1261747 339.0935,31.5245 C340.633174,29.9228253 342.498322,29.122 344.689,29.122 Z M269.607,31.416 C269.317665,31.416 269.018002,31.4779994 268.708,31.602 C268.170664,32.0566689 267.902,32.9866596 267.902,34.392 C267.902,35.3013379 268.108665,36.0556637 268.522,36.655 C268.935335,37.2543363 269.52433,37.554 270.289,37.554 C270.578335,37.554 270.857332,37.5126671 271.126,37.43 C271.808003,36.9546643 272.149,36.0556733 272.149,34.733 C272.149,33.8649957 271.911336,33.09517 271.436,32.4235 C270.960664,31.75183 270.351004,31.416 269.607,31.416 Z M325.996,31.416 C325.706665,31.416 325.407002,31.4779994 325.097,31.602 C324.559664,32.0566689 324.291,32.9866596 324.291,34.392 C324.291,35.3013379 324.497665,36.0556637 324.911,36.655 C325.324335,37.2543363 325.91333,37.554 326.678,37.554 C326.967335,37.554 327.246332,37.5126671 327.515,37.43 C328.197003,36.9546643 328.538,36.0556733 328.538,34.733 C328.538,33.8649957 328.300336,33.09517 327.825,32.4235 C327.349664,31.75183 326.740004,31.416 325.996,31.416 Z M158.286,31.695 C157.293995,32.3150031 156.663668,33.4516584 156.395,35.105 L161.045,34.826 C160.920999,33.9786624 160.605836,33.2501697 160.0995,32.6405 C159.593164,32.0308303 158.98867,31.7156668 158.286,31.695 Z M343.852,31.695 C342.859995,32.3150031 342.229668,33.4516584 341.961,35.105 L341.961,35.105 L346.611,34.826 C346.486999,33.9786624 346.171836,33.2501697 345.6655,32.6405 C345.159164,32.0308303 344.55467,31.7156668 343.852,31.695 Z M25.854,21 C27.2386736,21.7233369 28.4063286,22.7773264 29.357,24.162 C28.6749966,25.5260068 27.7140062,26.6523289 26.474,27.541 C25.0479929,26.9003301 23.8183385,25.9600062 22.785,24.72 C23.6116708,23.1286587 24.6346606,21.8886711 25.854,21 Z" id="Combined-Shape-Copy-2" stroke="#FFFFFF" stroke-width="0.5"></path>
                <path d="M278.628,47.231 L279.496,51.633 L278.411,51.54 C277.749663,51.54 277.12967,51.6536655 276.551,51.881 C277.067669,52.6456705 277.326,53.4929953 277.326,54.423 C277.326,55.9730077 276.633674,57.2543283 275.249,58.267 C273.864326,59.2796717 272.087011,59.786 269.917,59.786 L268.987,59.755 L267.623,60.933 C269.297008,60.9536668 271.09499,61.1241651 273.017,61.4445 C274.93901,61.7648349 276.674992,62.1729975 278.225,62.669 C278.514335,63.3716702 278.659,64.0536634 278.659,64.715 C278.659,66.6990099 277.692843,68.455659 275.7605,69.985 C273.828157,71.514341 271.560013,72.279 268.956,72.279 C267.219991,72.279 265.690673,71.8915039 264.368,71.1165 C263.045327,70.3414961 262.322001,69.1376748 262.198,67.505 L265.422,64.622 L263.779,64.529 L263.128,62.235 C264.326673,60.9949938 265.504661,60.0236702 266.662,59.321 C265.401327,58.8869978 264.424837,58.241171 263.7325,57.3835 C263.040163,56.525829 262.694,55.5700053 262.694,54.516 C262.694,52.9659922 263.391493,51.6588387 264.7865,50.5945 C266.181507,49.5301613 267.932989,48.998 270.041,48.998 C271.715008,48.998 273.182327,49.3389966 274.443,50.021 C275.063003,48.2849913 276.457989,47.3550006 278.628,47.231 Z M335.017,47.231 L335.885,51.633 L334.8,51.54 C334.138663,51.54 333.51867,51.6536655 332.94,51.881 C333.456669,52.6456705 333.715,53.4929953 333.715,54.423 C333.715,55.9730077 333.022674,57.2543283 331.638,58.267 C330.253326,59.2796717 328.476011,59.786 326.306,59.786 L325.376,59.755 L324.012,60.933 C325.686008,60.9536668 327.48399,61.1241651 329.406,61.4445 C331.32801,61.7648349 333.063992,62.1729975 334.614,62.669 C334.903335,63.3716702 335.048,64.0536634 335.048,64.715 C335.048,66.6990099 334.081843,68.455659 332.1495,69.985 C330.217157,71.514341 327.949013,72.279 325.345,72.279 C323.608991,72.279 322.079673,71.8915039 320.757,71.1165 C319.434327,70.3414961 318.711001,69.1376748 318.587,67.505 L321.811,64.622 L320.168,64.529 L319.517,62.235 C320.715673,60.9949938 321.893661,60.0236702 323.051,59.321 C321.790327,58.8869978 320.813837,58.241171 320.1215,57.3835 C319.429163,56.525829 319.083,55.5700053 319.083,54.516 C319.083,52.9659922 319.780493,51.6588387 321.1755,50.5945 C322.570507,49.5301613 324.321989,48.998 326.43,48.998 C328.104008,48.998 329.571327,49.3389966 330.832,50.021 C331.452003,48.2849913 332.846989,47.3550006 335.017,47.231 Z M323.764,64.808 C323.081997,65.4280031 322.741,65.9963307 322.741,66.513 C322.741,67.7116727 323.887989,68.311 326.182,68.311 C327.215339,68.311 328.207329,68.1456683 329.158,67.815 C330.108671,67.4843317 330.811331,67.0193363 331.266,66.42 C329.488658,65.7173298 326.988016,65.1800019 323.764,64.808 Z M267.375,64.808 C266.692997,65.4280031 266.352,65.9963307 266.352,66.513 C266.352,67.7116727 267.498989,68.311 269.793,68.311 C270.826339,68.311 271.818329,68.1456683 272.769,67.815 C273.719671,67.4843317 274.422331,67.0193363 274.877,66.42 C273.099658,65.7173298 270.599016,65.1800019 267.375,64.808 Z M40.176,49.122 C42.0566761,49.122 43.6583267,49.4629966 44.981,50.145 L45.043,51.23 C45.043,52.304672 44.8673351,53.3896612 44.516,54.485 L41.788,54.485 L40.827,51.664 L39.401,51.509 C38.5743292,51.7570012 38.161,52.1909969 38.161,52.811 C38.161,53.1830019 38.295332,53.5188318 38.564,53.8185 C38.832668,54.1181682 39.7936584,54.696829 41.447,55.5545 C43.1003416,56.412171 44.2163304,57.2078297 44.795,57.9415 C45.3736696,58.6751703 45.663,59.5069953 45.663,60.437 C45.663,61.8423404 45.0843391,62.9944955 43.927,63.8935 C42.7696609,64.7925045 41.2300096,65.242 39.308,65.242 C37.1379891,65.242 34.9783441,64.6840056 32.829,63.568 L34.596,59.507 C36.394009,60.8916736 38.2539904,61.9249966 40.176,62.607 C40.5480019,62.2763317 40.734,61.8940022 40.734,61.46 C40.734,61.0673314 40.5841682,60.7160015 40.2845,60.406 C40.0024594,60.1142338 39.1437641,59.5982157 37.7083905,58.8579314 L37.4325,58.7165 C35.8308253,57.9001626 34.7458362,57.1355036 34.1775,56.4225 C33.6091638,55.7094964 33.325,54.8983379 33.325,53.989 C33.325,52.5423261 33.9604936,51.3695045 35.2315,50.4705 C36.5025064,49.5714955 38.1506565,49.122 40.176,49.122 Z M189.131,45.805 L189.906,49.959 L194.184,49.959 L194.215,51.509 L192.665,53.462 L190.061,53.462 L190.061,59.848 C190.061,60.7366711 190.453663,61.181 191.239,61.181 C191.962337,61.181 192.788995,61.0880009 193.719,60.902 L193.936,62.514 L188.821,65.149 C187.787661,65.1903335 186.842171,64.8648368 185.9845,64.1725 C185.126829,63.4801632 184.698,62.6690046 184.698,61.739 L184.698,53.431 L182.435,53.431 L182.342,51.757 C183.024003,51.1783304 183.902328,50.5790031 184.977,49.959 L186.682,45.805 L189.131,45.805 Z M310.217,49.06 C312.056343,49.06 313.513328,49.8143258 314.588,51.323 C314.815334,51.7156686 314.939333,52.5009941 314.96,53.679 L314.96,60.778 C314.96,61.315336 315.218331,61.584 315.735,61.584 L316.572,61.553 L317.316,61.491 L317.502,62.855 L313.41,65.149 C312.83133,65.1283332 312.25267,64.9113354 311.674,64.498 C311.09533,64.0846646 310.620002,63.5473366 310.248,62.886 L306.962,65.025 L305.908,65.118 C304.56466,65.118 303.443504,64.7253373 302.5445,63.94 C301.645496,63.1546627 301.196,62.2040056 301.196,61.088 C301.196,59.5379922 302.032992,58.3186711 303.707,57.43 L309.597,57.306 L309.597,54.764 C309.597,53.1726587 309.121671,52.1290025 308.171,51.633 C307.509663,51.6743335 306.931002,51.7983323 306.435,52.005 L305.691,55.415 L302.653,55.477 C302.260331,54.3609944 302.064,53.1830062 302.064,51.943 L302.126,50.796 C303.366006,50.3206643 304.802325,49.9125017 306.435,49.5715 C308.067675,49.2304983 309.328329,49.06 310.217,49.06 Z M295.492,49.184 L297.166,50.672 L297.166,60.778 C297.166,61.315336 297.424331,61.584 297.941,61.584 L298.747,61.553 L299.522,61.491 L299.708,62.855 L295.585,65.149 C294.985664,65.1076665 294.38117,64.8493357 293.7715,64.374 C293.16183,63.8986643 292.671002,63.2786705 292.299,62.514 C290.645658,63.774673 288.982008,64.6529975 287.308,65.149 C286.253995,65.149 285.256838,64.8183366 284.3165,64.157 C283.376162,63.4956634 282.844001,62.669005 282.72,61.677 L282.627,59.91 L282.627,52.253 L280.333,51.819 L280.178,50.331 C282.017343,49.6283298 284.063322,49.2460003 286.316,49.184 L287.99,50.672 L287.99,58.856 C287.99,60.5713419 288.640993,61.429 289.943,61.429 C290.58367,61.429 291.203664,61.294668 291.803,61.026 L291.803,52.16 L290.067,51.726 L289.912,50.238 C291.565342,49.5766634 293.425323,49.2253335 295.492,49.184 Z M77.345,49.06 C79.1843425,49.06 80.641328,49.8143258 81.716,51.323 C81.9433345,51.7156686 82.0673332,52.5009941 82.088,53.679 L82.088,60.778 C82.088,61.315336 82.3463307,61.584 82.863,61.584 L83.7,61.553 L84.444,61.491 L84.63,62.855 L80.538,65.149 C79.9593304,65.1283332 79.3806696,64.9113354 78.802,64.498 C78.2233304,64.0846646 77.7480019,63.5473366 77.376,62.886 L74.09,65.025 L73.036,65.118 C71.6926599,65.118 70.5715045,64.7253373 69.6725,63.94 C68.7734955,63.1546627 68.324,62.2040056 68.324,61.088 C68.324,59.5379922 69.1609916,58.3186711 70.835,57.43 L76.725,57.306 L76.725,54.764 C76.725,53.1726587 76.2496714,52.1290025 75.299,51.633 C74.6376634,51.6743335 74.0590025,51.7983323 73.563,52.005 L72.819,55.415 L69.781,55.477 C69.3883314,54.3609944 69.192,53.1830062 69.192,51.943 L69.254,50.796 C70.4940062,50.3206643 71.9303252,49.9125017 73.563,49.5715 C75.1956748,49.2304983 76.4563289,49.06 77.345,49.06 Z M62.62,49.184 L64.294,50.672 L64.294,60.778 C64.294,61.315336 64.5523307,61.584 65.069,61.584 L65.875,61.553 L66.65,61.491 L66.836,62.855 L62.713,65.149 C62.1136637,65.1076665 61.5091697,64.8493357 60.8995,64.374 C60.2898303,63.8986643 59.7990019,63.2786705 59.427,62.514 C57.7736584,63.774673 56.1100084,64.6529975 54.436,65.149 C53.3819947,65.149 52.384838,64.8183366 51.4445,64.157 C50.504162,63.4956634 49.9720006,62.669005 49.848,61.677 L49.755,59.91 L49.755,52.253 L47.461,51.819 L47.306,50.331 C49.1453425,49.6283298 51.1913221,49.2460003 53.444,49.184 L55.118,50.672 L55.118,58.856 C55.118,60.5713419 55.7689935,61.429 57.071,61.429 C57.7116699,61.429 58.3316637,61.294668 58.931,61.026 L58.931,52.16 L57.195,51.726 L57.04,50.238 C58.6933416,49.5766634 60.553323,49.2253335 62.62,49.184 Z M233.802,49.06 C235.641343,49.06 237.098328,49.8143258 238.173,51.323 C238.400334,51.7156686 238.524333,52.5009941 238.545,53.679 L238.545,60.778 C238.545,61.315336 238.803331,61.584 239.32,61.584 L240.157,61.553 L240.901,61.491 L241.087,62.855 L236.995,65.149 C236.41633,65.1283332 235.83767,64.9113354 235.259,64.498 C234.68033,64.0846646 234.205002,63.5473366 233.833,62.886 L230.547,65.025 L229.493,65.118 C228.14966,65.118 227.028504,64.7253373 226.1295,63.94 C225.230496,63.1546627 224.781,62.2040056 224.781,61.088 C224.781,59.5379922 225.617992,58.3186711 227.292,57.43 L233.182,57.306 L233.182,54.764 C233.182,53.1726587 232.706671,52.1290025 231.756,51.633 C231.094663,51.6743335 230.516002,51.7983323 230.02,52.005 L229.276,55.415 L226.238,55.477 C225.845331,54.3609944 225.649,53.1830062 225.649,51.943 L225.711,50.796 C226.951006,50.3206643 228.387325,49.9125017 230.02,49.5715 C231.652675,49.2304983 232.913329,49.06 233.802,49.06 Z M10.292,44.1 L10.478,45.092 C9.73399628,45.6086692 8.90733788,46.0633314 7.998,46.456 L11.191,56.562 L11.594,60.809 L11.842,60.809 L16.678,46.177 L13.95,45.743 L13.981,44.1 L22.413,44.1 L22.599,45.092 C21.9789969,45.5466689 21.1833382,45.9909978 20.212,46.425 L13.95,64.56 L13.981,64.591 C12.5136593,64.8390012 10.8396761,65.0146661 8.959,65.118 L2.232,46.084 L-2.84217094e-14,45.743 L0.031,44.1 L10.292,44.1 Z M175.336,49.122 C176.782674,49.122 178.074328,49.4681632 179.211,50.1605 C180.347672,50.8528368 181.112331,51.8499935 181.505,53.152 L177.258,55.539 C176.369329,53.7823245 175.336006,52.5836699 174.158,51.943 C173.165995,53.017672 172.67,54.5056572 172.67,56.407 C172.67,57.9570077 173.047163,59.2176618 173.8015,60.189 C174.555837,61.1603382 175.625326,61.646 177.01,61.646 C177.981338,61.646 179.10766,61.3360031 180.389,60.716 L181.133,62.421 L176.638,65.025 L175.274,65.118 C173.041989,65.118 171.187174,64.3791741 169.7095,62.9015 C168.231826,61.4238259 167.493,59.5276782 167.493,57.213 C167.493,54.877655 168.236993,52.945341 169.725,51.416 C171.213007,49.886659 173.083322,49.122 175.336,49.122 Z M159.123,49.122 C161.127677,49.122 162.760327,49.726494 164.021,50.9355 C165.281673,52.144506 165.901667,53.7409901 165.881,55.725 L164.083,57.523 L156.271,57.461 C156.415667,58.80434 156.896163,59.837663 157.7125,60.561 C158.528837,61.2843369 159.556994,61.646 160.797,61.646 C161.892339,61.646 163.204659,61.2533373 164.734,60.468 L165.509,62.235 L160.642,64.994 L159.216,65.087 C156.921989,65.087 155.015508,64.3636739 153.4965,62.917 C151.977492,61.4703261 151.218,59.6206779 151.218,57.368 C151.218,55.0739885 151.987826,53.1261747 153.5275,51.5245 C155.067174,49.9228253 156.932322,49.122 159.123,49.122 Z M344.689,49.122 C346.693677,49.122 348.326327,49.726494 349.587,50.9355 C350.847673,52.144506 351.467667,53.7409901 351.447,55.725 L349.649,57.523 L341.837,57.461 C341.981667,58.80434 342.462163,59.837663 343.2785,60.561 C344.094837,61.2843369 345.122994,61.646 346.363,61.646 C347.458339,61.646 348.770659,61.2533373 350.3,60.468 L351.075,62.235 L346.208,64.994 L344.782,65.087 C342.487989,65.087 340.581508,64.3636739 339.0625,62.917 C337.543492,61.4703261 336.784,59.6206779 336.784,57.368 C336.784,55.0739885 337.553826,53.1261747 339.0935,51.5245 C340.633174,49.9228253 342.498322,49.122 344.689,49.122 Z M27.187,49.184 L28.861,50.672 L28.861,62.018 C29.7703379,62.3280015 30.5143304,62.6896646 31.093,63.103 L31.031,64.622 L21.204,64.622 L21.142,63.537 C21.8653369,63.1236646 22.6506624,62.7723348 23.498,62.483 L23.498,52.253 L21.204,51.819 L21.049,50.331 C22.8883425,49.6283298 24.9343221,49.2460003 27.187,49.184 Z M215.946,44.1 L216.132,45.092 C215.387996,45.629336 214.509672,46.1149978 213.497,46.549 L213.497,61.739 L219.015,61.212 L220.41,56.717 L223.603,56.996 L223.603,58.143 C223.603,60.8503469 223.458335,63.0099919 223.169,64.622 L205.437,64.622 L205.251,63.63 C206.036337,63.092664 206.914662,62.6070022 207.886,62.173 L207.886,46.115 L205.499,45.743 L205.53,44.1 L215.946,44.1 Z M247.938,49.184 L249.612,50.858 L249.612,51.85 C251.286008,50.589327 252.846326,49.7316689 254.293,49.277 C256.235676,49.3390003 257.671995,50.0829929 258.602,51.509 C258.829334,51.9223354 258.953333,52.8626593 258.974,54.33 L258.974,62.018 C259.883338,62.3280015 260.62733,62.6896646 261.206,63.103 L261.113,64.622 L253.611,64.622 L253.611,56.035 C253.611,53.9476562 252.949673,52.904 251.627,52.904 C251.027664,52.904 250.356004,53.0899981 249.612,53.462 L249.612,62.111 C250.356004,62.4416683 250.955331,62.7723317 251.41,63.103 L251.348,64.622 L242.017,64.622 L241.955,63.537 C242.59567,63.1649981 243.360329,62.8240015 244.249,62.514 L244.249,52.253 L241.955,51.819 L241.8,50.331 C243.639343,49.6283298 245.685322,49.2460003 247.938,49.184 Z M91.977,41.775 L93.651,43.325 L93.651,62.018 C94.5603379,62.3280015 95.3043304,62.6896646 95.883,63.103 L95.821,64.622 L85.994,64.622 L85.932,63.537 C86.6553369,63.1236646 87.4406624,62.7723348 88.288,62.483 L88.288,44.875 L85.994,44.472 L85.839,42.922 C87.5750087,42.3019969 89.6209882,41.9196674 91.977,41.775 Z M124.496,44.1 L124.527,44.813 C124.527,46.7143428 124.330669,48.563991 123.938,50.362 L120.838,50.362 L120.28,47.2 L115.258,46.859 L115.258,53.121 L121.737,52.594 L121.737,55.942 L115.258,55.663 L115.258,61.739 L120.466,61.336 L121.582,57.926 L124.651,58.174 C124.692334,60.1993435 124.568335,62.3486553 124.279,64.622 L107.198,64.622 L107.012,63.63 C107.797337,63.092664 108.675662,62.6070022 109.647,62.173 L109.647,46.084 L107.322,45.743 L107.353,44.1 L124.496,44.1 Z M147.777,41.341 C149.389008,41.341 150.928659,41.8473283 152.396,42.86 L149.606,47.541 C148.283327,46.2389935 146.723009,45.3090028 144.925,44.751 L146.816,49.959 L150.288,49.959 L150.35,51.478 L148.769,53.462 L146.847,53.462 L146.847,61.894 C147.880338,62.1833348 148.820662,62.5863307 149.668,63.103 L149.606,64.622 L139.469,64.622 L139.407,63.537 C139.98567,63.1856649 140.667663,62.875668 141.453,62.607 L141.453,53.431 L139.159,53.462 L139.097,51.757 L141.453,50.393 L141.453,48.099 C141.453,46.1769904 142.062661,44.5701731 143.282,43.2785 C144.501339,41.9868269 145.999658,41.341 147.777,41.341 Z M135.842,41.341 C137.454008,41.341 138.993659,41.8473283 140.461,42.86 L137.671,47.541 C136.348327,46.2389935 134.788009,45.3090028 132.99,44.751 L134.881,49.959 L138.353,49.959 L138.415,51.478 L136.834,53.462 L134.912,53.462 L134.912,61.894 C135.945338,62.1833348 136.885662,62.5863307 137.733,63.103 L137.671,64.622 L127.534,64.622 L127.472,63.537 C128.05067,63.1856649 128.732663,62.875668 129.518,62.607 L129.518,53.431 L127.224,53.462 L127.162,51.757 L129.518,50.393 L129.518,48.099 C129.518,46.1769904 130.127661,44.5701731 131.347,43.2785 C132.566339,41.9868269 134.064658,41.341 135.842,41.341 Z M230.082,60.747 C230.082,61.284336 230.257665,61.7286649 230.609,62.08 C231.229003,62.0386665 232.086661,61.8423351 233.182,61.491 L233.182,59.197 C231.115323,59.1556665 230.082,59.672328 230.082,60.747 Z M73.625,60.747 C73.625,61.284336 73.8006649,61.7286649 74.152,62.08 C74.7720031,62.0386665 75.6296612,61.8423351 76.725,61.491 L76.725,59.197 C74.658323,59.1556665 73.625,59.672328 73.625,60.747 Z M306.497,60.747 C306.497,61.284336 306.672665,61.7286649 307.024,62.08 C307.644003,62.0386665 308.501661,61.8423351 309.597,61.491 L309.597,59.197 C307.530323,59.1556665 306.497,59.672328 306.497,60.747 Z M325.996,51.416 C325.706665,51.416 325.407002,51.4779994 325.097,51.602 C324.559664,52.0566689 324.291,52.9866596 324.291,54.392 C324.291,55.3013379 324.497665,56.0556637 324.911,56.655 C325.324335,57.2543363 325.91333,57.554 326.678,57.554 C326.967335,57.554 327.246332,57.5126671 327.515,57.43 C328.197003,56.9546643 328.538,56.0556733 328.538,54.733 C328.538,53.8649957 328.300336,53.09517 327.825,52.4235 C327.349664,51.75183 326.740004,51.416 325.996,51.416 Z M269.607,51.416 C269.317665,51.416 269.018002,51.4779994 268.708,51.602 C268.170664,52.0566689 267.902,52.9866596 267.902,54.392 C267.902,55.3013379 268.108665,56.0556637 268.522,56.655 C268.935335,57.2543363 269.52433,57.554 270.289,57.554 C270.578335,57.554 270.857332,57.5126671 271.126,57.43 C271.808003,56.9546643 272.149,56.0556733 272.149,54.733 C272.149,53.8649957 271.911336,53.09517 271.436,52.4235 C270.960664,51.75183 270.351004,51.416 269.607,51.416 Z M343.852,51.695 C342.859995,52.3150031 342.229668,53.4516584 341.961,55.105 L341.961,55.105 L346.611,54.826 C346.486999,53.9786624 346.171836,53.2501697 345.6655,52.6405 C345.159164,52.0308303 344.55467,51.7156668 343.852,51.695 Z M158.286,51.695 C157.293995,52.3150031 156.663668,53.4516584 156.395,55.105 L161.045,54.826 C160.920999,53.9786624 160.605836,53.2501697 160.0995,52.6405 C159.593164,52.0308303 158.98867,51.7156668 158.286,51.695 Z M25.854,41 C27.2386736,41.7233369 28.4063286,42.7773264 29.357,44.162 C28.6749966,45.5260068 27.7140062,46.6523289 26.474,47.541 C25.0479929,46.9003301 23.8183385,45.9600062 22.785,44.72 C23.6116708,43.1286587 24.6346606,41.8886711 25.854,41 Z" id="Combined-Shape-Copy-4" stroke="#FFFFFF" stroke-width="0.5"></path>
                <path d="M10.292,3.1 L10.478,4.092 C9.73399628,4.60866925 8.90733788,5.06333137 7.998,5.456 L11.191,15.562 L11.481,18.621 L7.017,18.621 L2.232,5.084 L-2.84217094e-14,4.743 L0.031,3.1 L10.292,3.1 Z M22.413,3.1 L22.599,4.092 C21.9789969,4.54666894 21.1833382,4.99099783 20.212,5.425 L15.655,18.621 L12.234,18.621 L16.678,5.177 L13.95,4.743 L13.981,3.1 L22.413,3.1 Z M27.187,8.184 L28.861,9.672 L28.861,18.621 L23.498,18.621 L23.498,11.253 L21.204,10.819 L21.049,9.331 C22.8883425,8.62832982 24.9343221,8.24600031 27.187,8.184 Z M34.596,18.507 L34.749,18.621 L34.546,18.621 L34.596,18.507 Z M40.176,8.122 C42.0566761,8.122 43.6583267,8.46299659 44.981,9.145 L45.043,10.23 C45.043,11.304672 44.8673351,12.3896612 44.516,13.485 L41.788,13.485 L40.827,10.664 L39.401,10.509 C38.5743292,10.7570012 38.161,11.1909969 38.161,11.811 C38.161,12.1830019 38.295332,12.5188318 38.564,12.8185 C38.832668,13.1181682 39.7936584,13.696829 41.447,14.5545 C43.1003416,15.412171 44.2163304,16.2078297 44.795,16.9415 C45.1989096,17.4535996 45.4618532,18.0135202 45.5838339,18.6212702 L39.1249656,18.6219186 C38.7405352,18.4013857 38.268344,18.1467236 37.7083905,17.8579314 L37.4325,17.7165 C35.8308253,16.9001626 34.7458362,16.1355036 34.1775,15.4225 C33.6091638,14.7094964 33.325,13.8983379 33.325,12.989 C33.325,11.5423261 33.9604936,10.3695045 35.2315,9.4705 C36.5025064,8.5714955 38.1506565,8.122 40.176,8.122 Z M53.444,8.184 L55.118,9.672 L55.118,17.856 C55.118,18.1336885 55.1350605,18.3888999 55.1691815,18.6216342 L49.755,18.621 L49.755,11.253 L47.461,10.819 L47.306,9.331 C49.1453425,8.62832982 51.1913221,8.24600031 53.444,8.184 Z M62.62,8.184 L64.294,9.672 L64.294,18.621 L58.931,18.621 L58.931,11.16 L57.195,10.726 L57.04,9.238 C58.6933416,8.57666336 60.553323,8.22533354 62.62,8.184 Z M77.345,8.06 C79.1843425,8.06 80.641328,8.81432579 81.716,10.323 C81.9433345,10.7156686 82.0673332,11.5009941 82.088,12.679 L82.088,18.621 L76.725,18.621 L76.725,18.197 C75.6060938,18.1746219 74.7900821,18.315802 74.2769598,18.6205429 L68.6145639,18.6209881 C68.9902998,17.7466957 69.7304428,17.0163699 70.835,16.43 L76.725,16.306 L76.725,13.764 C76.725,12.1726587 76.2496714,11.1290025 75.299,10.633 C74.6376634,10.6743335 74.0590025,10.7983323 73.563,11.005 L72.819,14.415 L69.781,14.477 C69.3883314,13.3609944 69.192,12.1830062 69.192,10.943 L69.254,9.796 C70.4940062,9.32066429 71.9303252,8.9125017 73.563,8.5715 C75.1956748,8.23049829 76.4563289,8.06 77.345,8.06 Z M91.977,0.775 L93.651,2.325 L93.651,18.621 L88.288,18.621 L88.288,3.875 L85.994,3.472 L85.839,1.922 C87.5750087,1.3019969 89.6209882,0.91966739 91.977,0.775 Z M124.496,3.1 L124.527,3.813 C124.527,5.71434284 124.330669,7.56399101 123.938,9.362 L120.838,9.362 L120.28,6.2 L115.258,5.859 L115.258,12.121 L121.737,11.594 L121.737,14.942 L115.258,14.663 L115.258,18.621 L109.647,18.621 L109.647,5.084 L107.322,4.743 L107.353,3.1 L124.496,3.1 Z M121.582,16.926 L124.651,17.174 C124.660705,17.6495463 124.661295,18.1319269 124.652771,18.6211428 L121.027,18.621 L121.582,16.926 Z M135.842,0.341 C137.454008,0.341 138.993659,0.84732827 140.461,1.86 L137.671,6.541 C136.348327,5.23899349 134.788009,4.30900279 132.99,3.751 L134.881,8.959 L138.353,8.959 L138.415,10.478 L136.834,12.462 L134.912,12.462 L134.912,18.621 L129.518,18.621 L129.518,12.431 L127.224,12.462 L127.162,10.757 L129.518,9.393 L129.518,7.099 C129.518,5.17699039 130.127661,3.57017312 131.347,2.2785 C132.566339,0.986826875 134.064658,0.341 135.842,0.341 Z M147.777,0.341 C149.389008,0.341 150.928659,0.84732827 152.396,1.86 L149.606,6.541 C148.283327,5.23899349 146.723009,4.30900279 144.925,3.751 L146.816,8.959 L150.288,8.959 L150.35,10.478 L148.769,12.462 L146.847,12.462 L146.847,18.621 L141.453,18.621 L141.453,12.431 L139.159,12.462 L139.097,10.757 L141.453,9.393 L141.453,7.099 C141.453,5.17699039 142.062661,3.57017312 143.282,2.2785 C144.501339,0.986826875 145.999658,0.341 147.777,0.341 Z M159.123,8.122 C161.127677,8.122 162.760327,8.72649395 164.021,9.9355 C165.281673,11.144506 165.901667,12.7409901 165.881,14.725 L164.083,16.523 L156.271,16.461 C156.361704,17.3032529 156.584425,18.0236353 156.939167,18.6221547 L151.507033,18.6215968 C151.314344,17.9215217 151.218,17.1703236 151.218,16.368 C151.218,14.0739885 151.987826,12.1261747 153.5275,10.5245 C155.067174,8.92282532 156.932322,8.122 159.123,8.122 Z M175.336,8.122 C176.782674,8.122 178.074328,8.4681632 179.211,9.1605 C180.347672,9.85283679 181.112331,10.8499935 181.505,12.152 L177.258,14.539 C176.369329,12.7823245 175.336006,11.5836699 174.158,10.943 C173.165995,12.017672 172.67,13.5056572 172.67,15.407 C172.67,16.6711496 172.920875,17.7428314 173.422633,18.6220658 L167.799726,18.6224301 C167.595242,17.8772027 167.493,17.0740603 167.493,16.213 C167.493,13.877655 168.236993,11.945341 169.725,10.416 C171.213007,8.88665902 173.083322,8.122 175.336,8.122 Z M189.131,4.805 L189.906,8.959 L194.184,8.959 L194.215,10.509 L192.665,12.462 L190.061,12.462 L190.061,18.621 L184.698,18.621 L184.698,12.431 L182.435,12.431 L182.342,10.757 C183.024003,10.1783304 183.902328,9.5790031 184.977,8.959 L186.682,4.805 L189.131,4.805 Z M215.946,3.1 L216.132,4.092 C215.387996,4.62933602 214.509672,5.11499783 213.497,5.549 L213.497,18.621 L207.886,18.621 L207.886,5.115 L205.499,4.743 L205.53,3.1 L215.946,3.1 Z M220.41,15.717 L223.603,15.996 L223.603,17.143 C223.603,17.6553888 223.597818,18.1481596 223.587455,18.6213128 L219.508,18.621 L220.41,15.717 Z M233.802,8.06 C235.641343,8.06 237.098328,8.81432579 238.173,10.323 C238.400334,10.7156686 238.524333,11.5009941 238.545,12.679 L238.545,18.621 L233.182,18.621 L233.182,18.197 C232.063094,18.1746219 231.247082,18.315802 230.73396,18.6205429 L225.071564,18.6209881 C225.4473,17.7466957 226.187443,17.0163699 227.292,16.43 L233.182,16.306 L233.182,13.764 C233.182,12.1726587 232.706671,11.1290025 231.756,10.633 C231.094663,10.6743335 230.516002,10.7983323 230.02,11.005 L229.276,14.415 L226.238,14.477 C225.845331,13.3609944 225.649,12.1830062 225.649,10.943 L225.711,9.796 C226.951006,9.32066429 228.387325,8.9125017 230.02,8.5715 C231.652675,8.23049829 232.913329,8.06 233.802,8.06 Z M247.938,8.184 L249.612,9.858 L249.612,10.85 C251.286008,9.58932703 252.846326,8.73166894 254.293,8.277 C256.235676,8.33900031 257.671995,9.08299287 258.602,10.509 C258.829334,10.9223354 258.953333,11.8626593 258.974,13.33 L258.974,18.621 L253.611,18.621 L253.611,15.035 C253.611,12.9476562 252.949673,11.904 251.627,11.904 C251.027664,11.904 250.356004,12.0899981 249.612,12.462 L249.612,18.621 L244.249,18.621 L244.249,11.253 L241.955,10.819 L241.8,9.331 C243.639343,8.62832982 245.685322,8.24600031 247.938,8.184 Z M278.628,6.231 L279.496,10.633 L278.411,10.54 C277.749663,10.54 277.12967,10.6536655 276.551,10.881 C277.067669,11.6456705 277.326,12.4929953 277.326,13.423 C277.326,14.9730077 276.633674,16.2543283 275.249,17.267 C274.317852,17.9479891 273.209145,18.4000032 271.922865,18.6230468 L266.192299,18.6201702 C266.349242,18.5155536 266.505809,18.4158303 266.662,18.321 C265.401327,17.8869978 264.424837,17.241171 263.7325,16.3835 C263.040163,15.525829 262.694,14.5700053 262.694,13.516 C262.694,11.9659922 263.391493,10.6588387 264.7865,9.5945 C266.181507,8.53016134 267.932989,7.998 270.041,7.998 C271.715008,7.998 273.182327,8.33899659 274.443,9.021 C275.063003,7.28499132 276.457989,6.35500062 278.628,6.231 Z M286.316,8.184 L287.99,9.672 L287.99,17.856 C287.99,18.1336885 288.00706,18.3888999 288.041182,18.6216342 L282.627,18.621 L282.627,11.253 L280.333,10.819 L280.178,9.331 C282.017343,8.62832982 284.063322,8.24600031 286.316,8.184 Z M295.492,8.184 L297.166,9.672 L297.166,18.621 L291.803,18.621 L291.803,11.16 L290.067,10.726 L289.912,9.238 C291.565342,8.57666336 293.425323,8.22533354 295.492,8.184 Z M310.217,8.06 C312.056343,8.06 313.513328,8.81432579 314.588,10.323 C314.815334,10.7156686 314.939333,11.5009941 314.96,12.679 L314.96,18.621 L309.597,18.621 L309.597,18.197 C308.478094,18.1746219 307.662082,18.315802 307.14896,18.6205429 L301.486564,18.6209881 C301.8623,17.7466957 302.602443,17.0163699 303.707,16.43 L309.597,16.306 L309.597,13.764 C309.597,12.1726587 309.121671,11.1290025 308.171,10.633 C307.509663,10.6743335 306.931002,10.7983323 306.435,11.005 L305.691,14.415 L302.653,14.477 C302.260331,13.3609944 302.064,12.1830062 302.064,10.943 L302.126,9.796 C303.366006,9.32066429 304.802325,8.9125017 306.435,8.5715 C308.067675,8.23049829 309.328329,8.06 310.217,8.06 Z M335.017,6.231 L335.885,10.633 L334.8,10.54 C334.138663,10.54 333.51867,10.6536655 332.94,10.881 C333.456669,11.6456705 333.715,12.4929953 333.715,13.423 C333.715,14.9730077 333.022674,16.2543283 331.638,17.267 C330.706852,17.9479891 329.598145,18.4000032 328.311865,18.6230468 L322.581299,18.6201702 C322.738242,18.5155536 322.894809,18.4158303 323.051,18.321 C321.790327,17.8869978 320.813837,17.241171 320.1215,16.3835 C319.429163,15.525829 319.083,14.5700053 319.083,13.516 C319.083,11.9659922 319.780493,10.6588387 321.1755,9.5945 C322.570507,8.53016134 324.321989,7.998 326.43,7.998 C328.104008,7.998 329.571327,8.33899659 330.832,9.021 C331.452003,7.28499132 332.846989,6.35500062 335.017,6.231 Z M344.689,8.122 C346.693677,8.122 348.326327,8.72649395 349.587,9.9355 C350.847673,11.144506 351.467667,12.7409901 351.447,14.725 L349.649,16.523 L341.837,16.461 C341.927704,17.3032529 342.150425,18.0236353 342.505167,18.6221547 L337.073033,18.6215968 C336.880344,17.9215217 336.784,17.1703236 336.784,16.368 C336.784,14.0739885 337.553826,12.1261747 339.0935,10.5245 C340.633174,8.92282532 342.498322,8.122 344.689,8.122 Z M269.607,10.416 C269.317665,10.416 269.018002,10.4779994 268.708,10.602 C268.170664,11.0566689 267.902,11.9866596 267.902,13.392 C267.902,14.3013379 268.108665,15.0556637 268.522,15.655 C268.935335,16.2543363 269.52433,16.554 270.289,16.554 C270.578335,16.554 270.857332,16.5126671 271.126,16.43 C271.808003,15.9546643 272.149,15.0556733 272.149,13.733 C272.149,12.8649957 271.911336,12.09517 271.436,11.4235 C270.960664,10.75183 270.351004,10.416 269.607,10.416 Z M325.996,10.416 C325.706665,10.416 325.407002,10.4779994 325.097,10.602 C324.559664,11.0566689 324.291,11.9866596 324.291,13.392 C324.291,14.3013379 324.497665,15.0556637 324.911,15.655 C325.324335,16.2543363 325.91333,16.554 326.678,16.554 C326.967335,16.554 327.246332,16.5126671 327.515,16.43 C328.197003,15.9546643 328.538,15.0556733 328.538,13.733 C328.538,12.8649957 328.300336,12.09517 327.825,11.4235 C327.349664,10.75183 326.740004,10.416 325.996,10.416 Z M158.286,10.695 C157.293995,11.3150031 156.663668,12.4516584 156.395,14.105 L161.045,13.826 C160.920999,12.9786624 160.605836,12.2501697 160.0995,11.6405 C159.593164,11.0308303 158.98867,10.7156668 158.286,10.695 Z M343.852,10.695 C342.859995,11.3150031 342.229668,12.4516584 341.961,14.105 L341.961,14.105 L346.611,13.826 C346.486999,12.9786624 346.171836,12.2501697 345.6655,11.6405 C345.159164,11.0308303 344.55467,10.7156668 343.852,10.695 Z M25.854,-5.80868686e-13 C27.2386736,0.72333695 28.4063286,1.77732641 29.357,3.162 C28.6749966,4.52600682 27.7140062,5.65232889 26.474,6.541 C25.0479929,5.90033013 23.8183385,4.9600062 22.785,3.72 C23.6116708,2.12865871 24.6346606,0.88867111 25.854,-5.80868686e-13 Z" id="Combined-Shape-Copy-3" stroke="#FFFFFF" stroke-width="0.5"></path>
            </g>
        </g>
    </g>
</svg>