
<svg width="305px" height="46px" viewBox="0 0 305 46" version="1.1" xmlns="http://www.w3.org/2000/svg" xmlns:xlink="http://www.w3.org/1999/xlink">
    <g id="Page-1" stroke="none" stroke-width="1" fill="none" fill-rule="evenodd" fill-opacity="0">
        <g id="Mobile-Detail-2" transform="translate(-67.000000, -16.000000)" fill="#A4A4A4" fill-rule="nonzero" stroke="#FFFFFF" stroke-width="0.4">
            <path d="M112.778,56.873 L112.719,60 L92.718,60 L92.364,58.112 C93.4653388,57.3253294 95.0386564,56.4403382 97.084,55.457 L95.019,49.852 L82.039,49.852 L79.679,56.047 L84.753,56.873 L84.694,60 L68.174,60 L67.82,58.112 C69.1966735,57.1679953 70.848657,56.2633377 72.776,55.398 L85.402,24.305 L84.517,21.886 L93.721,19.526 L108.53,56.224 L112.778,56.873 Z M93.131,44.896 L88.529,32.506 L83.868,44.896 L93.131,44.896 Z M131.835,31.031 L133.841,30.854 C137.105683,30.854 139.750823,32.1618203 141.7765,34.7775 C143.802177,37.3931797 144.815,40.6479805 144.815,44.542 C144.815,49.3800242 143.241682,53.3428179 140.095,56.4305 C136.948318,59.5181821 132.798692,61.062 127.646,61.062 C123.830648,61.062 119.720355,60.3146741 115.315,58.82 L115.374,58.761 L115.374,22.417 L110.949,21.65 L110.713,18.7 C114.017017,17.5199941 117.910978,16.7923347 122.395,16.517 L125.581,19.467 L125.581,35.574 L131.835,31.031 Z M130.714,55.516 C133.113345,53.4313229 134.313,50.3633536 134.313,46.312 C134.313,43.9913217 133.782005,42.0246747 132.72,40.412 C131.657995,38.7993253 130.242009,37.993 128.472,37.993 C127.527995,37.993 126.564338,38.2289976 125.581,38.701 L125.581,55.103 C126.643005,55.4570018 127.803327,55.634 129.062,55.634 L130.714,55.516 Z M146.526,45.663 C146.526,41.2183111 147.922319,37.5800142 150.715,34.748 C153.507681,31.9159858 157.047645,30.5 161.335,30.5 C165.622355,30.5 169.142653,31.9356523 171.896,34.807 C174.649347,37.6783477 176.026,41.3953105 176.026,45.958 C176.026,50.481356 174.678847,54.1491526 171.9845,56.9615 C169.290153,59.7738474 165.819021,61.18 161.571,61.18 C157.244312,61.18 153.655181,59.714848 150.8035,56.7845 C147.951819,53.854152 146.526,50.1470224 146.526,45.663 Z M163.518,55.575 C164.973341,54.4736612 165.701,51.4843577 165.701,46.607 C165.701,39.6449652 164.108016,36.164 160.922,36.164 C159.938662,36.164 159.171669,36.3803312 158.621,36.813 C157.440994,38.3863412 156.851,41.3756446 156.851,45.781 C156.851,48.7703483 157.263996,51.1991573 158.09,53.0675 C158.916004,54.9358427 160.174658,55.87 161.866,55.87 C162.416669,55.87 162.967331,55.7716676 163.518,55.575 Z M214.14,56.637 L206.293,61.003 C205.152328,60.9243329 204.001839,60.4326712 202.8415,59.528 C201.681161,58.6233288 200.747004,57.4433406 200.039,55.988 C196.892318,58.3873453 193.726016,60.0589953 190.54,61.003 C188.53399,61.003 186.636176,60.373673 184.8465,59.115 C183.056824,57.856327 182.044001,56.2830094 181.808,54.395 L181.631,51.032 L181.631,36.459 L177.265,35.633 L176.97,32.801 C180.470684,31.46366 184.364645,30.7360006 188.652,30.618 L191.838,33.45 L191.838,49.026 C191.838,52.290683 193.076988,53.923 195.555,53.923 C196.774339,53.923 197.954328,53.6673359 199.095,53.156 L199.095,36.282 L195.791,35.456 L195.496,32.624 C198.642682,31.365327 202.182647,30.6966671 206.116,30.618 L209.302,33.45 L209.302,52.684 C209.302,53.7066718 209.793662,54.218 210.777,54.218 L212.311,54.159 L213.786,54.041 L214.14,56.637 Z M231.427,53.451 C232.803674,53.451 234.376991,53.2740018 236.147,52.92 L236.56,55.988 L226.825,61.003 C224.858324,61.0816671 223.058841,60.4621733 221.4265,59.1445 C219.794159,57.8268267 218.978,56.2830089 218.978,54.513 L218.978,38.701 L214.671,38.701 L214.494,35.515 C215.792006,34.4136612 217.463656,33.2730059 219.509,32.093 L222.754,24.187 L227.415,24.187 L228.89,32.093 L237.032,32.093 L237.091,35.043 L234.141,38.76 L229.185,38.76 L229.185,50.914 C229.185,52.6053418 229.932326,53.451 231.427,53.451 Z M290.899,56.637 L283.052,61.003 C281.911328,60.9243329 280.760839,60.4326712 279.6005,59.528 C278.440161,58.6233288 277.506004,57.4433406 276.798,55.988 C273.651318,58.3873453 270.485016,60.0589953 267.299,61.003 C265.29299,61.003 263.395176,60.373673 261.6055,59.115 C259.815824,57.856327 258.803001,56.2830094 258.567,54.395 L258.39,51.032 L258.39,36.459 L254.024,35.633 L253.729,32.801 C257.229684,31.46366 261.123645,30.7360006 265.411,30.618 L268.597,33.45 L268.597,49.026 C268.597,52.290683 269.835988,53.923 272.314,53.923 C273.533339,53.923 274.713328,53.6673359 275.854,53.156 L275.854,36.282 L272.55,35.456 L272.255,32.624 C275.401682,31.365327 278.941647,30.6966671 282.875,30.618 L286.061,33.45 L286.061,52.684 C286.061,53.7066718 286.552662,54.218 287.536,54.218 L289.07,54.159 L290.545,54.041 L290.899,56.637 Z M302.286,37.521 C302.286,38.2290035 302.541664,38.8681638 303.053,39.4385 C303.50955,39.9477287 305.016519,40.8802564 307.573946,42.2361064 L308.54,42.7425 C311.686682,44.3748415 313.810661,45.8891597 314.912,47.2855 C316.013339,48.6818403 316.564,50.2649911 316.564,52.035 C316.564,54.70968 315.462678,56.9024914 313.26,58.6135 C311.057322,60.3245086 308.127018,61.18 304.469,61.18 C300.338979,61.18 296.228687,60.1180106 292.138,57.994 L295.501,50.265 C298.923017,52.9003465 302.462982,54.8669935 306.121,56.165 C306.829004,55.5356635 307.183,54.8080041 307.183,53.982 C307.183,53.2346629 306.897836,52.5660029 306.3275,51.976 C305.799411,51.429701 304.209097,50.4703192 301.556515,49.0978293 L300.8995,48.7605 C297.851151,47.2068256 295.786172,45.7515068 294.7045,44.3945 C293.622828,43.0374932 293.082,41.4936753 293.082,39.763 C293.082,37.0096529 294.291488,34.7775086 296.7105,33.0665 C299.129512,31.3554914 302.266314,30.5 306.121,30.5 C309.700351,30.5 312.748654,31.1489935 315.266,32.447 L315.384,34.512 C315.384,36.5573436 315.04967,38.6223229 314.381,40.707 L309.189,40.707 L307.36,35.338 L304.646,35.043 C303.072659,35.5150024 302.286,36.3409941 302.286,37.521 Z M335.149,55.162 C334.401663,57.7973465 332.730013,59.8033265 330.134,61.18 C327.262652,60.2359953 325.197673,58.5446789 323.939,56.106 C324.371669,53.1166517 326.141651,50.8156747 329.249,49.203 C332.474349,50.6583406 334.440996,52.6446541 335.149,55.162 Z M353.203,55.162 C352.455663,57.7973465 350.784013,59.8033265 348.188,61.18 C345.316652,60.2359953 343.251673,58.5446789 341.993,56.106 C342.425669,53.1166517 344.195651,50.8156747 347.303,49.203 C350.528349,50.6583406 352.494996,52.6446541 353.203,55.162 Z M371.257,55.162 C370.509663,57.7973465 368.838013,59.8033265 366.242,61.18 C363.370652,60.2359953 361.305673,58.5446789 360.047,56.106 C360.479669,53.1166517 362.249651,50.8156747 365.357,49.203 C368.582349,50.6583406 370.548996,52.6446541 371.257,55.162 Z" id="Aboutus…"></path>
        </g>
    </g>
</svg>