
<svg width="79px" height="10px" viewBox="0 0 79 10" version="1.1" xmlns="http://www.w3.org/2000/svg" xmlns:xlink="http://www.w3.org/1999/xlink">
    <g id="Page-1" stroke="none" stroke-width="1" fill="none" fill-rule="evenodd">
        <g id="Detail-2" transform="translate(-1290.000000, -758.000000)" fill="#FFFFFF" fill-rule="nonzero">
            <g id="links" transform="translate(1137.000000, 754.000000)">
                <path d="M159.636,13 L158.988,11.176 L155.292,11.176 L154.644,13 L153.528,13 L156.552,4.684 L157.752,4.684 L160.764,13 L159.636,13 Z M155.604,10.312 L158.676,10.312 L157.14,6.016 L155.604,10.312 Z M165.192,4.684 L168.168,4.684 C169.016004,4.684 169.671998,4.88999794 170.136,5.302 C170.600002,5.71400206 170.832,6.24399676 170.832,6.892 C170.832,7.82000464 170.300005,8.43199852 169.236,8.728 C169.772003,8.81600044 170.203998,9.05599804 170.532,9.448 C170.860002,9.84000196 171.024,10.2919974 171.024,10.804 C171.024,11.4360032 170.778002,11.9599979 170.286,12.376 C169.793998,12.7920021 169.136004,13 168.312,13 L165.192,13 L165.192,4.684 Z M166.284,5.56 L166.284,8.296 L168.12,8.296 C168.624003,8.296 169.017999,8.17400122 169.302,7.93 C169.586001,7.68599878 169.728,7.3540021 169.728,6.934 C169.728,6.5139979 169.586001,6.18000124 169.302,5.932 C169.017999,5.68399876 168.624003,5.56 168.12,5.56 L166.284,5.56 Z M166.284,12.136 L168.252,12.136 C168.780003,12.136 169.193998,12.0040013 169.494,11.74 C169.794002,11.4759987 169.944,11.1140023 169.944,10.654 C169.944,10.1939977 169.782002,9.83200132 169.458,9.568 C169.133998,9.30399868 168.704003,9.172 168.168,9.172 L166.284,9.172 L166.284,12.136 Z M181.572,11.212 C182.156003,10.611997 182.448,9.82000492 182.448,8.836 C182.448,7.85199508 182.156003,7.06200298 181.572,6.466 C180.987997,5.86999702 180.242005,5.572 179.334,5.572 C178.425995,5.572 177.678003,5.86999702 177.09,6.466 C176.501997,7.06200298 176.208,7.85199508 176.208,8.836 C176.208,9.82000492 176.503997,10.611997 177.096,11.212 C177.688003,11.812003 178.435995,12.112 179.34,12.112 C180.244005,12.112 180.987997,11.812003 181.572,11.212 Z M179.34,13.084 C178.147994,13.084 177.144004,12.682004 176.328,11.878 C175.511996,11.073996 175.104,10.0580061 175.104,8.83 C175.104,7.60199386 175.511996,6.59000398 176.328,5.794 C177.144004,4.99799602 178.147994,4.6 179.34,4.6 C180.532006,4.6 181.533996,4.99799602 182.346,5.794 C183.158004,6.59000398 183.564,7.60399384 183.564,8.836 C183.564,10.0680062 183.158004,11.083996 182.346,11.884 C181.533996,12.684004 180.532006,13.084 179.34,13.084 Z M187.908,10.084 L187.908,4.684 L189.012,4.684 L189.012,10.084 C189.012,10.7720034 189.193998,11.2859983 189.558,11.626 C189.922002,11.9660017 190.423997,12.136 191.064,12.136 C191.704003,12.136 192.207998,11.9660017 192.576,11.626 C192.944002,11.2859983 193.128,10.7720034 193.128,10.084 L193.128,4.684 L194.22,4.684 L194.22,10.084 C194.22,11.0600049 193.922003,11.8039974 193.326,12.316 C192.729997,12.8280026 191.974005,13.084 191.058,13.084 C190.141995,13.084 189.388003,12.8280026 188.796,12.316 C188.203997,11.8039974 187.908,11.0600049 187.908,10.084 Z M198.624,5.56 L198.624,4.684 L204.108,4.684 L204.108,5.56 L201.912,5.56 L201.912,13 L200.82,13 L200.82,5.56 L198.624,5.56 Z M215.136,10.084 L215.136,4.684 L216.24,4.684 L216.24,10.084 C216.24,10.7720034 216.421998,11.2859983 216.786,11.626 C217.150002,11.9660017 217.651997,12.136 218.292,12.136 C218.932003,12.136 219.435998,11.9660017 219.804,11.626 C220.172002,11.2859983 220.356,10.7720034 220.356,10.084 L220.356,4.684 L221.448,4.684 L221.448,10.084 C221.448,11.0600049 221.150003,11.8039974 220.554,12.316 C219.957997,12.8280026 219.202005,13.084 218.286,13.084 C217.369995,13.084 216.616003,12.8280026 216.024,12.316 C215.431997,11.8039974 215.136,11.0600049 215.136,10.084 Z M227.112,6.904 C227.112,7.20800152 227.195999,7.459999 227.364,7.66 C227.532001,7.860001 227.747999,8.00799952 228.012,8.104 C228.210001,8.17600036 228.424875,8.24124998 228.656625,8.29974992 L228.894,8.356 C229.218002,8.42800036 229.541998,8.50999954 229.866,8.602 C230.190002,8.69400046 230.483999,8.81199928 230.748,8.956 C231.012001,9.1 231.227999,9.31599856 231.396,9.604 C231.564001,9.89200144 231.648,10.2479979 231.648,10.672 C231.648,11.3200032 231.400002,11.8839976 230.904,12.364 C230.407998,12.8440024 229.738004,13.084 228.894,13.084 C228.049996,13.084 227.364003,12.8900019 226.836,12.502 C226.307997,12.1139981 226.044,11.5880033 226.044,10.924 L227.208,10.924 C227.24,11.3000019 227.389999,11.6039988 227.658,11.836 C227.926001,12.0680012 228.323997,12.184 228.852,12.184 C229.380003,12.184 229.799998,12.0480014 230.112,11.776 C230.424002,11.5039986 230.58,11.1860018 230.58,10.822 C230.58,10.4579982 230.496001,10.178001 230.328,9.982 C230.159999,9.78599902 229.944001,9.64000048 229.68,9.544 C229.481999,9.47199964 229.267125,9.40787501 229.035375,9.35162508 L228.798,9.298 C228.473998,9.22999966 228.150002,9.14800048 227.826,9.052 C227.501998,8.95599952 227.208001,8.83400074 226.944,8.686 C226.679999,8.53799926 226.464001,8.31800146 226.296,8.026 C226.127999,7.73399854 226.044,7.37200216 226.044,6.94 C226.044,6.23599648 226.293998,5.67000214 226.794,5.242 C227.294003,4.81399786 227.945996,4.6 228.75,4.6 C229.554004,4.6 230.193998,4.78599814 230.67,5.158 C231.146002,5.53000186 231.42,6.04399672 231.492,6.7 L230.28,6.7 C230.248,6.37199836 230.094001,6.09200116 229.818,5.86 C229.541999,5.62799884 229.170002,5.512 228.702,5.512 C228.233998,5.512 227.852001,5.62999882 227.556,5.866 C227.259999,6.10200118 227.112,6.44799772 227.112,6.904 Z" id="ABOUTUS"></path>
            </g>
        </g>
    </g>
</svg>