
<svg width="12px" height="21px" viewBox="0 0 12 21" version="1.1" xmlns="http://www.w3.org/2000/svg" xmlns:xlink="http://www.w3.org/1999/xlink">
    <g id="Page-1" stroke="none" stroke-width="1" fill="none" fill-rule="evenodd">
        <g id="Detail-2" transform="translate(-1364.000000, -380.000000)" stroke="#FFFFFF">
            <g id="social" transform="translate(1360.000000, 381.000000)">
                <path d="M14.6428571,0.133928571 L14.6428571,3.08035714 L12.890625,3.08035714 C12.2507408,3.08035714 11.8191975,3.21428438 11.5959821,3.48214286 C11.3727667,3.75000134 11.2611607,4.15178304 11.2611607,4.6875 L11.2611607,6.796875 L14.53125,6.796875 L14.0959821,10.1004464 L11.2611607,10.1004464 L11.2611607,18.5714286 L7.84598214,18.5714286 L7.84598214,10.1004464 L5,10.1004464 L5,6.796875 L7.84598214,6.796875 L7.84598214,4.36383929 C7.84598214,2.97990379 8.23288304,1.90662584 9.00669643,1.14397321 C9.78050982,0.381320592 10.8110055,0 12.0982143,0 C13.1919698,0 14.0401756,0.0446424107 14.6428571,0.133928571 Z" id="facebook---FontAwesome"></path>
            </g>
        </g>
    </g>
</svg>