
<svg width="43px" height="10px" viewBox="0 0 43 10" version="1.1" xmlns="http://www.w3.org/2000/svg" xmlns:xlink="http://www.w3.org/1999/xlink">
    <g id="Page-1" stroke="none" stroke-width="1" fill="none" fill-rule="evenodd">
        <g id="Detail-2" transform="translate(-1146.000000, -757.000000)" fill="#FFFFFF" fill-rule="nonzero">
            <g id="links" transform="translate(1137.000000, 753.000000)">
                <path d="M15.18,4.684 L16.284,4.684 L16.284,13 L15.18,13 L15.18,9.244 L10.992,9.244 L10.992,13 L9.9,13 L9.9,4.684 L10.992,4.684 L10.992,8.38 L15.18,8.38 L15.18,4.684 Z M27.12,11.212 C27.7040029,10.611997 27.996,9.82000492 27.996,8.836 C27.996,7.85199508 27.7040029,7.06200298 27.12,6.466 C26.5359971,5.86999702 25.7900045,5.572 24.882,5.572 C23.9739955,5.572 23.2260029,5.86999702 22.638,6.466 C22.0499971,7.06200298 21.756,7.85199508 21.756,8.836 C21.756,9.82000492 22.051997,10.611997 22.644,11.212 C23.236003,11.812003 23.9839955,12.112 24.888,12.112 C25.7920045,12.112 26.5359971,11.812003 27.12,11.212 Z M24.888,13.084 C23.695994,13.084 22.6920041,12.682004 21.876,11.878 C21.0599959,11.073996 20.652,10.0580061 20.652,8.83 C20.652,7.60199386 21.0599959,6.59000398 21.876,5.794 C22.6920041,4.99799602 23.695994,4.6 24.888,4.6 C26.080006,4.6 27.0819959,4.99799602 27.894,5.794 C28.7060041,6.59000398 29.112,7.60399384 29.112,8.836 C29.112,10.0680062 28.7060041,11.083996 27.894,11.884 C27.0819959,12.684004 26.080006,13.084 24.888,13.084 Z M41.952,4.684 L41.952,13 L40.848,13 L40.848,6.94 L38.064,13 L37.356,13 L34.56,6.94 L34.56,13 L33.468,13 L33.468,4.684 L34.584,4.684 L37.716,11.5 L40.836,4.684 L41.952,4.684 Z M51.156,4.684 L51.156,5.548 L47.844,5.548 L47.844,8.38 L50.796,8.38 L50.796,9.232 L47.844,9.232 L47.844,12.136 L51.156,12.136 L51.156,13 L46.752,13 L46.752,4.684 L51.156,4.684 Z" id="HOME"></path>
            </g>
        </g>
    </g>
</svg>