
<svg width="21px" height="21px" viewBox="0 0 21 21" version="1.1" xmlns="http://www.w3.org/2000/svg" xmlns:xlink="http://www.w3.org/1999/xlink">
    <g id="Page-1" stroke="none" stroke-width="1" fill="none" fill-rule="evenodd">
        <g id="Detail-2" transform="translate(-1360.000000, -449.000000)" fill="#FFFFFF">
            <g id="social" transform="translate(1360.000000, 381.000000)">
                <path d="M5.91677453,68.7232341 C6.98186861,68.6837862 8.35595086,68.6640625 10.0390625,68.6640625 C11.7221741,68.6640625 13.0962564,68.6837862 14.1613505,68.7232341 C15.0686528,68.762682 15.8773232,68.9204714 16.587386,69.1966069 C17.2711501,69.4595931 17.8628601,69.8409173 18.3625339,70.3405911 C18.8622077,70.8402649 19.2435319,71.4319749 19.5065181,72.115739 C19.7826536,72.8258018 19.940443,73.6344722 19.9798909,74.5417745 C20.0193388,75.6068686 20.0390625,76.9809509 20.0390625,78.6640625 C20.0390625,80.3471741 20.0193388,81.7212564 19.9798909,82.7863505 C19.940443,83.6936528 19.7826536,84.5023232 19.5065181,85.212386 C19.2435319,85.8961501 18.8622077,86.4878601 18.3625339,86.9875339 C17.8628601,87.4872077 17.2711501,87.8685319 16.587386,88.1315181 C15.8773232,88.4076536 15.0686528,88.565443 14.1613505,88.6048909 C13.0962564,88.6443388 11.7221741,88.6640625 10.0390625,88.6640625 C8.35595086,88.6640625 6.98186861,88.6443388 5.91677453,88.6048909 C5.00947216,88.565443 4.20080175,88.4076536 3.49073903,88.1315181 C2.80697493,87.8685319 2.21526487,87.4872077 1.7155911,86.9875339 C1.21591733,86.4878601 0.834593072,85.8961501 0.571606879,85.212386 C0.295471376,84.5023232 0.137682027,83.6936528 0.0982340976,82.7863505 C0.0587861686,81.7212564 0.0390625,80.3471741 0.0390625,78.6640625 C0.0390625,76.9809509 0.0587861686,75.6068686 0.0982340976,74.5417745 C0.137682027,73.6344722 0.295471376,72.8258018 0.571606879,72.115739 C0.834593072,71.4319749 1.21591733,70.8402649 1.7155911,70.3405911 C2.21526487,69.8409173 2.80697493,69.4595931 3.49073903,69.1966069 C4.20080175,68.9204714 5.00947216,68.762682 5.91677453,68.7232341 Z M14.3191414,70.0250092 C13.2145994,69.9855613 11.7879207,69.9658376 10.0390625,69.9658376 C8.29020431,69.9658376 6.86352562,69.9855613 5.7589836,70.0250092 C5.04892088,70.0513079 4.39146526,70.1762244 3.78659702,70.3997627 C2.83984672,70.794242 2.16924199,71.4648467 1.7747627,72.411597 C1.55122443,73.0164653 1.42630786,73.6739209 1.40000925,74.3839836 C1.36056132,75.4885256 1.34083765,76.9152043 1.34083765,78.6640625 C1.34083765,80.4129207 1.36056132,81.8395994 1.40000925,82.9441414 C1.42630786,83.6542041 1.55122443,84.3116597 1.7747627,84.916528 C2.16924199,85.8632783 2.83984672,86.533883 3.78659702,86.9283623 C4.39146526,87.1519006 5.04892088,87.2768171 5.7589836,87.3031158 C6.86352562,87.3425637 8.29020431,87.3622874 10.0390625,87.3622874 C11.7879207,87.3622874 13.2145994,87.3425637 14.3191414,87.3031158 C15.0292041,87.2768171 15.6866597,87.1519006 16.291528,86.9283623 C17.2382783,86.533883 17.908883,85.8632783 18.3033623,84.916528 C18.5269006,84.3116597 18.6518171,83.6542041 18.6781158,82.9441414 C18.7175637,81.8395994 18.7372874,80.4129207 18.7372874,78.6640625 C18.7372874,76.9152043 18.7175637,75.4885256 18.6781158,74.3839836 C18.6518171,73.6739209 18.5269006,73.0164653 18.3033623,72.411597 C17.908883,71.4648467 17.2382783,70.794242 16.291528,70.3997627 C15.6866597,70.1762244 15.0292041,70.0513079 14.3191414,70.0250092 Z M7.19882581,81.5042992 C7.98778439,82.2801085 8.93452049,82.6680073 10.0390625,82.6680073 C11.1436045,82.6680073 12.0870533,82.2768212 12.8694373,81.4944373 C13.6518212,80.7120533 14.0430073,79.7686045 14.0430073,78.6640625 C14.0430073,77.5595205 13.6518212,76.6160717 12.8694373,75.8336877 C12.0870533,75.0513038 11.1436045,74.6601177 10.0390625,74.6601177 C8.93452049,74.6601177 7.99107167,75.0513038 7.20868775,75.8336877 C6.42630382,76.6160717 6.03511773,77.5595205 6.03511773,78.6640625 C6.03511773,79.7686045 6.42301654,80.7153406 7.19882581,81.5042992 Z M6.40987118,75.0348712 C7.40921871,74.0355236 8.61893706,73.5358574 10.0390625,73.5358574 C11.4591879,73.5358574 12.6689063,74.0355236 13.6682538,75.0348712 C14.6676014,76.0342187 15.1672676,77.2439371 15.1672676,78.6640625 C15.1672676,80.0841879 14.6676014,81.2939063 13.6682538,82.2932538 C12.6689063,83.2926014 11.4591879,83.7922676 10.0390625,83.7922676 C8.61893706,83.7922676 7.40921871,83.2926014 6.40987118,82.2932538 C5.41052364,81.2939063 4.91085737,80.0841879 4.91085737,78.6640625 C4.91085737,77.2439371 5.41052364,76.0342187 6.40987118,75.0348712 Z M16.2126325,72.4904925 C16.4624694,72.7271801 16.587386,73.009886 16.587386,73.3386187 C16.587386,73.6673515 16.469044,73.9467701 16.2323564,74.176883 C15.9956688,74.4069959 15.7063883,74.5220507 15.3645063,74.5220507 C15.0357735,74.5220507 14.7563549,74.4069959 14.526242,74.176883 C14.2961291,73.9467701 14.1810743,73.6673515 14.1810743,73.3386187 C14.1810743,72.9967367 14.2961291,72.7074562 14.526242,72.4707686 C14.7563549,72.234081 15.0357735,72.115739 15.3645063,72.115739 C15.693239,72.115739 15.9759449,72.2406556 16.2126325,72.4904925 Z" id="social-instagram---simple-line-icons"></path>
            </g>
        </g>
    </g>
</svg>