<svg width="557px" height="459px" viewBox="0 0 557 459" version="1.1" xmlns="http://www.w3.org/2000/svg" xmlns:xlink="http://www.w3.org/1999/xlink">
    <g id="Page-1" stroke="none" stroke-width="1" fill="none" fill-rule="evenodd">
        <g id="Detail-2" transform="translate(-91.000000, -152.000000)">
            <g id="Group" transform="translate(91.000000, 151.454701)">
                <path d="M238,428.265299 L238.135948,428.265299 C238.860826,428.220143 239.665362,428.186143 240.549023,428.163299 C241.432685,428.118143 242.271207,428.095299 243.06406,428.095299 C244.287591,428.095299 245.39801,428.254143 246.394784,428.571299 C247.391558,428.866143 248.241233,429.319299 248.943807,429.931299 C249.668686,430.543299 250.224161,431.302455 250.609169,432.209299 C251.017013,433.093299 251.220935,434.124455 251.220935,435.303299 C251.220935,436.255299 251.062152,437.150455 250.745117,437.989299 C250.428083,438.828143 249.952265,439.564455 249.317664,440.199299 C248.683064,440.834143 247.867376,441.344143 246.870602,441.729299 C245.896131,442.092143 244.752257,442.273299 243.437917,442.273299 C242.350333,442.273299 241.387546,442.239299 240.549023,442.171299 L240.549023,450.705299 L238,450.705299 L238,428.265299 Z M243.267982,430.339299 C242.792164,430.339299 242.316346,430.350455 241.840529,430.373299 C241.387546,430.373299 240.956867,430.384455 240.549023,430.407299 L240.549023,439.927299 C241.364711,439.995299 242.293511,440.029299 243.335956,440.029299 C245.01247,440.029299 246.269988,439.610143 247.108511,438.771299 C247.969337,437.910143 248.400016,436.663299 248.400016,435.031299 C248.400016,434.328455 248.309207,433.694143 248.12812,433.127299 C247.947033,432.538143 247.652302,432.039299 247.244458,431.631299 C246.85945,431.223299 246.337962,430.906143 245.681057,430.679299 C245.024153,430.452455 244.219617,430.339299 243.267982,430.339299 Z M261.609799,434.555299 C262.992113,434.555299 264.181657,434.793299 265.178432,435.269299 C266.175206,435.722455 266.990894,436.346143 267.625494,437.139299 C268.282399,437.910143 268.758216,438.805299 269.052947,439.825299 C269.369982,440.822455 269.528765,441.876455 269.528765,442.987299 C269.528765,444.098143 269.369982,445.152143 269.052947,446.149299 C268.758216,447.124143 268.294082,447.985299 267.659481,448.733299 C267.024881,449.458455 266.209193,450.036455 265.212419,450.467299 C264.237948,450.898143 263.082391,451.113299 261.745747,451.113299 C260.363433,451.113299 259.162736,450.886455 258.143127,450.433299 C257.146352,449.980143 256.318982,449.379299 255.662077,448.631299 C255.005173,447.860455 254.517672,446.976455 254.200637,445.979299 C253.883602,444.982143 253.72482,443.928143 253.72482,442.817299 C253.72482,441.706455 253.883602,440.652455 254.200637,439.655299 C254.517672,438.658143 254.99349,437.785299 255.62809,437.037299 C256.284995,436.266455 257.112366,435.666143 258.10914,435.235299 C259.105914,434.782143 260.273155,434.555299 261.609799,434.555299 Z M261.71176,449.311299 C262.618256,449.311299 263.399957,449.141299 264.056861,448.801299 C264.736601,448.461299 265.291545,448.008143 265.722223,447.441299 C266.175206,446.852143 266.503924,446.183299 266.707846,445.435299 C266.911768,444.664455 267.013729,443.860143 267.013729,443.021299 C267.013729,442.160143 266.900616,441.332455 266.673859,440.539299 C266.469937,439.746143 266.141219,439.054455 265.688236,438.465299 C265.235254,437.853299 264.657475,437.366143 263.9549,437.003299 C263.275161,436.640455 262.459473,436.459299 261.507838,436.459299 C260.579037,436.459299 259.785654,436.629299 259.128749,436.969299 C258.471845,437.309299 257.928053,437.762455 257.497374,438.329299 C257.066696,438.896143 256.749661,439.564455 256.545739,440.335299 C256.341817,441.083299 256.239856,441.876455 256.239856,442.715299 C256.239856,443.576455 256.341817,444.404143 256.545739,445.197299 C256.772496,445.990455 257.100682,446.693299 257.531361,447.305299 C257.984344,447.917299 258.550971,448.404455 259.23071,448.767299 C259.933285,449.130143 260.760124,449.311299 261.71176,449.311299 Z M282.190508,434.555299 C283.346065,434.555299 284.354523,434.782143 285.215349,435.235299 C286.076176,435.688455 286.789902,436.289299 287.356529,437.037299 C287.923156,437.785299 288.342151,438.658143 288.614047,439.655299 C288.908778,440.630143 289.055878,441.661299 289.055878,442.749299 C289.055878,443.882455 288.897095,444.959299 288.58006,445.979299 C288.285329,446.976455 287.832347,447.860455 287.220581,448.631299 C286.63165,449.379299 285.883937,449.980143 284.97744,450.433299 C284.070944,450.886455 283.017348,451.113299 281.816651,451.113299 C280.298389,451.113299 279.052554,450.784455 278.078084,450.127299 C277.103613,449.470143 276.469543,448.654143 276.174813,447.679299 L276.174813,459.545299 L273.795724,459.545299 L273.795724,435.065299 L275.665008,435.065299 L275.936904,437.989299 L276.072852,437.989299 C276.344748,437.581299 276.673465,437.173299 277.058474,436.765299 C277.466318,436.334455 277.930984,435.960455 278.45194,435.643299 C278.972897,435.326143 279.539524,435.065299 280.151289,434.861299 C280.78589,434.657299 281.465629,434.555299 282.190508,434.555299 Z M281.578742,436.561299 C280.491159,436.561299 279.47155,436.856143 278.519914,437.445299 C277.591114,438.034455 276.809413,438.884455 276.174813,439.995299 L276.174813,444.993299 C276.378735,445.650455 276.673465,446.228455 277.058474,446.727299 C277.443483,447.226143 277.885314,447.656455 278.383966,448.019299 C278.904923,448.382143 279.448715,448.654143 280.015341,448.835299 C280.604272,449.016455 281.193734,449.107299 281.782664,449.107299 C282.575517,449.107299 283.266939,448.948455 283.85587,448.631299 C284.444801,448.314143 284.932301,447.872143 285.31731,447.305299 C285.725154,446.738455 286.031037,446.081299 286.234959,445.333299 C286.43888,444.585299 286.540841,443.780455 286.540841,442.919299 C286.540841,442.103299 286.43888,441.310143 286.234959,440.539299 C286.053872,439.768455 285.759141,439.088455 285.351297,438.499299 C284.943453,437.910143 284.422497,437.445299 283.787896,437.105299 C283.17613,436.742455 282.439569,436.561299 281.578742,436.561299 Z M295.554295,435.065299 L295.554295,445.401299 C295.554295,446.104143 295.633421,446.693299 295.792203,447.169299 C295.97329,447.645299 296.200047,448.030455 296.471943,448.325299 C296.766143,448.597299 297.106013,448.801299 297.491552,448.937299 C297.899396,449.050455 298.341227,449.107299 298.817045,449.107299 C299.38314,449.107299 299.938615,449.028143 300.482407,448.869299 C301.048502,448.688143 301.56999,448.427299 302.045808,448.087299 C302.521625,447.747299 302.940621,447.328143 303.303326,446.829299 C303.6655,446.330455 303.949079,445.752455 304.153,445.095299 L304.153,435.065299 L306.532089,435.065299 L306.532089,450.705299 L304.662805,450.705299 L304.390909,447.781299 L304.254961,447.781299 C303.960231,448.733299 303.303326,449.526455 302.283717,450.161299 C301.264107,450.796143 299.994906,451.113299 298.477175,451.113299 C297.751765,451.113299 297.060874,451.022455 296.403969,450.841299 C295.769368,450.660143 295.214425,450.365299 294.738607,449.957299 C294.262789,449.526455 293.87725,448.971299 293.58305,448.291299 C293.311154,447.588455 293.175206,446.727299 293.175206,445.707299 L293.175206,435.065299 L295.554295,435.065299 Z M314.414944,450.705299 L312.035855,450.705299 L312.035855,425.545299 L314.414944,425.545299 L314.414944,450.705299 Z M329.854592,450.705299 L329.582696,447.917299 L329.446748,447.917299 C329.174852,448.348143 328.812147,448.756143 328.359164,449.141299 C327.906182,449.526455 327.396377,449.866455 326.82975,450.161299 C326.285959,450.456143 325.685345,450.682455 325.02844,450.841299 C324.39384,451.022455 323.75977,451.113299 323.12517,451.113299 C321.629743,451.113299 320.508172,450.682455 319.760459,449.821299 C319.012745,448.937299 318.638888,447.838143 318.638888,446.523299 C318.638888,445.231299 318.967606,444.200143 319.624511,443.429299 C320.281415,442.658455 321.085951,442.080455 322.037586,441.695299 C322.989222,441.310143 323.985996,441.060455 325.02844,440.947299 C326.093189,440.834143 327.02252,440.777299 327.815373,440.777299 L329.344787,440.777299 L329.344787,440.369299 C329.344787,439.508143 329.219991,438.850455 328.97093,438.397299 C328.744173,437.944143 328.404303,437.558455 327.951321,437.241299 C327.566312,436.992143 327.146785,436.822143 326.693802,436.731299 C326.263124,436.618143 325.685345,436.561299 324.960467,436.561299 C324.008831,436.561299 323.170309,436.686143 322.44543,436.935299 C321.720552,437.184455 321.017977,437.513299 320.338237,437.921299 L319.794446,435.881299 C321.312708,434.997299 323.12517,434.555299 325.232362,434.555299 C326.070885,434.555299 326.863737,434.634455 327.611451,434.793299 C328.359164,434.929299 329.016069,435.178455 329.582696,435.541299 C330.2396,435.949299 330.761088,436.527299 331.146097,437.275299 C331.531106,438.023299 331.723875,438.952455 331.723875,440.063299 L331.723875,450.705299 L329.854592,450.705299 Z M323.838896,449.107299 C324.767697,449.107299 325.753319,448.812455 326.795763,448.223299 C327.838208,447.634143 328.687882,446.784143 329.344787,445.673299 L329.344787,442.511299 L329.038904,442.511299 C328.110104,442.511299 327.180772,442.545299 326.251972,442.613299 C325.323171,442.681299 324.473497,442.851299 323.702948,443.123299 C322.955235,443.395299 322.343469,443.792143 321.867651,444.313299 C321.391834,444.812143 321.153925,445.503299 321.153925,446.387299 C321.153925,447.271299 321.391834,447.951299 321.867651,448.427299 C322.366304,448.880455 323.023209,449.107299 323.838896,449.107299 Z M345.286273,437.581299 C344.923569,437.377299 344.561395,437.218455 344.19869,437.105299 C343.835985,436.969299 343.484964,436.901299 343.145094,436.901299 C342.692111,436.901299 342.261432,437.026143 341.853588,437.275299 C341.445745,437.524455 341.071888,437.864455 340.732018,438.295299 C340.392148,438.726143 340.086266,439.224455 339.81437,439.791299 C339.565309,440.358143 339.372539,440.947299 339.236591,441.559299 L339.236591,450.705299 L336.857503,450.705299 L336.857503,435.065299 L338.726786,435.065299 L338.998682,438.499299 L339.13463,438.499299 C339.293413,437.978143 339.497335,437.479299 339.746396,437.003299 C340.018292,436.527299 340.335326,436.108143 340.698031,435.745299 C341.08304,435.382455 341.513719,435.099299 341.989536,434.895299 C342.465354,434.668455 343.009146,434.555299 343.620911,434.555299 C344.05159,434.555299 344.504573,434.634455 344.980391,434.793299 C345.456208,434.929299 345.796078,435.110455 346,435.337299 L345.286273,437.581299 Z" id="Shape" fill="#FFFFFF" fill-rule="nonzero"></path>
                <path d="M509.644144,173.532001 L502.577918,173.532001 L502.577918,193.146363 L500.066226,193.146363 L500.066226,173.532001 L493,173.532001 L493,171.204874 L509.644144,171.204874 L509.644144,173.532001 Z M516.692579,177.35514 C518.654839,177.35514 520.172319,177.85381 521.245021,178.85115 C522.317722,179.826154 522.851457,181.211523 522.851457,183.006735 C522.851457,183.383335 522.830526,183.771363 522.783432,184.170299 C522.74157,184.546899 522.66308,184.824284 522.553194,185.001416 L511.265232,185.001416 L511.265232,185.333863 C511.265232,186.175888 511.376688,186.985189 511.600124,187.760725 C511.82356,188.536261 512.158452,189.223491 512.604801,189.821895 C513.05115,190.420299 513.610524,190.896633 514.280309,191.251416 C514.971024,191.606199 515.787324,191.783331 516.723976,191.783331 C517.25771,191.783331 517.786212,191.72775 518.299016,191.617108 C518.811819,191.484129 519.303692,191.328814 519.769402,191.151682 C520.240344,190.952214 520.674657,190.741838 521.077575,190.520033 C521.480492,190.298229 521.836315,190.076944 522.150276,189.85514 L522.553194,191.750086 C522.260163,191.927218 521.90434,192.126686 521.480492,192.348491 C521.056644,192.547959 520.585702,192.736518 520.072898,192.91365 C519.560094,193.090782 518.989731,193.235189 518.367041,193.345831 C517.760048,193.47881 517.126893,193.545299 516.457108,193.545299 C515.206495,193.545299 514.102397,193.334923 513.140629,192.91365 C512.18043,192.470561 511.376688,191.883065 510.729404,191.151682 C510.082121,190.397963 509.590771,189.533601 509.255879,188.558597 C508.920986,187.583593 508.75354,186.563916 508.75354,185.500086 C508.75354,184.41392 508.920986,183.383335 509.255879,182.408331 C509.613271,181.410991 510.126598,180.535721 510.796383,179.782001 C511.466167,179.028282 512.292409,178.441306 513.274585,178.020033 C514.280309,177.576944 515.415803,177.35514 516.692579,177.35514 Z M516.587926,179.216842 C515.117539,179.216842 513.966347,179.604869 513.140629,180.380406 C512.336887,181.134125 511.790071,182.086793 511.499657,183.239448 L520.643261,183.239448 C520.664192,183.128806 520.674657,183.029072 520.674657,182.940246 C520.674657,182.85142 520.674657,182.751686 520.674657,182.641044 C520.674657,182.086793 520.564771,181.59955 520.339765,181.178278 C520.119992,180.735189 519.816496,180.369497 519.43451,180.081203 C519.057756,179.79291 518.623442,179.582533 518.131569,179.449554 C517.639697,179.294239 517.126893,179.216842 516.587926,179.216842 Z M539.114661,180.646363 C538.601858,180.269763 537.864048,179.937316 536.906466,179.649023 C535.94365,179.338912 534.986068,179.183597 534.023253,179.183597 C533.04474,179.183597 532.207509,179.34982 531.511561,179.682267 C530.841776,180.014714 530.287111,180.457803 529.8371,181.012054 C529.392321,181.566306 529.067894,182.208863 528.869052,182.940246 C528.664977,183.649293 528.565556,184.392104 528.565556,185.16764 C528.565556,186.032001 528.69114,186.863118 528.931844,187.660991 C529.177781,188.458863 529.538836,189.157001 530.004546,189.755406 C530.496419,190.35381 531.087713,190.830144 531.778428,191.184927 C532.495307,191.53971 533.322072,191.716842 534.258724,191.716842 C535.153514,191.716842 536.069235,191.528282 537.005887,191.151682 C537.963469,190.775082 538.758838,190.298229 539.381529,189.722161 L539.852471,191.883065 C539.224548,192.282001 538.366386,192.658601 537.272754,193.013384 C536.200052,193.368167 535.054093,193.545299 533.824411,193.545299 C532.526703,193.545299 531.391209,193.323495 530.407463,192.880406 C529.449881,192.437316 528.644046,191.84982 527.995192,191.118437 C527.372502,190.364718 526.891095,189.500356 526.556202,188.525352 C526.242241,187.528012 526.08526,186.475091 526.08526,185.367108 C526.08526,184.303278 526.231776,183.295029 526.524806,182.341842 C526.833535,181.366838 527.314943,180.513384 527.963796,179.782001 C528.61265,179.028282 529.434183,178.441306 530.438859,178.020033 C531.443536,177.576944 532.652288,177.35514 534.059882,177.35514 C535.127351,177.35514 536.179122,177.47721 537.204729,177.720831 C538.235569,177.964452 539.057102,178.285991 539.685025,178.684927 L539.114661,180.646363 Z M554.655754,193.146363 L554.655754,183.03998 C554.655754,181.687856 554.352258,180.735189 553.750499,180.180937 C553.148739,179.604869 552.374301,179.316576 551.437649,179.316576 C550.882984,179.316576 550.323086,179.405401 549.763188,179.582533 C549.229454,179.759665 548.727115,180.025622 548.256173,180.380406 C547.790463,180.712852 547.377081,181.134125 547.016025,181.643703 C546.660202,182.131465 546.382869,182.696625 546.178795,183.339182 L546.178795,193.146363 L543.834549,193.146363 L543.834549,168.545299 L546.178795,168.545299 L546.178795,180.712852 C546.471825,179.782001 547.094515,178.995037 548.057331,178.35248 C549.041077,177.687586 550.275992,177.35514 551.772541,177.35514 C552.48942,177.35514 553.159205,177.454874 553.781895,177.654342 C554.430749,177.831474 554.990647,178.130676 555.456356,178.551948 C555.927298,178.973221 556.293587,179.526952 556.560454,180.214182 C556.853485,180.901412 557,181.743437 557,182.740778 L557,193.146363 L554.655754,193.146363 Z" id="Shape" fill="#FFFFFF" fill-rule="nonzero"></path>
                <path d="M421.466248,37.4634214 C421.466248,38.6591825 421.339954,39.7873109 421.087903,40.8477009 C420.858425,41.8855642 420.491904,42.7994783 419.987265,43.5889673 C419.505736,44.3784562 418.886628,44.99926 418.129939,45.450321 C417.39636,45.9241201 416.513377,46.1610197 415.481529,46.1610197 L415,44.299666 C415.894268,44.299666 416.605276,44.0855045 417.132486,43.6566529 C417.659696,43.2278012 418.049863,42.6752118 418.301914,41.9983559 C418.553964,41.3440795 418.714653,40.6108013 418.783443,39.7985743 C418.852233,38.9863472 418.886628,38.1966996 418.886628,37.4295786 L418.886628,18.5452991 L421.466248,18.5452991 L421.466248,37.4634214 Z M434.11391,24.8062162 C435.512816,24.8062162 436.716639,25.0431157 437.725378,25.5169149 C438.734117,25.9681345 439.559595,26.588621 440.201813,27.3782686 C440.866603,28.1453896 441.348132,29.0365655 441.6464,30.0518494 C441.967241,31.0445537 442.12793,32.0936804 442.12793,33.1992293 C442.12793,34.3047782 441.967241,35.3539048 441.6464,36.3466092 C441.348132,37.3167869 440.878426,38.1741201 440.236208,38.9186616 C439.59399,39.6406236 438.768512,40.2159511 437.759773,40.6446441 C436.773606,41.0733372 435.604178,41.2876572 434.25149,41.2876572 C432.852583,41.2876572 431.637475,41.062021 430.605627,40.6108013 C429.596888,40.1595817 428.759586,39.5616747 428.094796,38.8171332 C427.430007,38.0500122 426.936654,37.1700996 426.615814,36.1773952 C426.294974,35.1846909 426.134285,34.1355642 426.134285,33.0300153 C426.134285,31.9244664 426.294974,30.8753397 426.615814,29.8826354 C426.936654,28.889931 427.418184,28.0212817 428.060401,27.2767402 C428.725191,26.5096192 429.562493,25.9117651 430.571232,25.4830721 C431.579971,25.0318524 432.761222,24.8062162 434.11391,24.8062162 Z M434.217095,39.4939891 C435.134472,39.4939891 435.925556,39.3247751 436.590345,38.9863472 C437.278244,38.6479192 437.839849,38.1966996 438.275697,37.6326354 C438.734117,37.0460446 439.06678,36.380452 439.27315,35.6359105 C439.47952,34.8687895 439.582704,34.0678786 439.582704,33.2330721 C439.582704,32.3757389 439.468234,31.5521956 439.238755,30.7625481 C439.032385,29.9729005 438.699722,29.2847284 438.241302,28.6981376 C437.782882,28.0889673 437.198168,27.6039048 436.48716,27.2428974 C435.799262,26.88189 434.973783,26.7014127 434.010725,26.7014127 C433.070776,26.7014127 432.267869,26.8706267 431.60308,27.2090546 C430.93829,27.5474826 430.387971,27.9987022 429.952123,28.5627664 C429.516275,29.1268306 429.195434,29.7923703 428.989065,30.5594913 C428.782695,31.3040328 428.67951,32.0936804 428.67951,32.9284869 C428.67951,33.7858201 428.782695,34.6093634 428.989065,35.3990109 C429.218543,36.1886585 429.550669,36.8880939 429.986518,37.4972642 C430.444938,38.1064345 431.018366,38.5914969 431.706264,38.9525044 C432.417272,39.3135118 433.254036,39.4939891 434.217095,39.4939891 Z M453.742669,41.0169149 C453.39872,41.7388769 452.98598,42.5847881 452.504451,43.5551245 C452.022922,44.5476702 451.449494,45.4841638 450.784705,46.3640764 C450.119915,47.2439891 449.340117,47.9885306 448.445849,48.5977009 C447.551581,49.2296093 446.542842,49.5452991 445.419095,49.5452991 C445.235834,49.5452991 445.098255,49.5341945 445.006356,49.5114564 C444.914457,49.5114564 444.811272,49.4887182 444.696801,49.4437708 L444.249667,47.2101463 C444.318457,47.2328844 444.398533,47.2550938 444.490432,47.2778319 C444.582331,47.30057 444.742482,47.3116747 444.971961,47.3116747 C445.430381,47.3116747 445.854943,47.2667272 446.244573,47.1763035 C446.657312,47.0858798 447.058766,46.9055612 447.448396,46.6348188 C448.250765,46.070596 448.973059,45.2472642 449.615277,44.1642948 C450.280066,43.0813253 450.876604,41.8178786 451.403813,40.3739018 L443.492978,25.3138581 L446.347758,25.3138581 L452.642031,38.2756485 L458.2828,25.3138581 L461,25.3138581 L453.742669,41.0169149 Z" id="Shape" fill="#FFFFFF" fill-rule="nonzero"></path>
                <path d="M138,3.20487361 C138.785558,3.16056469 139.616367,3.12732001 140.491898,3.10513957 C141.390055,3.06083064 142.231913,3.03865021 143.017471,3.03865021 C144.229746,3.03865021 145.329949,3.18269318 146.317553,3.47083106 C147.305157,3.73678851 148.147014,4.13572468 148.843125,4.66763957 C149.561335,5.19955446 150.111699,5.86444808 150.493166,6.66232042 C150.897258,7.43801233 151.099304,8.33561871 151.099304,9.35513957 C151.099304,10.7735966 150.695212,12.0368945 149.887029,13.1450332 C149.078845,14.2531719 147.832896,15.0289158 146.149181,15.4721608 L154.66878,25.146363 L151.537069,25.146363 L143.219517,15.771363 C142.231913,15.771363 141.333756,15.7381183 140.525573,15.6716289 L140.525573,25.146363 L138,25.146363 L138,3.20487361 Z M143.219517,5.23279915 C142.748077,5.23279915 142.276636,5.24386339 141.805196,5.26604383 C141.356381,5.26604383 140.929664,5.27710807 140.525573,5.29928851 L140.525573,13.5107247 C140.929664,13.5550336 141.356381,13.577214 141.805196,13.577214 C142.276636,13.577214 142.770702,13.577214 143.286865,13.577214 C144.947956,13.577214 146.193905,13.2004583 147.024713,12.4468949 C147.87762,11.671203 148.304336,10.5519481 148.304336,9.08918212 C148.304336,7.93668254 147.92287,7.00583148 147.15941,6.29662893 C146.418576,5.58742639 145.105278,5.23279915 143.219517,5.23279915 Z M163.73085,9.35513957 C165.706058,9.35513957 167.232977,9.85380978 168.310555,10.8511502 C169.388133,11.8263102 169.926922,13.2115225 169.926922,15.0067353 C169.926922,15.3834911 169.904297,15.771363 169.859573,16.1702991 C169.814323,16.5470549 169.735925,16.8241285 169.623853,17.0014162 L158.275613,17.0014162 L158.275613,17.333863 C158.275613,18.1760442 158.387685,18.9850328 158.61183,19.7607247 C158.836501,20.5364166 159.173244,21.2234906 159.622585,21.8218949 C160.0714,22.4202991 160.632814,22.8967889 161.3063,23.2514162 C162.001885,23.6060434 162.821644,23.7833311 163.764524,23.7833311 C164.303313,23.7833311 164.830526,23.7279059 165.347217,23.6171077 C165.86338,23.4841289 166.357446,23.3289698 166.828886,23.1516821 C167.300326,22.952214 167.738092,22.7416817 168.142184,22.5200332 C168.546275,22.2983847 168.905117,22.0767881 169.219761,21.8551396 L169.623853,23.7500864 C169.331834,23.927374 168.972466,24.1268421 168.546275,24.3484906 C168.119559,24.5479587 167.648118,24.7363626 167.131955,24.9136502 C166.615264,25.0909379 166.042801,25.2350328 165.414565,25.3458311 C164.808428,25.4788098 164.168616,25.5452991 163.49513,25.5452991 C162.237605,25.5452991 161.126353,25.3347668 160.161374,24.9136502 C159.195869,24.4704051 158.387685,23.8830651 157.736824,23.1516821 C157.085437,22.3981187 156.591898,21.533757 156.255155,20.558597 C155.918412,19.583437 155.75004,18.5639162 155.75004,17.5000864 C155.75004,16.4140762 155.918412,15.3834911 156.255155,14.4083311 C156.613997,13.4109906 157.130687,12.5355647 157.804173,11.7820013 C158.477659,11.0284379 159.307941,10.4411498 160.296071,10.0200332 C161.3063,9.57678809 162.451227,9.35513957 163.73085,9.35513957 Z M163.629827,11.2168417 C162.148158,11.2168417 160.991656,11.6047136 160.161374,12.3804055 C159.353191,13.1339689 158.802826,14.0869485 158.511333,15.2394481 L167.704418,15.2394481 C167.726516,15.1286498 167.738092,15.0289158 167.738092,14.940246 C167.738092,14.8515762 167.738092,14.7518421 167.738092,14.6410438 C167.738092,14.0869485 167.625494,13.5993945 167.401349,13.1782779 C167.176678,12.7350328 166.87361,12.3693413 166.492143,12.0812034 C166.11015,11.7930655 165.672384,11.5825332 165.178845,11.4495545 C164.68478,11.2943953 164.168616,11.2168417 163.629827,11.2168417 Z M178.735909,11.2168417 C177.658331,11.2168417 176.872773,11.4163098 176.378707,11.815246 C175.907267,12.1920017 175.671547,12.7128523 175.671547,13.377746 C175.671547,13.5993945 175.705221,13.8321072 175.77257,14.0758843 C175.839919,14.3196613 175.963566,14.552374 176.142987,14.7740225 C176.345033,14.9734906 176.603378,15.1729587 176.917496,15.3724268 C177.254239,15.5497145 177.692005,15.6938094 178.230794,15.8046077 L180.62167,16.3365225 C181.56455,16.5359906 182.316434,16.8130123 182.877848,17.1676396 C183.46136,17.5000864 183.910702,17.8657779 184.22482,18.264714 C184.538938,18.6636502 184.740984,19.0736506 184.830957,19.4947672 C184.94303,19.8937034 184.999329,20.2704591 184.999329,20.6250864 C184.999329,21.3121604 184.853582,21.9548736 184.561563,22.5532779 C184.292168,23.1516821 183.888077,23.6725328 183.349288,24.1157779 C182.833124,24.559023 182.193312,24.902586 181.429853,25.146363 C180.666393,25.4123204 179.813486,25.5452991 178.870606,25.5452991 C177.680956,25.5452991 176.580753,25.3790757 175.570524,25.0466289 C174.560295,24.6920017 173.752112,24.3041817 173.145974,23.8830651 L173.752112,21.7221608 C174.560295,22.4535438 175.458452,22.9854587 176.446056,23.3179055 C177.43366,23.6503523 178.320768,23.8165757 179.106326,23.8165757 C180.228627,23.8165757 181.08206,23.5506183 181.665573,23.0187034 C182.249085,22.4646081 182.541105,21.8883843 182.541105,21.28998 C182.541105,21.0905119 182.530055,20.8688634 182.50743,20.6250864 C182.484806,20.3591289 182.395358,20.0931715 182.238036,19.827214 C182.080714,19.5612566 181.844994,19.3174796 181.530876,19.0958311 C181.216758,18.852054 180.767416,18.6636502 180.183904,18.5306715 L176.951171,17.7327991 C176.210336,17.5555115 175.604199,17.3227987 175.132758,17.0346608 C174.661318,16.746523 174.290901,16.4362566 174.021506,16.1038098 C173.752112,15.7491825 173.561115,15.3834911 173.449043,15.0067353 C173.336971,14.6077991 173.280672,14.208863 173.280672,13.8099268 C173.280672,12.4579591 173.785786,11.3830651 174.796015,10.5851928 C175.828869,9.76513999 177.19794,9.35513957 178.90428,9.35513957 C179.779812,9.35513957 180.722692,9.47705405 181.732922,9.72083106 C182.743151,9.94247958 183.596058,10.2749264 184.292168,10.7181715 L183.652357,12.7128523 C183.203541,12.3360966 182.530055,11.9925336 181.631899,11.6822672 C180.756367,11.3720009 179.790861,11.2168417 178.735909,11.2168417 Z M195.990832,9.35513957 C197.966566,9.35513957 199.492959,9.85380978 200.570537,10.8511502 C201.648114,11.8263102 202.186903,13.2115225 202.186903,15.0067353 C202.186903,15.3834911 202.164278,15.771363 202.119555,16.1702991 C202.074831,16.5470549 201.995907,16.8241285 201.883834,17.0014162 L190.535595,17.0014162 L190.535595,17.333863 C190.535595,18.1760442 190.647667,18.9850328 190.872338,19.7607247 C191.097008,20.5364166 191.433751,21.2234906 191.882567,21.8218949 C192.331382,22.4202991 192.892796,22.8967889 193.566282,23.2514162 C194.262393,23.6060434 195.081625,23.7833311 196.024506,23.7833311 C196.563295,23.7833311 197.091034,23.7279059 197.607198,23.6171077 C198.123362,23.4841289 198.617427,23.3289698 199.088867,23.1516821 C199.560308,22.952214 199.998074,22.7416817 200.402165,22.5200332 C200.806257,22.2983847 201.165625,22.0767881 201.479743,21.8551396 L201.883834,23.7500864 C201.591815,23.927374 201.232973,24.1268421 200.806257,24.3484906 C200.37954,24.5479587 199.9081,24.7363626 199.391936,24.9136502 C198.875772,25.0909379 198.303309,25.2350328 197.674547,25.3458311 C197.068409,25.4788098 196.428597,25.5452991 195.755111,25.5452991 C194.498113,25.5452991 193.386861,25.3347668 192.421356,24.9136502 C191.45585,24.4704051 190.647667,23.8830651 189.996806,23.1516821 C189.345945,22.3981187 188.851879,21.533757 188.515136,20.558597 C188.178393,19.583437 188.010022,18.5639162 188.010022,17.5000864 C188.010022,16.4140762 188.178393,15.3834911 188.515136,14.4083311 C188.874504,13.4109906 189.390668,12.5355647 190.064154,11.7820013 C190.73764,11.0284379 191.568449,10.4411498 192.556053,10.0200332 C193.566282,9.57678809 194.711208,9.35513957 195.990832,9.35513957 Z M195.889809,11.2168417 C194.408139,11.2168417 193.252164,11.6047136 192.421356,12.3804055 C191.613172,13.1339689 191.063334,14.0869485 190.771315,15.2394481 L199.964399,15.2394481 C199.987024,15.1286498 199.998074,15.0289158 199.998074,14.940246 C199.998074,14.8515762 199.998074,14.7518421 199.998074,14.6410438 C199.998074,14.0869485 199.886001,13.5993945 199.66133,13.1782779 C199.43666,12.7350328 199.133591,12.3693413 198.752124,12.0812034 C198.370658,11.7930655 197.932892,11.5825332 197.438827,11.4495545 C196.944761,11.2943953 196.428597,11.2168417 195.889809,11.2168417 Z M216.283282,25.146363 L216.013887,22.4202991 L215.87919,22.4202991 C215.609796,22.8414158 215.250428,23.2403519 214.801612,23.6171077 C214.352271,23.9938634 213.847156,24.3263102 213.286269,24.6144481 C212.74748,24.902586 212.152392,25.1241825 211.501531,25.2793417 C210.872768,25.4566293 210.244006,25.5452991 209.61577,25.5452991 C208.134101,25.5452991 207.022849,25.1241825 206.282014,24.2820013 C205.541179,23.4176396 205.170762,22.3427455 205.170762,21.0572672 C205.170762,19.7939694 205.49593,18.7855647 206.147317,18.0320013 C206.798178,17.2784379 207.595312,16.7132783 208.538192,16.3365225 C209.481073,15.9597668 210.468677,15.7159379 211.501531,15.6051396 C212.556484,15.4943413 213.476739,15.4389162 214.262824,15.4389162 L215.778167,15.4389162 L215.778167,15.03998 C215.778167,14.1977987 215.654519,13.5550336 215.40775,13.1117885 C215.183079,12.6685434 214.846336,12.2917357 214.397521,11.9814694 C214.015528,11.7376923 213.600387,11.5714689 213.151572,11.4827991 C212.724855,11.3720009 212.152392,11.3165757 211.434182,11.3165757 C210.491302,11.3165757 209.660494,11.4384902 208.942284,11.6822672 C208.223548,11.9260442 207.527963,12.2474268 206.854477,12.646363 L206.315688,10.6516821 C207.819456,9.78732042 209.61577,9.35513957 211.703577,9.35513957 C212.533859,9.35513957 213.319943,9.43269318 214.060778,9.58785234 C214.801612,9.72083106 215.452474,9.96460807 216.013887,10.3192353 C216.664748,10.7181715 217.180912,11.2833311 217.562905,12.014714 C217.944372,12.746097 218.135368,13.6547676 218.135368,14.7407779 L218.135368,25.146363 L216.283282,25.146363 Z M210.32293,23.583863 C211.243186,23.583863 212.219741,23.2957251 213.252595,22.7195013 C214.284922,22.1432775 215.12678,21.3121604 215.778167,20.2261502 L215.778167,17.1343949 L215.475098,17.1343949 C214.554317,17.1343949 213.634061,17.1676396 212.71328,17.2341289 C211.793024,17.3006183 210.951166,17.4668417 210.188233,17.7327991 C209.447398,17.9987566 208.841261,18.3866285 208.369821,18.896363 C207.898381,19.3839689 207.66266,20.0599268 207.66266,20.9242885 C207.66266,21.7886502 207.898381,22.4535438 208.369821,22.9189694 C208.86336,23.3622145 209.514747,23.583863 210.32293,23.583863 Z M231.572993,12.3139162 C231.213625,12.1144481 230.854258,11.9592889 230.49489,11.8484906 C230.136048,11.7155119 229.788255,11.6490225 229.451512,11.6490225 C229.002171,11.6490225 228.575981,11.770937 228.171889,12.014714 C227.767797,12.2584911 227.39738,12.5909379 227.060637,13.0120545 C226.723894,13.4331711 226.420825,13.9207251 226.151431,14.4748204 C225.904135,15.0289158 225.713665,15.6051396 225.578968,16.2035438 L225.578968,25.146363 L223.221766,25.146363 L223.221766,9.85380978 L225.073853,9.85380978 L225.343248,13.2115225 L225.477945,13.2115225 C225.634741,12.7017881 225.836787,12.2141821 226.084082,11.7487566 C226.353477,11.2833311 226.667595,10.8733306 227.026963,10.5187034 C227.408429,10.1640762 227.835146,9.88705446 228.306586,9.68758638 C228.778026,9.46593786 229.316815,9.35513957 229.922953,9.35513957 C230.349143,9.35513957 230.798484,9.43269318 231.269925,9.58785234 C231.741365,9.72083106 232.078108,9.89811871 232.280154,10.1197672 L231.572993,12.3139162 Z M247.017923,12.646363 C246.501233,12.2696072 245.760398,11.9371604 244.795419,11.6490225 C243.829913,11.3387562 242.864408,11.183597 241.899429,11.183597 C240.911298,11.183597 240.069441,11.3498204 239.373856,11.6822672 C238.70037,12.014714 238.138956,12.4579591 237.690141,13.0120545 C237.240799,13.5661498 236.915632,14.208863 236.713586,14.940246 C236.51154,15.6494485 236.410517,16.3919477 236.410517,17.1676396 C236.410517,18.0320013 236.533639,18.8631183 236.780935,19.6609906 C237.027704,20.458863 237.387072,21.1570013 237.858512,21.7554055 C238.352051,22.3538098 238.947139,22.8302996 239.64325,23.1849268 C240.36146,23.539554 241.192268,23.7168417 242.135149,23.7168417 C243.032779,23.7168417 243.953561,23.5284379 244.896442,23.1516821 C245.861421,22.7749264 246.658555,22.2983847 247.287317,21.7221608 L247.758757,23.8830651 C247.129995,24.2820013 246.265512,24.658757 245.165836,25.0133843 C244.088258,25.3680115 242.931757,25.5452991 241.697383,25.5452991 C240.395134,25.5452991 239.250208,25.3236506 238.262604,24.8804055 C237.297099,24.4371604 236.488915,23.8498204 235.838054,23.1184374 C235.209292,22.364874 234.726802,21.5005123 234.390059,20.5253523 C234.075415,19.5280119 233.918619,18.4752464 233.918619,17.3671077 C233.918619,16.3032779 234.064366,15.2948732 234.356385,14.3418417 C234.670503,13.3666817 235.152993,12.5133843 235.80438,11.7820013 C236.455241,11.0284379 237.286049,10.4411498 238.296278,10.0200332 C239.306507,9.57678809 240.518782,9.35513957 241.933103,9.35513957 C243.010681,9.35513957 244.065633,9.47705405 245.098487,9.72083106 C246.130815,9.96460807 246.961623,10.2859906 247.590386,10.6849268 L247.017923,12.646363 Z M262.642799,25.146363 L262.642799,15.03998 C262.642799,13.6880123 262.33973,12.7350328 261.733593,12.1809374 C261.127455,11.6047136 260.352946,11.3165757 259.410066,11.3165757 C258.848652,11.3165757 258.287238,11.4052455 257.726351,11.5825332 C257.187562,11.7598208 256.682447,12.0257783 256.211007,12.3804055 C255.739567,12.7128523 255.3239,13.1339689 254.965058,13.6437034 C254.60569,14.1313094 254.325246,14.6964689 254.1232,15.3391821 L254.1232,25.146363 L251.765999,25.146363 L251.765999,0.545299145 L254.1232,0.545299145 L254.1232,12.7128523 C254.414694,11.7820013 255.043456,10.9951932 256.008961,10.35248 C256.996565,9.68758638 258.242515,9.35513957 259.746809,9.35513957 C260.465019,9.35513957 261.138505,9.45487361 261.767267,9.6543417 C262.418128,9.83162935 262.979542,10.1308315 263.450982,10.5519481 C263.922422,10.9730647 264.29284,11.5271081 264.562234,12.2141821 C264.853727,12.9012562 265,13.7434374 265,14.7407779 L265,25.146363 L262.642799,25.146363 Z" id="Shape" fill="#FFFFFF" fill-rule="nonzero"></path>
                <path d="M2.53929219,131.928278 L14.5924658,131.928278 L14.5924658,122.22615 L17.131758,122.22615 L17.131758,144.694235 L14.5924658,144.694235 L14.5924658,134.311257 L2.53929219,134.311257 L2.53929219,144.694235 L0,144.694235 L0,122.22615 L2.53929219,122.22615 L2.53929219,131.928278 Z M32.6836,144.694235 L32.4127422,141.902746 L32.2773133,141.902746 C32.0064555,142.334129 31.6452941,142.74264 31.193882,143.128278 C30.7424699,143.513916 30.2346114,143.854342 29.6703067,144.149554 C29.128591,144.444767 28.530429,144.671363 27.8758735,144.830406 C27.2438543,145.011789 26.6118879,145.102746 25.9798687,145.102746 C24.4901506,145.102746 23.372862,144.671363 22.628003,143.809129 C21.8831439,142.924023 21.5107144,141.823491 21.5107144,140.507001 C21.5107144,139.213384 21.8380186,138.180937 22.4925741,137.409129 C23.1471295,136.63732 23.9484349,136.058597 24.8964373,135.672959 C25.8444398,135.28732 26.8375675,135.03732 27.8758735,134.924023 C28.9367157,134.810725 29.8621819,134.75381 30.6521663,134.75381 L32.1757416,134.75381 L32.1757416,134.345299 C32.1757416,133.483065 32.0515808,132.824554 31.8033121,132.370831 C31.5775796,131.917108 31.2390073,131.530937 30.7875952,131.213384 C30.4038976,130.963916 29.9862898,130.793703 29.5348777,130.702746 C29.1060019,130.589448 28.530429,130.532533 27.808159,130.532533 C26.8601566,130.532533 26.024994,130.657533 25.3027241,130.907001 C24.5804542,131.156469 23.8807205,131.485725 23.2035759,131.894235 L22.6618602,129.851682 C24.1741674,128.966576 25.9798687,128.524023 28.0790169,128.524023 C28.9141795,128.524023 29.7041639,128.603278 30.4490229,128.76232 C31.193882,128.898491 31.8484374,129.147959 32.4127422,129.511257 C33.0672977,129.919767 33.5864771,130.498491 33.9701748,131.247427 C34.3538724,131.996363 34.5457477,132.926682 34.5457477,134.038916 L34.5457477,144.694235 L32.6836,144.694235 Z M26.6908705,143.094235 C27.6162838,143.094235 28.5981434,142.799023 29.6364494,142.209129 C30.6747554,141.619235 31.5211861,140.768171 32.1757416,139.655937 L32.1757416,136.48998 L31.8710265,136.48998 C30.9456133,136.48998 30.0201471,136.524023 29.0947338,136.592108 C28.1693205,136.660193 27.3228897,136.830406 26.5554416,137.102746 C25.8105825,137.375086 25.2011524,137.772427 24.7271512,138.294235 C24.25315,138.793703 24.0161494,139.485725 24.0161494,140.370831 C24.0161494,141.255937 24.25315,141.936789 24.7271512,142.413384 C25.2237415,142.867108 25.878297,143.094235 26.6908705,143.094235 Z M48.0225119,128.524023 C49.1736577,128.524023 50.1780007,128.75115 51.0360698,129.204874 C51.8936099,129.658597 52.6046118,130.260193 53.1690753,131.009129 C53.7330097,131.758065 54.1509349,132.632001 54.4212637,133.630406 C54.7148694,134.606469 54.8619367,135.638916 54.8619367,136.728278 C54.8619367,137.862852 54.70376,138.941044 54.3879355,139.96232 C54.0943298,140.960725 53.6430765,141.845831 53.0336463,142.61764 C52.446435,143.366576 51.701576,143.968171 50.7990692,144.421895 C49.8960334,144.875618 48.8463535,145.102746 47.6500824,145.102746 C46.1377752,145.102746 44.8963787,144.773491 43.9257872,144.115512 C42.9551956,143.457533 42.3232293,142.640512 42.0297824,141.664448 L42.0297824,153.545299 L39.6597763,153.545299 L39.6597763,129.034661 L41.5219239,129.034661 L41.7927817,131.96232 L41.9282107,131.96232 C42.1990685,131.55381 42.5263727,131.145299 42.9100703,130.736789 C43.3163571,130.305406 43.7790902,129.930937 44.2982167,129.613384 C44.8173433,129.295831 45.381648,129.034661 45.9910782,128.830406 C46.6230974,128.62615 47.300242,128.524023 48.0225119,128.524023 Z M47.4130818,130.532533 C46.3296505,130.532533 45.3139336,130.827746 44.3659312,131.41764 C43.4405179,132.007533 42.6618016,132.858597 42.0297824,133.970831 L42.0297824,138.975086 C42.2329257,139.633065 42.5263727,140.211789 42.9100703,140.711257 C43.2937679,141.210725 43.7339119,141.641576 44.2305022,142.004874 C44.7496288,142.368171 45.2913445,142.640512 45.8556492,142.821895 C46.4424903,143.003278 47.0293842,143.094235 47.6162252,143.094235 C48.4062095,143.094235 49.0946751,142.935193 49.6817807,142.61764 C50.2684629,142.300086 50.7535736,141.857533 51.1376415,141.28998 C51.5439283,140.722427 51.8486433,140.064448 52.0517867,139.315512 C52.2549301,138.566576 52.3565018,137.760725 52.3565018,136.898491 C52.3565018,136.081469 52.2549301,135.28732 52.0517867,134.515512 C51.8708621,133.743703 51.5777855,133.062852 51.1714987,132.472959 C50.765212,131.883065 50.2457151,131.41764 49.6140662,131.077214 C49.0043716,130.713916 48.2707806,130.532533 47.4130818,130.532533 Z M67.4970314,128.524023 C68.6481772,128.524023 69.6527847,128.75115 70.5103248,129.204874 C71.3678649,129.658597 72.0788668,130.260193 72.6433302,131.009129 C73.2077937,131.758065 73.6251899,132.632001 73.8960477,133.630406 C74.1896534,134.606469 74.3361917,135.638916 74.3361917,136.728278 C74.3361917,137.862852 74.178015,138.941044 73.8621905,139.96232 C73.5685848,140.960725 73.1173315,141.845831 72.5079013,142.61764 C71.921219,143.366576 71.17636,143.968171 70.2733242,144.421895 C69.3702884,144.875618 68.3207143,145.102746 67.1246019,145.102746 C65.612136,145.102746 64.3710569,144.773491 63.4003067,144.115512 C62.4295564,143.457533 61.7979075,142.640512 61.5043019,141.664448 L61.5043019,153.545299 L59.1342958,153.545299 L59.1342958,129.034661 L60.9964434,129.034661 L61.2673013,131.96232 L61.4027302,131.96232 C61.673588,131.55381 62.0010509,131.145299 62.3845898,130.736789 C62.7908766,130.305406 63.2537684,129.930937 63.7727362,129.613384 C64.291704,129.295831 64.8561675,129.034661 65.4655977,128.830406 C66.0977756,128.62615 66.7749202,128.524023 67.4970314,128.524023 Z M66.8876013,130.532533 C65.80417,130.532533 64.7884531,130.827746 63.8404507,131.41764 C62.9151961,132.007533 62.1364798,132.858597 61.5043019,133.970831 L61.5043019,138.975086 C61.7074452,139.633065 62.0010509,140.211789 62.3845898,140.711257 C62.7681287,141.210725 63.2082727,141.641576 63.7050218,142.004874 C64.2239896,142.368171 64.7657053,142.640512 65.3301687,142.821895 C65.916851,143.003278 66.5040624,143.094235 67.0907447,143.094235 C67.8805703,143.094235 68.5693533,142.935193 69.1560356,142.61764 C69.7427179,142.300086 70.2283576,141.857533 70.6118965,141.28998 C71.0181832,140.722427 71.3228983,140.064448 71.5260417,139.315512 C71.7291851,138.566576 71.8307567,137.760725 71.8307567,136.898491 C71.8307567,136.081469 71.7291851,135.28732 71.5260417,134.515512 C71.3456461,133.743703 71.0520405,133.062852 70.6457537,132.472959 C70.239467,131.883065 69.7204991,131.41764 69.0883212,131.077214 C68.4788911,130.713916 67.7451414,130.532533 66.8876013,130.532533 Z M80.9790859,144.694235 L78.6090798,144.694235 L78.6090798,129.034661 L80.9790859,129.034661 L80.9790859,144.694235 Z M78.1012214,123.315512 C78.1012214,122.861789 78.2588691,122.453278 78.5752226,122.08998 C78.9137949,121.726682 79.3200816,121.545299 79.7940828,121.545299 C80.2453362,121.545299 80.651623,121.726682 81.0129431,122.08998 C81.3737342,122.453278 81.5546588,122.861789 81.5546588,123.315512 C81.5546588,123.792108 81.3737342,124.200618 81.0129431,124.541044 C80.651623,124.858597 80.2453362,125.01764 79.7940828,125.01764 C79.3200816,125.01764 78.9137949,124.858597 78.5752226,124.541044 C78.2588691,124.200618 78.1012214,123.792108 78.1012214,123.315512 Z M97.1824151,144.694235 L97.1824151,134.345299 C97.1824151,132.983597 96.8777001,132.007533 96.2682699,131.41764 C95.6588398,130.827746 94.8801235,130.532533 93.9321211,130.532533 C93.3676576,130.532533 92.8037232,130.623491 92.2392597,130.804874 C91.697544,130.986257 91.1896856,131.258597 90.7156843,131.621895 C90.2416831,131.96232 89.824287,132.393703 89.4629669,132.915512 C89.1016468,133.41498 88.8196795,133.993703 88.6165361,134.651682 L88.6165361,144.694235 L86.2465301,144.694235 L86.2465301,129.034661 L88.1086777,129.034661 L88.3795355,131.96232 L88.5149645,131.96232 C88.8085701,131.009129 89.4629669,130.203278 90.4786837,129.545299 C91.4944006,128.864448 92.7582275,128.524023 94.2706934,128.524023 C94.9928046,128.524023 95.6699492,128.62615 96.3021272,128.830406 C96.9565239,129.011789 97.5209874,129.318171 97.9949886,129.749554 C98.4689898,130.180937 98.8414193,130.747959 99.1122772,131.451682 C99.4058828,132.155406 99.5524212,133.01764 99.5524212,134.038916 L99.5524212,144.694235 L97.1824151,144.694235 Z M111.670664,128.524023 C113.657131,128.524023 115.191816,129.034661 116.275247,130.055937 C117.358679,131.054342 117.900394,132.472959 117.900394,134.311257 C117.900394,134.696895 117.877646,135.094235 117.83268,135.502746 C117.787713,135.888384 117.70836,136.172427 117.595679,136.35381 L106.185793,136.35381 L106.185793,136.694235 C106.185793,137.556469 106.298474,138.385193 106.524365,139.179342 C106.750256,139.973491 107.088829,140.677214 107.540082,141.28998 C107.991336,141.902746 108.555799,142.390512 109.232944,142.75381 C109.932836,143.117108 110.756519,143.298491 111.704521,143.298491 C112.246237,143.298491 112.776843,143.241576 113.295811,143.128278 C113.814779,142.992108 114.311528,142.833065 114.785529,142.651682 C115.25953,142.447427 115.699674,142.232001 116.105961,142.004874 C116.512248,141.777746 116.873568,141.55115 117.189392,141.324023 L117.595679,143.264448 C117.302074,143.445831 116.941282,143.650086 116.512248,143.877214 C116.083213,144.081469 115.609212,144.274554 115.090244,144.455937 C114.571276,144.63732 113.995704,144.785193 113.363526,144.898491 C112.754095,145.034661 112.110808,145.102746 111.433663,145.102746 C110.169837,145.102746 109.052548,144.88732 108.081798,144.455937 C107.111048,144.002214 106.298474,143.400618 105.644077,142.651682 C104.989681,141.879874 104.492932,140.994767 104.154359,139.996363 C103.815787,138.997959 103.646501,137.95381 103.646501,136.864448 C103.646501,135.752214 103.815787,134.696895 104.154359,133.698491 C104.515679,132.677214 105.034647,131.780937 105.711792,131.009129 C106.388936,130.23732 107.224258,129.636257 108.217227,129.204874 C109.232944,128.75115 110.384089,128.524023 111.670664,128.524023 Z M111.569092,130.430406 C110.079374,130.430406 108.917119,130.827746 108.081798,131.621895 C107.269224,132.393703 106.716399,133.369235 106.422794,134.549554 L115.665817,134.549554 C115.688565,134.436257 115.699674,134.334129 115.699674,134.243171 C115.699674,134.152214 115.699674,134.050086 115.699674,133.936789 C115.699674,133.369235 115.586993,132.870299 115.361102,132.438916 C115.135211,131.985193 114.830496,131.610725 114.446957,131.315512 C114.063418,131.020299 113.623274,130.804874 113.126525,130.668703 C112.629776,130.509661 112.110808,130.430406 111.569092,130.430406 Z M126.757763,130.430406 C125.674331,130.430406 124.883977,130.634661 124.387757,131.043171 C123.913756,131.42881 123.676755,131.96232 123.676755,132.643171 C123.676755,132.870299 123.710612,133.108597 123.777798,133.358065 C123.846041,133.607533 123.969832,133.845831 124.150756,134.072959 C124.3539,134.277214 124.613119,134.481469 124.929472,134.685725 C125.268045,134.867108 125.708189,135.01498 126.249904,135.128278 L128.653768,135.672959 C129.60177,135.877214 130.357739,136.160725 130.922202,136.524023 C131.508884,136.864448 131.960138,137.238916 132.276491,137.647427 C132.592316,138.055937 132.795459,138.475618 132.885921,138.907001 C132.998602,139.315512 133.055207,139.70115 133.055207,140.064448 C133.055207,140.768171 132.90814,141.42615 132.615063,142.038916 C132.344206,142.651682 131.937919,143.185193 131.396203,143.638916 C130.876706,144.09264 130.233419,144.444767 129.466341,144.694235 C128.698734,144.966576 127.841194,145.102746 126.893192,145.102746 C125.69655,145.102746 124.5909,144.932533 123.575183,144.592108 C122.559466,144.22881 121.746893,143.832001 121.137463,143.400618 L121.746893,141.187852 C122.559466,141.936789 123.461973,142.481469 124.455471,142.821895 C125.44844,143.16232 126.339838,143.332533 127.130192,143.332533 C128.25859,143.332533 129.11613,143.060193 129.703342,142.515512 C130.290024,141.947959 130.58363,141.358065 130.58363,140.745299 C130.58363,140.541044 130.571991,140.313916 130.549772,140.064448 C130.527025,139.792108 130.436562,139.519767 130.278915,139.247427 C130.120738,138.975086 129.883737,138.725618 129.567913,138.498491 C129.251559,138.249023 128.800306,138.055937 128.213624,137.919767 L124.96333,137.102746 C124.218471,136.921363 123.609041,136.683065 123.135039,136.387852 C122.661038,136.09264 122.288609,135.775086 122.017751,135.434661 C121.746893,135.071363 121.554859,134.696895 121.442178,134.311257 C121.328968,133.902746 121.272892,133.494235 121.272892,133.085725 C121.272892,131.70115 121.78075,130.600618 122.796467,129.783597 C123.834403,128.943703 125.21144,128.524023 126.927049,128.524023 C127.807337,128.524023 128.755339,128.649023 129.771056,128.898491 C130.786773,129.125618 131.644313,129.466044 132.344206,129.919767 L131.700918,131.96232 C131.249136,131.576682 130.571991,131.224554 129.669485,130.907001 C128.789197,130.589448 127.818446,130.430406 126.757763,130.430406 Z M141.702555,130.430406 C140.619124,130.430406 139.828769,130.634661 139.332549,131.043171 C138.858548,131.42881 138.621548,131.96232 138.621548,132.643171 C138.621548,132.870299 138.655405,133.108597 138.72259,133.358065 C138.790834,133.607533 138.914624,133.845831 139.095549,134.072959 C139.298692,134.277214 139.557912,134.481469 139.874265,134.685725 C140.212837,134.867108 140.652981,135.01498 141.194697,135.128278 L143.59856,135.672959 C144.546563,135.877214 145.302531,136.160725 145.866995,136.524023 C146.453677,136.864448 146.90493,137.238916 147.221284,137.647427 C147.537108,138.055937 147.740252,138.475618 147.830714,138.907001 C147.943395,139.315512 148,139.70115 148,140.064448 C148,140.768171 147.852933,141.42615 147.559856,142.038916 C147.288998,142.651682 146.882711,143.185193 146.340996,143.638916 C145.821499,144.09264 145.178212,144.444767 144.411134,144.694235 C143.643527,144.966576 142.785987,145.102746 141.837984,145.102746 C140.641343,145.102746 139.535693,144.932533 138.519976,144.592108 C137.504259,144.22881 136.691685,143.832001 136.082255,143.400618 L136.691685,141.187852 C137.504259,141.936789 138.406766,142.481469 139.400264,142.821895 C140.393233,143.16232 141.28463,143.332533 142.074985,143.332533 C143.203383,143.332533 144.060923,143.060193 144.648134,142.515512 C145.234817,141.947959 145.528422,141.358065 145.528422,140.745299 C145.528422,140.541044 145.516784,140.313916 145.494565,140.064448 C145.471817,139.792108 145.381355,139.519767 145.223707,139.247427 C145.06553,138.975086 144.82853,138.725618 144.512705,138.498491 C144.196352,138.249023 143.745099,138.055937 143.158416,137.919767 L139.908122,137.102746 C139.163263,136.921363 138.553833,136.683065 138.079832,136.387852 C137.605831,136.09264 137.233401,135.775086 136.962543,135.434661 C136.691685,135.071363 136.499651,134.696895 136.38697,134.311257 C136.27376,133.902746 136.217684,133.494235 136.217684,133.085725 C136.217684,131.70115 136.725543,130.600618 137.74126,129.783597 C138.779195,128.943703 140.156232,128.524023 141.871842,128.524023 C142.752129,128.524023 143.700132,128.649023 144.715849,128.898491 C145.731566,129.125618 146.589106,129.466044 147.288998,129.919767 L146.645711,131.96232 C146.193928,131.576682 145.516784,131.224554 144.614277,130.907001 C143.733989,130.589448 142.763239,130.430406 141.702555,130.430406 Z" id="Shape" fill="#FFFFFF" fill-rule="nonzero"></path>
                <path d="M224.522491,166.577214 C225.150486,166.155942 225.710689,165.735189 226.204152,165.313916 C226.719686,164.892644 227.303012,164.372157 227.953079,163.751416 C229.051939,162.687586 230.161835,161.501686 231.282767,160.194235 C232.403699,158.864448 233.435292,157.534661 234.377022,156.204874 L237.269479,156.204874 C236.731347,156.98041 236.136985,157.778282 235.486918,158.598491 C234.858923,159.396363 234.208856,160.194235 233.536192,160.992108 C232.863528,161.767644 232.190863,162.510455 231.518199,163.219501 C230.868132,163.928548 230.251173,164.571625 229.668373,165.147693 C229.421904,165.391314 229.186472,165.613118 228.962075,165.812586 C228.760276,166.012054 228.558476,166.200614 228.356677,166.377746 L238.64844,178.146363 L235.520552,178.146363 L226.506851,167.973491 L224.522491,169.469501 L224.522491,178.146363 L222,178.146363 L222,156.204874 L224.522491,156.204874 L224.522491,166.577214 Z M243.749127,178.146363 L241.394802,178.146363 L241.394802,162.85381 L243.749127,162.85381 L243.749127,178.146363 Z M240.890304,157.268703 C240.890304,156.825614 241.047434,156.426678 241.361169,156.071895 C241.697501,155.717112 242.1011,155.53998 242.571965,155.53998 C243.020232,155.53998 243.423831,155.717112 243.78276,156.071895 C244.14169,156.426678 244.320892,156.825614 244.320892,157.268703 C244.320892,157.734129 244.14169,158.133065 243.78276,158.465512 C243.423831,158.775622 243.020232,158.930937 242.571965,158.930937 C242.1011,158.930937 241.697501,158.775622 241.361169,158.465512 C241.047434,158.133065 240.890304,157.734129 240.890304,157.268703 Z M259.845773,178.146363 L259.845773,168.03998 C259.845773,166.710193 259.543074,165.757005 258.937676,165.180937 C258.332278,164.604869 257.558714,164.316576 256.616984,164.316576 C256.056256,164.316576 255.495527,164.405401 254.935324,164.582533 C254.397192,164.759665 253.892694,165.025622 253.421829,165.380406 C252.950964,165.712852 252.535804,166.134125 252.1774,166.643703 C251.818471,167.131465 251.538369,167.696625 251.33657,168.339182 L251.33657,178.146363 L248.982245,178.146363 L248.982245,162.85381 L250.832072,162.85381 L251.101137,165.712852 L251.23567,165.712852 C251.526808,164.782001 252.1774,163.995037 253.186397,163.35248 C254.195393,162.687586 255.450858,162.35514 256.953316,162.35514 C257.67065,162.35514 258.343314,162.454874 258.971309,162.654342 C259.621376,162.831474 260.182105,163.130676 260.65297,163.551948 C261.123835,163.973221 261.4938,164.526952 261.762866,165.214182 C262.054003,165.901412 262.200098,166.743437 262.200098,167.740778 L262.200098,178.146363 L259.845773,178.146363 Z M273.094105,178.545299 C271.951102,178.545299 270.953141,178.323495 270.101275,177.880406 C269.248883,177.437316 268.542586,176.84982 267.982383,176.118437 C267.421654,175.387054 266.995458,174.545029 266.704321,173.591842 C266.435255,172.616838 266.300722,171.597161 266.300722,170.533331 C266.300722,169.447165 266.446291,168.405671 266.737954,167.408331 C267.051689,166.410991 267.499956,165.546629 268.083282,164.815246 C268.68868,164.061527 269.439647,163.463122 270.336707,163.020033 C271.233243,162.576944 272.275872,162.35514 273.464596,162.35514 C274.966529,162.35514 276.199922,162.676678 277.16425,163.319235 C278.128051,163.961793 278.756047,164.759665 279.04771,165.712852 L279.04771,153.545299 L281.402035,153.545299 L281.402035,178.146363 L279.552208,178.146363 L279.283142,175.420299 L279.148609,175.420299 C278.610478,176.240508 277.825353,176.971891 276.794284,177.614448 C275.762691,178.235189 274.529298,178.545299 273.094105,178.545299 Z M273.363697,176.583863 C274.439959,176.583863 275.493625,176.295569 276.525219,175.719501 C277.578884,175.143433 278.419714,174.312316 279.04771,173.22615 L279.04771,168.339182 C278.644111,167.075884 277.959885,166.089452 276.996084,165.380406 C276.054354,164.671359 274.989127,164.316576 273.800928,164.316576 C273.015803,164.316576 272.309506,164.471891 271.682036,164.782001 C271.076638,165.092112 270.560579,165.524293 270.134908,166.078544 C269.708712,166.632795 269.37238,167.297689 269.125386,168.073225 C268.901515,168.848761 268.78958,169.702214 268.78958,170.633065 C268.78958,171.342112 268.867882,172.051678 269.025012,172.760725 C269.181617,173.469771 269.439647,174.112848 269.798576,174.688916 C270.15698,175.243167 270.627845,175.697165 271.211171,176.051948 C271.793972,176.406731 272.511305,176.583863 273.363697,176.583863 Z M297.51865,178.146363 L297.51865,168.03998 C297.51865,166.710193 297.215951,165.757005 296.610553,165.180937 C296.005155,164.604869 295.231591,164.316576 294.289861,164.316576 C293.729133,164.316576 293.168929,164.405401 292.608201,164.582533 C292.070069,164.759665 291.565571,165.025622 291.094706,165.380406 C290.623841,165.712852 290.209207,166.134125 289.850277,166.643703 C289.491348,167.131465 289.211246,167.696625 289.009447,168.339182 L289.009447,178.146363 L286.655122,178.146363 L286.655122,162.85381 L288.504949,162.85381 L288.774014,165.712852 L288.908547,165.712852 C289.20021,164.782001 289.850277,163.995037 290.859274,163.35248 C291.86827,162.687586 293.123735,162.35514 294.626193,162.35514 C295.343527,162.35514 296.016191,162.454874 296.644186,162.654342 C297.294253,162.831474 297.854982,163.130676 298.325847,163.551948 C298.796712,163.973221 299.166677,164.526952 299.435743,165.214182 C299.727406,165.901412 299.872975,166.743437 299.872975,167.740778 L299.872975,178.146363 L297.51865,178.146363 Z M311.911037,162.35514 C313.884361,162.35514 315.408891,162.85381 316.485154,163.85115 C317.561417,164.826154 318.099548,166.211523 318.099548,168.006735 C318.099548,168.383335 318.076951,168.771363 318.032282,169.170299 C317.987613,169.546899 317.908785,169.824284 317.796849,170.001416 L306.462457,170.001416 L306.462457,170.333863 C306.462457,171.175888 306.574392,171.985189 306.798789,172.760725 C307.023185,173.536261 307.359518,174.223491 307.807785,174.821895 C308.256053,175.420299 308.816782,175.896633 309.489446,176.251416 C310.184707,176.606199 311.00294,176.783331 311.94467,176.783331 C312.482802,176.783331 313.009897,176.72775 313.525431,176.617108 C314.040965,176.484129 314.534428,176.328814 315.005293,176.151682 C315.476158,175.952214 315.913389,175.741838 316.316988,175.520033 C316.720587,175.298229 317.079516,175.076944 317.393251,174.85514 L317.796849,176.750086 C317.505186,176.927218 317.146782,177.126686 316.720587,177.348491 C316.294391,177.547959 315.823526,177.736518 315.307992,177.91365 C314.792458,178.090782 314.220693,178.235189 313.592698,178.345831 C312.9873,178.47881 312.348269,178.545299 311.675605,178.545299 C310.42014,178.545299 309.310244,178.334923 308.345917,177.91365 C307.381589,177.470561 306.574392,176.883065 305.924325,176.151682 C305.274258,175.397963 304.780796,174.533601 304.444464,173.558597 C304.108132,172.583593 303.939966,171.563916 303.939966,170.500086 C303.939966,169.41392 304.108132,168.383335 304.444464,167.408331 C304.803393,166.410991 305.318927,165.535721 305.991592,164.782001 C306.664256,164.028282 307.49405,163.441306 308.480449,163.020033 C309.489446,162.576944 310.632975,162.35514 311.911037,162.35514 Z M311.810138,164.216842 C310.330276,164.216842 309.175711,164.604869 308.345917,165.380406 C307.538719,166.134125 306.989552,167.086793 306.697889,168.239448 L315.879756,168.239448 C315.902354,168.128806 315.913389,168.029072 315.913389,167.940246 C315.913389,167.85142 315.913389,167.751686 315.913389,167.641044 C315.913389,167.086793 315.801454,166.59955 315.577057,166.178278 C315.352661,165.735189 315.049962,165.369497 314.668961,165.081203 C314.287959,164.79291 313.850728,164.582533 313.357265,164.449554 C312.863803,164.294239 312.348269,164.216842 311.810138,164.216842 Z M326.898312,164.216842 C325.822049,164.216842 325.036924,164.41631 324.543987,164.815246 C324.073122,165.191846 323.83769,165.712852 323.83769,166.377746 C323.83769,166.59955 323.871323,166.832263 323.938064,167.075884 C324.005856,167.319505 324.128827,167.552218 324.308555,167.774023 C324.510354,167.973491 324.767858,168.172959 325.082119,168.372427 C325.418451,168.549559 325.855682,168.693965 326.393814,168.804608 L328.781772,169.336523 C329.723502,169.535991 330.474469,169.812856 331.035197,170.16764 C331.617998,170.500086 332.066265,170.865778 332.380526,171.264714 C332.694261,171.66365 332.89606,172.073495 332.985924,172.494767 C333.097859,172.893703 333.15409,173.270303 333.15409,173.625086 C333.15409,174.312316 333.007995,174.954874 332.716858,175.553278 C332.447792,176.151682 332.044194,176.672689 331.506062,177.115778 C330.990003,177.558867 330.350972,177.902742 329.588969,178.146363 C328.826441,178.41232 327.974575,178.545299 327.032845,178.545299 C325.844121,178.545299 324.745786,178.379076 323.73679,178.046629 C322.727794,177.691846 321.920597,177.304338 321.315199,176.883065 L321.920597,174.722161 C322.727794,175.453544 323.624329,175.985459 324.611254,176.317906 C325.597653,176.650352 326.483152,176.816576 327.268277,176.816576 C328.389209,176.816576 329.241076,176.550618 329.824402,176.018703 C330.407202,175.464452 330.698865,174.888384 330.698865,174.28998 C330.698865,174.090512 330.687304,173.868708 330.665232,173.625086 C330.642635,173.359129 330.552771,173.093171 330.396166,172.827214 C330.239036,172.561257 330.003604,172.317635 329.689869,172.095831 C329.375608,171.85221 328.927341,171.66365 328.34454,171.530671 L325.115752,170.732799 C324.375821,170.555667 323.770423,170.322955 323.299558,170.034661 C322.828693,169.746367 322.458728,169.436257 322.189662,169.10381 C321.920597,168.749027 321.729833,168.383335 321.617898,168.006735 C321.505437,167.607799 321.449732,167.208863 321.449732,166.809927 C321.449732,165.457803 321.95423,164.383065 322.963226,163.585193 C323.994294,162.764984 325.36222,162.35514 327.066478,162.35514 C327.940942,162.35514 328.882672,162.47721 329.891668,162.720831 C330.900664,162.942635 331.752531,163.275082 332.447792,163.718171 L331.808761,165.712852 C331.359968,165.336252 330.687304,164.992378 329.790768,164.682267 C328.916305,164.372157 327.951978,164.216842 326.898312,164.216842 Z M341.744222,164.216842 C340.66796,164.216842 339.882834,164.41631 339.389898,164.815246 C338.919033,165.191846 338.6836,165.712852 338.6836,166.377746 C338.6836,166.59955 338.717233,166.832263 338.783974,167.075884 C338.851766,167.319505 338.974738,167.552218 339.154465,167.774023 C339.356264,167.973491 339.613769,168.172959 339.928029,168.372427 C340.264361,168.549559 340.701593,168.693965 341.239724,168.804608 L343.627682,169.336523 C344.569412,169.535991 345.320379,169.812856 345.881108,170.16764 C346.463908,170.500086 346.912176,170.865778 347.226436,171.264714 C347.540171,171.66365 347.74197,172.073495 347.831834,172.494767 C347.943769,172.893703 348,173.270303 348,173.625086 C348,174.312316 347.853906,174.954874 347.562768,175.553278 C347.293703,176.151682 346.890104,176.672689 346.351973,177.115778 C345.835913,177.558867 345.196882,177.902742 344.434879,178.146363 C343.672351,178.41232 342.820485,178.545299 341.878755,178.545299 C340.690031,178.545299 339.591697,178.379076 338.5827,178.046629 C337.573704,177.691846 336.766507,177.304338 336.161109,176.883065 L336.766507,174.722161 C337.573704,175.453544 338.470239,175.985459 339.457164,176.317906 C340.443563,176.650352 341.329062,176.816576 342.114188,176.816576 C343.23512,176.816576 344.086986,176.550618 344.670312,176.018703 C345.253112,175.464452 345.544775,174.888384 345.544775,174.28998 C345.544775,174.090512 345.533214,173.868708 345.511142,173.625086 C345.488545,173.359129 345.398681,173.093171 345.242077,172.827214 C345.084946,172.561257 344.849514,172.317635 344.535779,172.095831 C344.221519,171.85221 343.773251,171.66365 343.190451,171.530671 L339.961662,170.732799 C339.221731,170.555667 338.616334,170.322955 338.145469,170.034661 C337.674604,169.746367 337.304638,169.436257 337.035573,169.10381 C336.766507,168.749027 336.575744,168.383335 336.463808,168.006735 C336.351347,167.607799 336.295642,167.208863 336.295642,166.809927 C336.295642,165.457803 336.80014,164.383065 337.809137,163.585193 C338.840205,162.764984 340.208131,162.35514 341.912388,162.35514 C342.786852,162.35514 343.728582,162.47721 344.737578,162.720831 C345.746575,162.942635 346.598441,163.275082 347.293703,163.718171 L346.654671,165.712852 C346.205878,165.336252 345.533214,164.992378 344.636679,164.682267 C343.762215,164.372157 342.797888,164.216842 341.744222,164.216842 Z" id="Shape" fill="#FFFFFF" fill-rule="nonzero"></path>
                <path d="M101,95.5452991 L166,58.5452991" id="Path" stroke="#FFFFFF" stroke-width="3"></path>
                <path d="M269,143.545299 L234,78.5452991" id="Path" stroke="#FFFFFF" stroke-width="3"></path>
                <path d="M395,60.5452991 L327.5,143.045299" id="Path" stroke="#FFFFFF" stroke-width="3"></path>
                <path d="M345,395.545299 L466,236.545299" id="Path" stroke="#FFFFFF" stroke-width="3"></path>
                <path d="M251,397.545299 L81,167.545299" id="Path" stroke="#FFFFFF" stroke-width="3" stroke-dasharray="30"></path>
                <path d="M494,68.5452991 L509,142.545299" id="Path" stroke="#FFFFFF" stroke-width="3"></path>
            </g>
        </g>
    </g>
</svg>