
<svg width="10px" height="201px" viewBox="0 0 10 201" version="1.1" xmlns="http://www.w3.org/2000/svg" xmlns:xlink="http://www.w3.org/1999/xlink">
    <g id="Page-1" stroke="none" stroke-width="1" fill="none" fill-rule="evenodd">
        <g id="Detail-2" transform="translate(-127.000000, -602.000000)" fill="#FFFFFF" fill-rule="nonzero">
            <path d="M40.384,698.684 L40.384,707 L39.28,707 L39.28,700.94 L36.496,707 L35.788,707 L32.992,700.94 L32.992,707 L31.9,707 L31.9,698.684 L33.016,698.684 L36.148,705.5 L39.268,698.684 L40.384,698.684 Z M50.92,707 L50.272,705.176 L46.576,705.176 L45.928,707 L44.812,707 L47.836,698.684 L49.036,698.684 L52.048,707 L50.92,707 Z M46.888,704.312 L49.96,704.312 L48.424,700.016 L46.888,704.312 Z M57.568,706.16 L59.104,706.16 C60.1520052,706.16 60.9519972,705.872003 61.504,705.296 C62.0560028,704.719997 62.332,703.916005 62.332,702.884 C62.332,701.851995 62.0560028,701.048003 61.504,700.472 C60.9519972,699.895997 60.1520052,699.608 59.104,699.608 L57.568,699.608 L57.568,706.16 Z M59.104,698.684 C60.4480067,698.684 61.5079961,699.059996 62.284,699.812 C63.0600039,700.564004 63.448,701.587994 63.448,702.884 C63.448,704.180006 63.0600039,705.189996 62.284,705.914 C61.5079961,706.638004 60.4480067,707 59.104,707 L56.476,707 L56.476,698.684 L59.104,698.684 Z M72.232,698.684 L72.232,699.548 L68.92,699.548 L68.92,702.38 L71.872,702.38 L71.872,703.232 L68.92,703.232 L68.92,706.136 L72.232,706.136 L72.232,707 L67.828,707 L67.828,698.684 L72.232,698.684 Z M92.908,698.684 L94.06,698.684 L91.54,707 L90.316,707 L88.444,700.28 L86.44,707 L85.228,707.012 L82.876,698.684 L84.028,698.684 L85.876,705.752 L87.892,698.684 L89.092,698.684 L90.952,705.728 L92.908,698.684 Z M98.248,707 L98.248,698.684 L99.34,698.684 L99.34,707 L98.248,707 Z M103.768,699.56 L103.768,698.684 L109.252,698.684 L109.252,699.56 L107.056,699.56 L107.056,707 L105.964,707 L105.964,699.56 L103.768,699.56 Z M118.972,698.684 L120.076,698.684 L120.076,707 L118.972,707 L118.972,703.244 L114.784,703.244 L114.784,707 L113.692,707 L113.692,698.684 L114.784,698.684 L114.784,702.38 L118.972,702.38 L118.972,698.684 Z M131.476,698.684 L132.568,698.684 L132.568,706.16 L135.484,706.16 L135.484,707 L131.476,707 L131.476,698.684 Z M145.66,705.212 C146.244003,704.611997 146.536,703.820005 146.536,702.836 C146.536,701.851995 146.244003,701.062003 145.66,700.466 C145.075997,699.869997 144.330005,699.572 143.422,699.572 C142.513995,699.572 141.766003,699.869997 141.178,700.466 C140.589997,701.062003 140.296,701.851995 140.296,702.836 C140.296,703.820005 140.591997,704.611997 141.184,705.212 C141.776003,705.812003 142.523995,706.112 143.428,706.112 C144.332005,706.112 145.075997,705.812003 145.66,705.212 Z M143.428,707.084 C142.235994,707.084 141.232004,706.682004 140.416,705.878 C139.599996,705.073996 139.192,704.058006 139.192,702.83 C139.192,701.601994 139.599996,700.590004 140.416,699.794 C141.232004,698.997996 142.235994,698.6 143.428,698.6 C144.620006,698.6 145.621996,698.997996 146.434,699.794 C147.246004,700.590004 147.652,701.603994 147.652,702.836 C147.652,704.068006 147.246004,705.083996 146.434,705.884 C145.621996,706.684004 144.620006,707.084 143.428,707.084 Z M154.6,707 L151.396,698.684 L152.56,698.684 L155.176,705.836 L157.816,698.684 L158.98,698.684 L155.776,707 L154.6,707 Z M167.572,698.684 L167.572,699.548 L164.26,699.548 L164.26,702.38 L167.212,702.38 L167.212,703.232 L164.26,703.232 L164.26,706.136 L167.572,706.136 L167.572,707 L163.168,707 L163.168,698.684 L167.572,698.684 Z M178.828,698.684 L181.804,698.684 C182.652004,698.684 183.307998,698.889998 183.772,699.302 C184.236002,699.714002 184.468,700.243997 184.468,700.892 C184.468,701.820005 183.936005,702.431999 182.872,702.728 C183.408003,702.816 183.839998,703.055998 184.168,703.448 C184.496002,703.840002 184.66,704.291997 184.66,704.804 C184.66,705.436003 184.414002,705.959998 183.922,706.376 C183.429998,706.792002 182.772004,707 181.948,707 L178.828,707 L178.828,698.684 Z M179.92,699.56 L179.92,702.296 L181.756,702.296 C182.260003,702.296 182.653999,702.174001 182.938,701.93 C183.222001,701.685999 183.364,701.354002 183.364,700.934 C183.364,700.513998 183.222001,700.180001 182.938,699.932 C182.653999,699.683999 182.260003,699.56 181.756,699.56 L179.92,699.56 Z M179.92,706.136 L181.888,706.136 C182.416003,706.136 182.829998,706.004001 183.13,705.74 C183.430002,705.475999 183.58,705.114002 183.58,704.654 C183.58,704.193998 183.418002,703.832001 183.094,703.568 C182.769998,703.303999 182.340003,703.172 181.804,703.172 L179.92,703.172 L179.92,706.136 Z M192.256,707 L191.164,707 L191.164,703.856 L188.452,698.684 L189.652,698.684 L191.704,702.848 L193.744,698.684 L194.956,698.684 L192.256,703.856 L192.256,707 Z M205.636,698.684 L206.728,698.684 L206.728,706.16 L209.644,706.16 L209.644,707 L205.636,707 L205.636,698.684 Z M219.82,705.212 C220.404003,704.611997 220.696,703.820005 220.696,702.836 C220.696,701.851995 220.404003,701.062003 219.82,700.466 C219.235997,699.869997 218.490005,699.572 217.582,699.572 C216.673995,699.572 215.926003,699.869997 215.338,700.466 C214.749997,701.062003 214.456,701.851995 214.456,702.836 C214.456,703.820005 214.751997,704.611997 215.344,705.212 C215.936003,705.812003 216.683995,706.112 217.588,706.112 C218.492005,706.112 219.235997,705.812003 219.82,705.212 Z M217.588,707.084 C216.395994,707.084 215.392004,706.682004 214.576,705.878 C213.759996,705.073996 213.352,704.058006 213.352,702.83 C213.352,701.601994 213.759996,700.590004 214.576,699.794 C215.392004,698.997996 216.395994,698.6 217.588,698.6 C218.780006,698.6 219.781996,698.997996 220.594,699.794 C221.406004,700.590004 221.812,701.603994 221.812,702.836 C221.812,704.068006 221.406004,705.083996 220.594,705.884 C219.781996,706.684004 218.780006,707.084 217.588,707.084 Z M227.26,707 L226.168,707 L226.168,698.684 L227.26,698.684 L227.26,702.536 L230.68,698.684 L232.108,698.684 L228.22,702.896 L232.108,707 L230.656,707 L227.26,703.28 L227.26,707 Z" id="MADEWITHLOVEBYLOK" transform="translate(132.004000, 702.842000) rotate(-90.000000) translate(-132.004000, -702.842000) "></path>
        </g>
    </g>
</svg>