
<svg width="21px" height="18px" viewBox="0 0 21 18" version="1.1" xmlns="http://www.w3.org/2000/svg" xmlns:xlink="http://www.w3.org/1999/xlink">
    <g id="Page-1" stroke="none" stroke-width="1" fill="none" fill-rule="evenodd">
        <g id="Detail-2" transform="translate(-1360.000000, -417.000000)" stroke="#FFFFFF">
            <g id="social" transform="translate(1360.000000, 381.000000)">
                <path d="M20,38.928934 C19.4331613,39.7580414 18.747889,40.4644641 17.9441624,41.0482234 C17.9526227,41.1666673 17.9568528,41.3443305 17.9568528,41.5812183 C17.9568528,42.6810546 17.7961099,43.7787593 17.4746193,44.8743655 C17.1531287,45.9699716 16.6645549,47.0211456 16.0088832,48.0279188 C15.3532116,49.034692 14.5727626,49.925123 13.6675127,50.6992386 C12.7622628,51.4733541 11.6709032,52.0909452 10.393401,52.5520305 C9.11589886,53.0131157 7.74958426,53.2436548 6.29441624,53.2436548 C4.00168058,53.2436548 1.90356282,52.6302938 0,51.4035533 C0.296109772,51.4373944 0.626055711,51.4543147 0.989847716,51.4543147 C2.89341053,51.4543147 4.58967107,50.8705642 6.0786802,49.7030457 C5.19035089,49.6861251 4.39509657,49.4132852 3.6928934,48.8845178 C2.99069023,48.3557503 2.50846155,47.6810532 2.24619289,46.8604061 C2.52538211,46.9027075 2.78341675,46.9238579 3.02030457,46.9238579 C3.38409657,46.9238579 3.74365305,46.877327 4.09898477,46.784264 C3.1514335,46.5896775 2.36675438,46.118024 1.74492386,45.3692893 C1.12309334,44.6205546 0.812182741,43.751274 0.812182741,42.7614213 L0.812182741,42.7106599 C1.38748173,43.0321505 2.00507284,43.2055836 2.66497462,43.2309645 C2.10659619,42.8587122 1.6624382,42.3722534 1.33248731,41.7715736 C1.00253642,41.1708938 0.837563452,40.5194621 0.837563452,39.8172589 C0.837563452,39.0727543 1.0236868,38.3832519 1.39593909,37.748731 C2.41963287,39.0093126 3.66539029,40.0181857 5.13324873,40.7753807 C6.60110717,41.5325757 8.17258046,41.9534683 9.84771574,42.0380711 C9.7800335,41.7165805 9.74619289,41.4035548 9.74619289,41.0989848 C9.74619289,39.9653074 10.1459351,38.998735 10.9454315,38.1992386 C11.7449279,37.3997422 12.7115003,37 13.8451777,37 C15.0296168,37 16.0279147,37.4314678 16.8401015,38.2944162 C17.762272,38.1167504 18.6294376,37.7868044 19.4416244,37.3045685 C19.128594,38.2775006 18.5279232,39.0304542 17.6395939,39.5634518 C18.4263999,39.478849 19.213194,39.2673452 20,38.928934 Z" id="twitter---FontAwesome"></path>
            </g>
        </g>
    </g>
</svg>