
<svg width="146px" height="20px" viewBox="0 0 146 20" version="1.1" xmlns="http://www.w3.org/2000/svg" xmlns:xlink="http://www.w3.org/1999/xlink">
    <g id="Page-1" stroke="none" stroke-width="1" fill="none" fill-rule="evenodd">
        <g id="Hero-2" transform="translate(-779.000000, -265.000000)" fill-rule="nonzero">
            <g id="Group" transform="translate(779.000000, 265.600000)">
                <path d="M7.636,8.4 L6.988,6.576 L3.292,6.576 L2.644,8.4 L1.528,8.4 L4.552,0.084 L5.752,0.084 L8.764,8.4 L7.636,8.4 Z M3.604,5.712 L6.676,5.712 L5.14,1.416 L3.604,5.712 Z M16.996,8.472 C15.803994,8.472 14.8000041,8.072004 13.984,7.272 C13.1679959,6.471996 12.76,5.45800614 12.76,4.23 C12.76,3.00199386 13.1679959,1.99000398 13.984,1.194 C14.8000041,0.39799602 15.803994,1.86517468e-14 16.996,1.86517468e-14 C17.8600043,1.86517468e-14 18.6299966,0.20399796 19.306,0.612 C19.9820034,1.02000204 20.4799984,1.60799616 20.8,2.376 L19.48,2.376 C18.9839975,1.43999532 18.1560058,0.972 16.996,0.972 C16.0919955,0.972 15.3460029,1.26999702 14.758,1.866 C14.1699971,2.46200298 13.876,3.25199508 13.876,4.236 C13.876,5.22000492 14.1699971,6.011997 14.758,6.612 C15.3460029,7.212003 16.0919955,7.512 16.996,7.512 C17.5480028,7.512 18.0399978,7.39000122 18.472,7.146 C18.9040022,6.90199878 19.2399988,6.55200228 19.48,6.096 L20.8,6.096 C20.4799984,6.86400384 19.9820034,7.45199796 19.306,7.86 C18.6299966,8.26800204 17.8600043,8.472 16.996,8.472 Z M29.32,8.472 C28.127994,8.472 27.1240041,8.072004 26.308,7.272 C25.4919959,6.471996 25.084,5.45800614 25.084,4.23 C25.084,3.00199386 25.4919959,1.99000398 26.308,1.194 C27.1240041,0.39799602 28.127994,1.86517468e-14 29.32,1.86517468e-14 C30.1840043,1.86517468e-14 30.9539966,0.20399796 31.63,0.612 C32.3060034,1.02000204 32.8039984,1.60799616 33.124,2.376 L31.804,2.376 C31.3079975,1.43999532 30.4800058,0.972 29.32,0.972 C28.4159955,0.972 27.6700029,1.26999702 27.082,1.866 C26.4939971,2.46200298 26.2,3.25199508 26.2,4.236 C26.2,5.22000492 26.4939971,6.011997 27.082,6.612 C27.6700029,7.212003 28.4159955,7.512 29.32,7.512 C29.8720028,7.512 30.3639978,7.39000122 30.796,7.146 C31.2280022,6.90199878 31.5639988,6.55200228 31.804,6.096 L33.124,6.096 C32.8039984,6.86400384 32.3060034,7.45199796 31.63,7.86 C30.9539966,8.26800204 30.1840043,8.472 29.32,8.472 Z M42.244,0.084 L42.244,0.948 L38.932,0.948 L38.932,3.78 L41.884,3.78 L41.884,4.632 L38.932,4.632 L38.932,7.536 L42.244,7.536 L42.244,8.4 L37.84,8.4 L37.84,0.084 L42.244,0.084 Z M47.788,2.304 C47.788,2.60800152 47.8719992,2.859999 48.04,3.06 C48.2080008,3.260001 48.4239987,3.40799952 48.688,3.504 C48.886001,3.57600036 49.1008746,3.64124998 49.3326245,3.69974992 L49.57,3.756 C49.8940016,3.82800036 50.2179984,3.90999954 50.542,4.002 C50.8660016,4.09400046 51.1599987,4.21199928 51.424,4.356 C51.6880013,4.5 51.9039992,4.71599856 52.072,5.004 C52.2400008,5.29200144 52.324,5.64799788 52.324,6.072 C52.324,6.72000324 52.0760025,7.2839976 51.58,7.764 C51.0839975,8.2440024 50.4140042,8.484 49.57,8.484 C48.7259958,8.484 48.0400026,8.29000194 47.512,7.902 C46.9839974,7.51399806 46.72,6.98800332 46.72,6.324 L47.884,6.324 C47.9160002,6.70000188 48.0659987,7.00399884 48.334,7.236 C48.6020013,7.46800116 48.9999974,7.584 49.528,7.584 C50.0560026,7.584 50.4759984,7.44800136 50.788,7.176 C51.1000016,6.90399864 51.256,6.58600182 51.256,6.222 C51.256,5.85799818 51.1720008,5.57800098 51.004,5.382 C50.8359992,5.18599902 50.6200013,5.04000048 50.356,4.944 C50.157999,4.87199964 49.9431254,4.80787501 49.7113755,4.75162508 L49.474,4.698 C49.1499984,4.62999966 48.8260016,4.54800048 48.502,4.452 C48.1779984,4.35599952 47.8840013,4.23400074 47.62,4.086 C47.3559987,3.93799926 47.1400008,3.71800146 46.972,3.426 C46.8039992,3.13399854 46.72,2.77200216 46.72,2.34 C46.72,1.63599648 46.9699975,1.07000214 47.47,0.642 C47.9700025,0.21399786 48.621996,1.86517468e-14 49.426,1.86517468e-14 C50.230004,1.86517468e-14 50.8699976,0.18599814 51.346,0.558 C51.8220024,0.93000186 52.0959996,1.44399672 52.168,2.1 L50.956,2.1 C50.9239998,1.77199836 50.7700014,1.49200116 50.494,1.26 C50.2179986,1.02799884 49.8460023,0.912 49.378,0.912 C48.9099977,0.912 48.5280015,1.02999882 48.232,1.266 C47.9359985,1.50200118 47.788,1.84799772 47.788,2.304 Z M57.832,2.304 C57.832,2.60800152 57.9159992,2.859999 58.084,3.06 C58.2520008,3.260001 58.4679987,3.40799952 58.732,3.504 C58.930001,3.57600036 59.1448746,3.64124998 59.3766245,3.69974992 L59.614,3.756 C59.9380016,3.82800036 60.2619984,3.90999954 60.586,4.002 C60.9100016,4.09400046 61.2039987,4.21199928 61.468,4.356 C61.7320013,4.5 61.9479992,4.71599856 62.116,5.004 C62.2840008,5.29200144 62.368,5.64799788 62.368,6.072 C62.368,6.72000324 62.1200025,7.2839976 61.624,7.764 C61.1279975,8.2440024 60.4580042,8.484 59.614,8.484 C58.7699958,8.484 58.0840026,8.29000194 57.556,7.902 C57.0279974,7.51399806 56.764,6.98800332 56.764,6.324 L57.928,6.324 C57.9600002,6.70000188 58.1099987,7.00399884 58.378,7.236 C58.6460013,7.46800116 59.0439974,7.584 59.572,7.584 C60.1000026,7.584 60.5199984,7.44800136 60.832,7.176 C61.1440016,6.90399864 61.3,6.58600182 61.3,6.222 C61.3,5.85799818 61.2160008,5.57800098 61.048,5.382 C60.8799992,5.18599902 60.6640013,5.04000048 60.4,4.944 C60.201999,4.87199964 59.9871254,4.80787501 59.7553755,4.75162508 L59.518,4.698 C59.1939984,4.62999966 58.8700016,4.54800048 58.546,4.452 C58.2219984,4.35599952 57.9280013,4.23400074 57.664,4.086 C57.3999987,3.93799926 57.1840008,3.71800146 57.016,3.426 C56.8479992,3.13399854 56.764,2.77200216 56.764,2.34 C56.764,1.63599648 57.0139975,1.07000214 57.514,0.642 C58.0140025,0.21399786 58.665996,1.86517468e-14 59.47,1.86517468e-14 C60.274004,1.86517468e-14 60.9139976,0.18599814 61.39,0.558 C61.8660024,0.93000186 62.1399996,1.44399672 62.212,2.1 L61,2.1 C60.9679998,1.77199836 60.8140014,1.49200116 60.538,1.26 C60.2619986,1.02799884 59.8900023,0.912 59.422,0.912 C58.9539977,0.912 58.5720015,1.02999882 58.276,1.266 C57.9799985,1.50200118 57.832,1.84799772 57.832,2.304 Z M79.072,0.084 L80.164,0.084 L80.164,8.4 L79.072,8.4 L74.68,1.8 L74.68,8.4 L73.588,8.4 L73.588,0.084 L74.68,0.084 L79.072,6.684 L79.072,0.084 Z M91,6.612 C91.5840029,6.011997 91.876,5.22000492 91.876,4.236 C91.876,3.25199508 91.5840029,2.46200298 91,1.866 C90.4159971,1.26999702 89.6700045,0.972 88.762,0.972 C87.8539955,0.972 87.1060029,1.26999702 86.518,1.866 C85.9299971,2.46200298 85.636,3.25199508 85.636,4.236 C85.636,5.22000492 85.931997,6.011997 86.524,6.612 C87.116003,7.212003 87.8639955,7.512 88.768,7.512 C89.6720045,7.512 90.4159971,7.212003 91,6.612 Z M88.768,8.484 C87.575994,8.484 86.5720041,8.08200402 85.756,7.278 C84.9399959,6.47399598 84.532,5.45800614 84.532,4.23 C84.532,3.00199386 84.9399959,1.99000398 85.756,1.194 C86.5720041,0.39799602 87.575994,1.86517468e-14 88.768,1.86517468e-14 C89.960006,1.86517468e-14 90.9619959,0.39799602 91.774,1.194 C92.5860041,1.99000398 92.992,3.00399384 92.992,4.236 C92.992,5.46800616 92.5860041,6.483996 91.774,7.284 C90.9619959,8.084004 89.960006,8.484 88.768,8.484 Z M106.768,0.084 L107.92,0.084 L105.4,8.4 L104.176,8.4 L102.304,1.68 L100.3,8.4 L99.088,8.412 L96.736,0.084 L97.888,0.084 L99.736,7.152 L101.752,0.084 L102.952,0.084 L104.812,7.128 L106.768,0.084 Z" id="ACCESSNOW" fill="#1E252C"></path>
                <path d="M142.674774,7.07349516 L142.325476,7.4 L141.62688,6.74699031 L141.976178,6.42048547 L143.109,5.361 L128,5.36174758 L128,4.43825242 L143.109,4.438 L141.976178,3.37951453 L141.62688,3.05300969 L142.325476,2.4 L142.674774,2.72650484 L144.301404,4.24699031 L144.506,4.438 L144.650702,4.57349516 L145,4.9 L144.301404,5.55300969 L142.674774,7.07349516 Z" id="Combined-Shape" fill="#1E252C"></path>
                <path d="M0.5,18.9 L145.5,18.9" id="Line-3" stroke="#1E252C" stroke-linecap="square"></path>
            </g>
        </g>
    </g>
</svg>